SplineFontDB: 3.2
FontName: BibleRomanCondensedItalic
FullName: Bible Roman Condensed Italic
FamilyName: Bible Roman Condensed
Weight: Book
Copyright: 2002, Fredrick Nader. All rights reserved. apostrophe@apostrophiclab.com
Version: 1.0; December 2002
ItalicAngle: -13.2
UnderlinePosition: -150
UnderlineWidth: 40
Ascent: 819
Descent: 205
InvalidEm: 0
sfntRevision: 0x00010000
LayerCount: 2
Layer: 0 1 "Hinten" 1
Layer: 1 1 "Vorne" 0
XUID: [1021 256 -1967491057 23999]
StyleMap: 0x0001
FSType: 0
OS2Version: 2
OS2_WeightWidthSlopeOnly: 0
OS2_UseTypoMetrics: 0
CreationTime: 1039457615
ModificationTime: 1771267779
PfmFamily: 17
TTFWeight: 400
TTFWidth: 3
LineGap: 28
VLineGap: 0
Panose: 2 2 5 0 6 4 11 2 4 3
OS2TypoAscent: 816
OS2TypoAOffset: 0
OS2TypoDescent: -281
OS2TypoDOffset: 0
OS2TypoLinegap: 54
OS2WinAscent: 1026
OS2WinAOffset: 0
OS2WinDescent: 298
OS2WinDOffset: 0
HheadAscent: 1026
HheadAOffset: 0
HheadDescent: -298
HheadDOffset: 0
OS2SubXSize: 717
OS2SubYSize: 666
OS2SubXOff: 0
OS2SubYOff: 143
OS2SupXSize: 717
OS2SupYSize: 666
OS2SupXOff: 0
OS2SupYOff: 488
OS2StrikeYSize: 51
OS2StrikeYPos: 256
OS2FamilyClass: 258
OS2Vendor: 'APOS'
OS2CodePages: 20000111.00000000
OS2UnicodeRanges: 80000027.4000004a.00000000.00000000
Lookup: 1 0 0 "'smcp' Gemeine in Kapit+AOQA-lchen in Lateinisch Nachschlagetabelle 0" { "'smcp' Gemeine in Kapit+AOQA-lchen in Lateinisch Nachschlagetabelle 0 Subtabelle"  } ['smcp' ('latn' <'dflt' > ) ]
Lookup: 1 0 0 "'c2sc' Versalien in Kapit+AOQA-lchen in Lateinisch Nachschlagetabelle 0" { "'c2sc' Versalien in Kapit+AOQA-lchen in Lateinisch Nachschlagetabelle 0 Subtabelle"  } ['c2sc' ('latn' <'dflt' > ) ]
Lookup: 258 0 0 "'kern' Horizontale Unterschneidung in Lateinisch Nachschlagetabelle 0" { "'kern' Horizontale Unterschneidung in Lateinisch Nachschlagetabelle 0 Subtabelle"  } ['kern' ('DFLT' <'dflt' > 'latn' <'dflt' > ) ]
MarkAttachClasses: 1
DEI: 91125
ShortTable: maxp 16
  1
  0
  248
  235
  7
  0
  0
  1
  0
  0
  0
  0
  0
  0
  0
  0
EndShort

StartChar: breve
Encoding: 5 5 4
Width: 330
Flags: W
LayerCount: 2
Fore
SplineSet
270.75 586 m 0,0,1
 282 586 282 586 293.625 592 c 128,-1,2
 305.25 598 305.25 598 315 609 c 128,-1,3
 324.75 620 324.75 620 331.875 633.5 c 128,-1,4
 339 647 339 647 342 664 c 1,5,-1
 371.25 664 l 1,6,7
 366.75 637 366.75 637 355.125 614.5 c 128,-1,8
 343.5 592 343.5 592 328.5 575 c 128,-1,9
 313.5 558 313.5 558 295.875 548.5 c 128,-1,10
 278.25 539 278.25 539 259.5 539 c 0,11,12
 256.5 539 256.5 539 253.5 541 c 0,13,14
 240 542 240 542 228.375 553.5 c 128,-1,15
 216.75 565 216.75 565 209.25 583 c 128,-1,16
 201.75 601 201.75 601 199.125 622 c 128,-1,17
 196.5 643 196.5 643 199.5 664 c 1,18,-1
 232.5 664 l 1,19,20
 231 651 231 651 232.875 637.5 c 128,-1,21
 234.75 624 234.75 624 239.25 613 c 128,-1,22
 243.75 602 243.75 602 250.875 595 c 128,-1,23
 258 588 258 588 266.25 587 c 0,24,25
 267.75 586 267.75 586 270.75 586 c 0,0,1
EndSplineSet
EndChar

StartChar: dotaccent
Encoding: 6 6 5
Width: 318
Flags: W
LayerCount: 2
Fore
SplineSet
327.75 638 m 0,0,1
 323.25 610 323.25 610 305.625 590.5 c 128,-1,2
 288 571 288 571 268.5 571 c 0,3,4
 265.5 571 265.5 571 265.5 572 c 0,5,6
 258 573 258 573 252 580 c 128,-1,7
 246 587 246 587 242.25 596.5 c 128,-1,8
 238.5 606 238.5 606 237.375 618 c 128,-1,9
 236.25 630 236.25 630 237.75 641 c 0,10,11
 241.5 665 241.5 665 258.375 684 c 128,-1,12
 275.25 703 275.25 703 291 703 c 0,13,14
 309.75 703 309.75 703 321 684 c 128,-1,15
 332.25 665 332.25 665 327.75 638 c 0,0,1
EndSplineSet
EndChar

StartChar: ring
Encoding: 8 8 6
Width: 325
Flags: W
LayerCount: 2
Fore
SplineSet
319.5 635 m 256,0,1
 324 661 324 661 314.25 678.5 c 128,-1,2
 304.5 696 304.5 696 287.25 696 c 0,3,4
 272.25 696 272.25 696 257.25 679 c 128,-1,5
 242.25 662 242.25 662 237.75 639 c 0,6,7
 236.25 629 236.25 629 237.375 618 c 128,-1,8
 238.5 607 238.5 607 242.25 598 c 128,-1,9
 246 589 246 589 251.25 583 c 128,-1,10
 256.5 577 256.5 577 263.25 575 c 0,11,12
 264 574 264 574 266.25 574 c 0,13,14
 284.25 574 284.25 574 299.625 591.5 c 128,-1,15
 315 609 315 609 319.5 635 c 256,0,1
342.75 635 m 0,16,17
 339 615 339 615 330.75 597.5 c 128,-1,18
 322.5 580 322.5 580 310.875 567 c 128,-1,19
 299.25 554 299.25 554 285.375 546.5 c 128,-1,20
 271.5 539 271.5 539 258 539 c 0,21,22
 253.5 539 253.5 539 252.75 541 c 0,23,24
 241.5 542 241.5 542 232.875 551.5 c 128,-1,25
 224.25 561 224.25 561 219 575.5 c 128,-1,26
 213.75 590 213.75 590 211.875 607 c 128,-1,27
 210 624 210 624 213 640 c 0,28,29
 216 657 216 657 223.5 673.5 c 128,-1,30
 231 690 231 690 242.25 703 c 128,-1,31
 253.5 716 253.5 716 265.875 723.5 c 128,-1,32
 278.25 731 278.25 731 290.25 731 c 0,33,34
 321 731 321 731 335.25 703.5 c 128,-1,35
 349.5 676 349.5 676 342.75 635 c 0,16,17
EndSplineSet
EndChar

StartChar: hungarumlaut
Encoding: 10 10 7
Width: 366
Flags: W
LayerCount: 2
Fore
SplineSet
303 718 m 0,0,1
 306 713 306 713 308.25 711.5 c 128,-1,2
 310.5 710 310.5 710 312 708 c 128,-1,3
 313.5 706 313.5 706 316.125 702.5 c 128,-1,4
 318.75 699 318.75 699 324 693 c 0,5,6
 329.25 690 329.25 690 327.375 682.5 c 128,-1,7
 325.5 675 325.5 675 321.75 671 c 0,8,9
 315.75 663 315.75 663 298.875 639.5 c 128,-1,10
 282 616 282 616 263.25 591 c 128,-1,11
 244.5 566 244.5 566 228.375 545.5 c 128,-1,12
 212.25 525 212.25 525 208.5 522 c 0,13,14
 201 516 201 516 196.5 521.5 c 128,-1,15
 192 527 192 527 198 539 c 0,16,17
 204 552 204 552 216 576 c 128,-1,18
 228 600 228 600 241.125 626 c 128,-1,19
 254.25 652 254.25 652 266.625 675.5 c 128,-1,20
 279 699 279 699 285.75 712 c 0,21,22
 290.25 720 290.25 720 294 722 c 128,-1,23
 297.75 724 297.75 724 303 718 c 0,0,1
398.25 718 m 0,24,25
 401.25 713 401.25 713 403.5 711.5 c 128,-1,26
 405.75 710 405.75 710 407.25 708 c 128,-1,27
 408.75 706 408.75 706 411.375 702.5 c 128,-1,28
 414 699 414 699 419.25 693 c 0,29,30
 424.5 690 424.5 690 422.625 682.5 c 128,-1,31
 420.75 675 420.75 675 417 671 c 0,32,33
 411 663 411 663 393.75 639.5 c 128,-1,34
 376.5 616 376.5 616 358.125 591 c 128,-1,35
 339.75 566 339.75 566 323.625 545.5 c 128,-1,36
 307.5 525 307.5 525 303 522 c 0,37,38
 295.5 516 295.5 516 291.375 521.5 c 128,-1,39
 287.25 527 287.25 527 293.25 539 c 0,40,41
 299.25 552 299.25 552 311.25 576 c 128,-1,42
 323.25 600 323.25 600 336.375 626 c 128,-1,43
 349.5 652 349.5 652 361.875 675.5 c 128,-1,44
 374.25 699 374.25 699 381 712 c 0,45,46
 385.5 720 385.5 720 389.25 722 c 128,-1,47
 393 724 393 724 398.25 718 c 0,24,25
EndSplineSet
EndChar

StartChar: ogonek
Encoding: 11 11 8
Width: 333
Flags: W
LayerCount: 2
Fore
SplineSet
189 -46 m 0,0,1
 195.75 -20 195.75 -20 208.125 -2.5 c 128,-1,2
 220.5 15 220.5 15 235.5 25.5 c 128,-1,3
 250.5 36 250.5 36 267.375 39.5 c 128,-1,4
 284.25 43 284.25 43 299.25 40 c 0,5,6
 301.5 39 301.5 39 301.125 33.5 c 128,-1,7
 300.75 28 300.75 28 292.5 1 c 1,8,9
 286.5 2 286.5 2 277.5 -2 c 128,-1,10
 268.5 -6 268.5 -6 260.625 -13 c 128,-1,11
 252.75 -20 252.75 -20 246 -30.5 c 128,-1,12
 239.25 -41 239.25 -41 236.25 -51 c 0,13,14
 230.25 -75 230.25 -75 236.25 -95 c 128,-1,15
 242.25 -115 242.25 -115 269.25 -116 c 0,16,17
 284.25 -117 284.25 -117 298.5 -115 c 128,-1,18
 312.75 -113 312.75 -113 331.5 -106 c 1,19,20
 333.75 -112 333.75 -112 333.375 -117.5 c 128,-1,21
 333 -123 333 -123 332.25 -131 c 1,22,23
 314.25 -140 314.25 -140 295.875 -149 c 128,-1,24
 277.5 -158 277.5 -158 259.5 -159 c 0,25,26
 239.25 -160 239.25 -160 223.125 -151.5 c 128,-1,27
 207 -143 207 -143 197.625 -128 c 128,-1,28
 188.25 -113 188.25 -113 185.625 -92 c 128,-1,29
 183 -71 183 -71 189 -46 c 0,0,1
EndSplineSet
EndChar

StartChar: caron
Encoding: 12 12 9
Width: 297
Flags: W
LayerCount: 2
Fore
SplineSet
354.75 716 m 0,0,1
 359.25 716 359.25 716 357.75 709 c 0,2,3
 357 706 357 706 350.25 691.5 c 128,-1,4
 343.5 677 343.5 677 332.625 657.5 c 128,-1,5
 321.75 638 321.75 638 308.625 615.5 c 128,-1,6
 295.5 593 295.5 593 284.25 573.5 c 128,-1,7
 273 554 273 554 263.625 539.5 c 128,-1,8
 254.25 525 254.25 525 250.5 522 c 1,9,10
 245.25 527 245.25 527 245.25 530 c 0,11,12
 233.25 579 233.25 579 221.625 623 c 128,-1,13
 210 667 210 667 206.25 705 c 0,14,15
 206.25 711 206.25 711 206.25 713 c 0,16,17
 207.75 721 207.75 721 214.5 720 c 0,18,19
 217.5 719 217.5 719 223.5 704 c 128,-1,20
 229.5 689 229.5 689 236.625 669.5 c 128,-1,21
 243.75 650 243.75 650 251.25 632 c 128,-1,22
 258.75 614 258.75 614 265.5 607 c 1,23,24
 274.5 614 274.5 614 287.25 632 c 128,-1,25
 300 650 300 650 312.375 668.5 c 128,-1,26
 324.75 687 324.75 687 336.375 701.5 c 128,-1,27
 348 716 348 716 354.75 716 c 0,0,1
EndSplineSet
EndChar

StartChar: dotlessi
Encoding: 13 13 10
Width: 221
Flags: W
LayerCount: 2
Fore
SplineSet
195.75 5 m 0,0,1
 193.5 -6 193.5 -6 186.375 -7 c 128,-1,2
 179.25 -8 179.25 -8 173.25 -8 c 0,3,4
 160.5 -8 160.5 -8 148.5 -5.5 c 128,-1,5
 136.5 -3 136.5 -3 124.5 -3 c 0,6,7
 105.75 -3 105.75 -3 86.25 -5.5 c 128,-1,8
 66.75 -8 66.75 -8 48.75 -8 c 2,9,-1
 39.75 -8 l 2,10,11
 34.5 -8 34.5 -8 30 -6 c 128,-1,12
 25.5 -4 25.5 -4 27 7 c 0,13,14
 27.75 10 27.75 10 29.625 12 c 128,-1,15
 31.5 14 31.5 14 33 16 c 0,16,17
 40.5 23 40.5 23 49.125 25 c 128,-1,18
 57.75 27 57.75 27 65.625 28.5 c 128,-1,19
 73.5 30 73.5 30 81 35.5 c 128,-1,20
 88.5 41 88.5 41 93 57 c 0,21,22
 96 67 96 67 96.75 72 c 2,23,-1
 99.75 87 l 2,24,25
 105.75 120 105.75 120 111 151 c 128,-1,26
 116.25 182 116.25 182 122.25 215 c 0,27,28
 126.75 240 126.75 240 132 264 c 128,-1,29
 137.25 288 137.25 288 141.75 312 c 0,30,31
 144 324 144 324 146.25 341.5 c 128,-1,32
 148.5 359 148.5 359 144.75 370 c 0,33,34
 142.5 376 142.5 376 136.5 380 c 128,-1,35
 130.5 384 130.5 384 124.875 387.5 c 128,-1,36
 119.25 391 119.25 391 115.125 394.5 c 128,-1,37
 111 398 111 398 112.5 403 c 256,38,39
 113.25 408 113.25 408 118.125 412.5 c 128,-1,40
 123 417 123 417 129.75 420.5 c 128,-1,41
 136.5 424 136.5 424 142.875 426.5 c 128,-1,42
 149.25 429 149.25 429 152.25 430 c 0,43,44
 157.5 432 157.5 432 168 439 c 128,-1,45
 178.5 446 178.5 446 189.375 454 c 128,-1,46
 200.25 462 200.25 462 209.25 468 c 128,-1,47
 218.25 474 218.25 474 221.25 474 c 0,48,49
 225.75 474 225.75 474 224.25 469 c 0,50,51
 222 454 222 454 219 439 c 128,-1,52
 216 424 216 424 212.25 409 c 0,53,54
 206.25 378 206.25 378 200.625 346.5 c 128,-1,55
 195 315 195 315 189.75 285 c 0,56,57
 183 247 183 247 176.625 209.5 c 128,-1,58
 170.25 172 170.25 172 165 134 c 0,59,60
 162 117 162 117 158.625 99 c 128,-1,61
 155.25 81 155.25 81 153.75 63 c 0,62,63
 151.5 41 151.5 41 158.25 34.5 c 128,-1,64
 165 28 165 28 174.375 25.5 c 128,-1,65
 183.75 23 183.75 23 190.875 20 c 128,-1,66
 198 17 198 17 195.75 5 c 0,0,1
EndSplineSet
EndChar

StartChar: fraction
Encoding: 25 25 11
Width: 193
Flags: W
LayerCount: 2
Fore
SplineSet
413.25 662 m 1,0,1
 385.5 619 385.5 619 356.25 578.5 c 128,-1,2
 327 538 327 538 297 497 c 0,3,4
 208.5 374 208.5 374 121.5 254 c 128,-1,5
 34.5 134 34.5 134 -51 7 c 1,6,7
 -54 9 -54 9 -61.5 18.5 c 128,-1,8
 -69 28 -69 28 -84 36 c 1,9,10
 31.5 202 31.5 202 147.375 361.5 c 128,-1,11
 263.25 521 263.25 521 378.75 690 c 1,12,13
 386.25 690 386.25 690 396.375 679 c 128,-1,14
 406.5 668 406.5 668 413.25 662 c 1,0,1
EndSplineSet
EndChar

StartChar: fi
Encoding: 26 26 12
Width: 434
Flags: W
LayerCount: 2
Fore
SplineSet
408.75 5 m 0,0,1
 406.5 -6 406.5 -6 398.625 -7 c 128,-1,2
 390.75 -8 390.75 -8 386.25 -8 c 0,3,4
 373.5 -8 373.5 -8 361.5 -5.5 c 128,-1,5
 349.5 -3 349.5 -3 337.5 -3 c 0,6,7
 318.75 -3 318.75 -3 298.875 -5.5 c 128,-1,8
 279 -8 279 -8 260.25 -8 c 2,9,-1
 252.75 -8 l 2,10,11
 247.5 -8 247.5 -8 242.25 -6 c 128,-1,12
 237 -4 237 -4 239.25 7 c 0,13,14
 240 10 240 10 241.875 12 c 128,-1,15
 243.75 14 243.75 14 245.25 16 c 0,16,17
 252.75 23 252.75 23 261.375 25 c 128,-1,18
 270 27 270 27 278.25 28.5 c 128,-1,19
 286.5 30 286.5 30 293.25 35.5 c 128,-1,20
 300 41 300 41 305.25 57 c 0,21,22
 308.25 67 308.25 67 309.75 72 c 2,23,-1
 312 87 l 2,24,25
 318 120 318 120 323.25 151 c 128,-1,26
 328.5 182 328.5 182 334.5 215 c 0,27,28
 339 240 339 240 344.625 264 c 128,-1,29
 350.25 288 350.25 288 354 312 c 0,30,31
 357 328 357 328 358.125 344.5 c 128,-1,32
 359.25 361 359.25 361 356.625 374.5 c 128,-1,33
 354 388 354 388 346.875 397 c 128,-1,34
 339.75 406 339.75 406 324.75 407 c 2,35,-1
 250.5 407 l 2,36,37
 233.25 407 233.25 407 220.125 406.5 c 128,-1,38
 207 406 207 406 202.5 406 c 1,39,40
 196.5 399 196.5 399 194.25 383.5 c 128,-1,41
 192 368 192 368 190.5 358 c 0,42,43
 178.5 287 178.5 287 166.125 220 c 128,-1,44
 153.75 153 153.75 153 141 82 c 0,45,46
 137.25 59 137.25 59 140.25 48 c 128,-1,47
 143.25 37 143.25 37 150.375 31.5 c 128,-1,48
 157.5 26 157.5 26 168 24.5 c 128,-1,49
 178.5 23 178.5 23 190.5 19 c 0,50,51
 192.75 15 192.75 15 191.25 8 c 256,52,53
 189.75 1 189.75 1 186 -1 c 1,54,-1
 184.5 -4 l 1,55,56
 179.25 -8 179.25 -8 170.25 -8 c 0,57,58
 156.75 -8 156.75 -8 143.625 -5 c 128,-1,59
 130.5 -2 130.5 -2 117.75 -2 c 0,60,61
 96.75 -2 96.75 -2 75.375 -5 c 128,-1,62
 54 -8 54 -8 33 -8 c 0,63,64
 29.25 -8 29.25 -8 22.125 -7 c 128,-1,65
 15 -6 15 -6 16.5 2 c 0,66,67
 18.75 16 18.75 16 27.75 19.5 c 128,-1,68
 36.75 23 36.75 23 48.375 26.5 c 128,-1,69
 60 30 60 30 70.5 40.5 c 128,-1,70
 81 51 81 51 86.25 81 c 2,71,-1
 136.5 375 l 2,72,73
 138.75 388 138.75 388 138.75 402 c 1,74,75
 121.5 405 121.5 405 105.75 406 c 0,76,77
 100.5 406 100.5 406 93.75 408 c 128,-1,78
 87 410 87 410 89.25 421 c 0,79,80
 90 425 90 425 91.125 430.5 c 128,-1,81
 92.25 436 92.25 436 94.5 440 c 0,82,83
 97.5 445 97.5 445 105 447.5 c 128,-1,84
 112.5 450 112.5 450 120.75 451.5 c 128,-1,85
 129 453 129 453 137.25 454 c 128,-1,86
 145.5 455 145.5 455 150.75 458 c 1,87,88
 159.75 498 159.75 498 167.25 539.5 c 128,-1,89
 174.75 581 174.75 581 189 620 c 0,90,91
 201.75 659 201.75 659 221.25 694 c 128,-1,92
 240.75 729 240.75 729 264 755.5 c 128,-1,93
 287.25 782 287.25 782 314.625 797.5 c 128,-1,94
 342 813 342 813 371.25 812 c 0,95,96
 386.25 812 386.25 812 400.875 809 c 128,-1,97
 415.5 806 415.5 806 426.375 797 c 128,-1,98
 437.25 788 437.25 788 442.5 774 c 128,-1,99
 447.75 760 447.75 760 444.75 738 c 0,100,101
 444.75 726 444.75 726 438 714.5 c 128,-1,102
 431.25 703 431.25 703 422.25 696.5 c 128,-1,103
 413.25 690 413.25 690 404.25 689 c 128,-1,104
 395.25 688 395.25 688 390.75 695 c 0,105,106
 387 699 387 699 386.625 710.5 c 128,-1,107
 386.25 722 386.25 722 381.375 732.5 c 128,-1,108
 376.5 743 376.5 743 363.75 752 c 128,-1,109
 351 761 351 761 322.5 761 c 0,110,111
 307.5 761 307.5 761 294.75 747.5 c 128,-1,112
 282 734 282 734 271.125 713 c 128,-1,113
 260.25 692 260.25 692 251.625 665.5 c 128,-1,114
 243 639 243 639 235.875 612 c 128,-1,115
 228.75 585 228.75 585 223.875 560.5 c 128,-1,116
 219 536 219 536 216 518 c 2,117,-1
 213.75 504 l 2,118,119
 211.5 492 211.5 492 208.5 475 c 128,-1,120
 205.5 458 205.5 458 209.25 453 c 1,121,-1
 372.75 453 l 2,122,123
 384 453 384 453 394.125 457.5 c 128,-1,124
 404.25 462 404.25 462 412.5 467 c 128,-1,125
 420.75 472 420.75 472 426 474.5 c 128,-1,126
 431.25 477 431.25 477 433.5 474 c 0,127,128
 434.25 472 434.25 472 435.75 471.5 c 128,-1,129
 437.25 471 437.25 471 436.5 469 c 0,130,131
 434.25 454 434.25 454 430.875 439 c 128,-1,132
 427.5 424 427.5 424 424.5 409 c 0,133,134
 418.5 378 418.5 378 412.875 346.5 c 128,-1,135
 407.25 315 407.25 315 402 285 c 0,136,137
 395.25 247 395.25 247 389.25 209.5 c 128,-1,138
 383.25 172 383.25 172 377.25 134 c 0,139,140
 374.25 117 374.25 117 370.5 99 c 128,-1,141
 366.75 81 366.75 81 365.25 63 c 0,142,143
 363 41 363 41 370.125 34.5 c 128,-1,144
 377.25 28 377.25 28 386.25 25.5 c 128,-1,145
 395.25 23 395.25 23 403.125 20 c 128,-1,146
 411 17 411 17 408.75 5 c 0,0,1
EndSplineSet
EndChar

StartChar: fl
Encoding: 27 27 13
Width: 438
Flags: W
LayerCount: 2
Fore
SplineSet
412.5 8 m 0,0,1
 410.25 -3 410.25 -3 403.5 -6 c 0,2,3
 402.75 -7 402.75 -7 399 -7 c 2,4,-1
 396 -7 l 2,5,6
 379.5 -7 379.5 -7 363.375 -4.5 c 128,-1,7
 347.25 -2 347.25 -2 330.75 -2 c 0,8,9
 309.75 -2 309.75 -2 289.125 -5 c 128,-1,10
 268.5 -8 268.5 -8 248.25 -8 c 0,11,12
 244.5 -8 244.5 -8 237.75 -6.5 c 128,-1,13
 231 -5 231 -5 231.75 3 c 0,14,15
 234 16 234 16 238.875 17.5 c 128,-1,16
 243.75 19 243.75 19 253.5 24 c 0,17,18
 266.25 29 266.25 29 278.25 35.5 c 128,-1,19
 290.25 42 290.25 42 298.5 60 c 0,20,21
 302.25 68 302.25 68 305.25 80.5 c 128,-1,22
 308.25 93 308.25 93 309.75 102 c 0,23,24
 333.75 240 333.75 240 357 374 c 128,-1,25
 380.25 508 380.25 508 405 646 c 0,26,27
 411.75 684 411.75 684 407.25 709.5 c 128,-1,28
 402.75 735 402.75 735 390.75 749 c 128,-1,29
 378.75 763 378.75 763 361.125 765.5 c 128,-1,30
 343.5 768 343.5 768 322.5 761 c 0,31,32
 297.75 753 297.75 753 280.125 723.5 c 128,-1,33
 262.5 694 262.5 694 249.75 657.5 c 128,-1,34
 237 621 237 621 228.75 582.5 c 128,-1,35
 220.5 544 220.5 544 216 518 c 2,36,-1
 213.75 504 l 2,37,38
 211.5 492 211.5 492 208.5 475 c 128,-1,39
 205.5 458 205.5 458 209.25 453 c 1,40,-1
 288.75 453 l 2,41,42
 297.75 453 297.75 453 300.75 446 c 0,43,44
 300 441 300 441 299.625 437 c 128,-1,45
 299.25 433 299.25 433 298.5 428 c 0,46,47
 296.25 417 296.25 417 291.75 409 c 0,48,49
 288 408 288 408 283.875 407.5 c 128,-1,50
 279.75 407 279.75 407 275.25 407 c 2,51,-1
 230.25 407 l 2,52,53
 223.5 407 223.5 407 216.75 407 c 0,54,55
 210.75 407 210.75 407 202.5 406 c 1,56,57
 196.5 399 196.5 399 194.25 383.5 c 128,-1,58
 192 368 192 368 190.5 358 c 0,59,60
 178.5 287 178.5 287 166.125 220 c 128,-1,61
 153.75 153 153.75 153 141 82 c 0,62,63
 137.25 59 137.25 59 140.25 48 c 128,-1,64
 143.25 37 143.25 37 150.375 31.5 c 128,-1,65
 157.5 26 157.5 26 168 24.5 c 128,-1,66
 178.5 23 178.5 23 190.5 19 c 0,67,68
 192.75 15 192.75 15 191.25 8 c 256,69,70
 189.75 1 189.75 1 186 -1 c 1,71,-1
 184.5 -4 l 1,72,73
 179.25 -8 179.25 -8 170.25 -8 c 0,74,75
 156.75 -8 156.75 -8 143.625 -5 c 128,-1,76
 130.5 -2 130.5 -2 117.75 -2 c 0,77,78
 96.75 -2 96.75 -2 75.375 -5 c 128,-1,79
 54 -8 54 -8 33 -8 c 0,80,81
 29.25 -8 29.25 -8 22.125 -7 c 128,-1,82
 15 -6 15 -6 16.5 2 c 0,83,84
 18.75 16 18.75 16 27.75 19.5 c 128,-1,85
 36.75 23 36.75 23 48.375 26.5 c 128,-1,86
 60 30 60 30 70.5 40.5 c 128,-1,87
 81 51 81 51 86.25 81 c 2,88,-1
 136.5 375 l 2,89,90
 138.75 388 138.75 388 138.75 402 c 1,91,92
 121.5 405 121.5 405 105.75 406 c 0,93,94
 100.5 406 100.5 406 93.75 408 c 128,-1,95
 87 410 87 410 89.25 421 c 0,96,97
 90 425 90 425 91.125 430.5 c 128,-1,98
 92.25 436 92.25 436 94.5 440 c 0,99,100
 97.5 445 97.5 445 105 447.5 c 128,-1,101
 112.5 450 112.5 450 120.75 451.5 c 128,-1,102
 129 453 129 453 137.25 454 c 128,-1,103
 145.5 455 145.5 455 150.75 458 c 1,104,105
 159.75 498 159.75 498 167.25 539.5 c 128,-1,106
 174.75 581 174.75 581 189 620 c 0,107,108
 201.75 659 201.75 659 221.25 694 c 128,-1,109
 240.75 729 240.75 729 264 755.5 c 128,-1,110
 287.25 782 287.25 782 314.625 797.5 c 128,-1,111
 342 813 342 813 371.25 812 c 0,112,113
 393 811 393 811 408.375 804.5 c 128,-1,114
 423.75 798 423.75 798 433.5 778 c 1,115,116
 450.75 786 450.75 786 464.25 793 c 0,117,118
 479.25 800 479.25 800 483.75 802 c 1,119,120
 487.5 798 487.5 798 486.75 798 c 1,121,122
 484.5 784 484.5 784 482.625 770.5 c 128,-1,123
 480.75 757 480.75 757 478.5 742 c 0,124,125
 449.25 574 449.25 574 420.375 410.5 c 128,-1,126
 391.5 247 391.5 247 362.25 79 c 0,127,128
 356.25 45 356.25 45 367.5 36.5 c 128,-1,129
 378.75 28 378.75 28 397.5 25 c 0,130,131
 398.25 23 398.25 23 400.5 23.5 c 128,-1,132
 402.75 24 402.75 24 404.25 24 c 0,133,134
 414.75 23 414.75 23 412.5 8 c 0,0,1
EndSplineSet
EndChar

StartChar: Lslash
Encoding: 28 28 14
Width: 446
Flags: W
LayerCount: 2
Fore
SplineSet
82.5 311 m 0,0,1
 82.5 314 82.5 314 87.375 319 c 128,-1,2
 92.25 324 92.25 324 99 328.5 c 128,-1,3
 105.75 333 105.75 333 113.25 337.5 c 128,-1,4
 120.75 342 120.75 342 125.25 345 c 0,5,6
 135.75 351 135.75 351 147.75 360 c 128,-1,7
 159.75 369 159.75 369 171 377 c 1,8,-1
 212.25 614 l 2,9,10
 216.75 640 216.75 640 217.5 660 c 0,11,12
 218.25 683 218.25 683 207 690.5 c 128,-1,13
 195.75 698 195.75 698 182.25 700.5 c 128,-1,14
 168.75 703 168.75 703 158.625 706 c 128,-1,15
 148.5 709 148.5 709 150.75 723 c 256,16,17
 153 737 153 737 161.25 739 c 128,-1,18
 169.5 741 169.5 741 178.5 741 c 0,19,20
 204 741 204 741 226.875 737.5 c 128,-1,21
 249.75 734 249.75 734 274.5 734 c 0,22,23
 300.75 734 300.75 734 325.125 736 c 128,-1,24
 349.5 738 349.5 738 379.5 738 c 1,25,26
 384.75 730 384.75 730 383.25 722 c 0,27,28
 381 710 381 710 372 706 c 128,-1,29
 363 702 363 702 351.375 700.5 c 128,-1,30
 339.75 699 339.75 699 328.125 697.5 c 128,-1,31
 316.5 696 316.5 696 308.25 688 c 0,32,33
 302.25 682 302.25 682 297.75 672 c 128,-1,34
 293.25 662 293.25 662 290.25 650.5 c 128,-1,35
 287.25 639 287.25 639 285 627.5 c 128,-1,36
 282.75 616 282.75 616 281.25 608 c 0,37,38
 273.75 562 273.75 562 265.5 517 c 128,-1,39
 257.25 472 257.25 472 249 426 c 1,40,41
 272.25 440 272.25 440 294.375 454.5 c 128,-1,42
 316.5 469 316.5 469 331.5 478 c 0,43,44
 335.25 480 335.25 480 337.875 463.5 c 128,-1,45
 340.5 447 340.5 447 344.25 427 c 0,46,47
 344.25 424 344.25 424 340.875 420.5 c 128,-1,48
 337.5 417 337.5 417 332.25 413 c 128,-1,49
 327 409 327 409 321.75 405.5 c 128,-1,50
 316.5 402 316.5 402 312 399 c 2,51,-1
 234.75 349 l 1,52,-1
 210 204 l 2,53,54
 207 186 207 186 203.25 163.5 c 128,-1,55
 199.5 141 199.5 141 197.625 121 c 128,-1,56
 195.75 101 195.75 101 195.75 85.5 c 128,-1,57
 195.75 70 195.75 70 199.5 63 c 0,58,59
 213.75 44 213.75 44 236.625 40 c 128,-1,60
 259.5 36 259.5 36 282.375 40.5 c 128,-1,61
 305.25 45 305.25 45 324.75 54 c 128,-1,62
 344.25 63 344.25 63 351.75 70 c 0,63,64
 364.5 79 364.5 79 381 102 c 128,-1,65
 397.5 125 397.5 125 412.5 150 c 128,-1,66
 427.5 175 427.5 175 438.75 195 c 128,-1,67
 450 215 450 215 453 218 c 0,68,69
 460.5 225 460.5 225 468 222.5 c 128,-1,70
 475.5 220 475.5 220 477 211 c 1,71,72
 452.25 170 452.25 170 435 129.5 c 128,-1,73
 417.75 89 417.75 89 406.125 57 c 128,-1,74
 394.5 25 394.5 25 387.375 5 c 128,-1,75
 380.25 -15 380.25 -15 375.75 -15 c 0,76,77
 329.25 -15 329.25 -15 280.125 -6 c 128,-1,78
 231 3 231 3 184.5 3 c 0,79,80
 160.5 3 160.5 3 142.875 1 c 128,-1,81
 125.25 -1 125.25 -1 108.75 -3 c 128,-1,82
 92.25 -5 92.25 -5 74.25 -7 c 128,-1,83
 56.25 -9 56.25 -9 33 -9 c 0,84,85
 28.5 -9 28.5 -9 26.625 -4 c 128,-1,86
 24.75 1 24.75 1 25.5 7 c 0,87,88
 27.75 21 27.75 21 35.625 25 c 128,-1,89
 43.5 29 43.5 29 54.375 30 c 128,-1,90
 65.25 31 65.25 31 78 33.5 c 128,-1,91
 90.75 36 90.75 36 102.75 49 c 0,92,93
 113.25 61 113.25 61 121.125 90 c 128,-1,94
 129 119 129 119 135.75 155 c 128,-1,95
 142.5 191 142.5 191 147.75 229.5 c 128,-1,96
 153 268 153 268 157.5 299 c 1,97,-1
 126 279 l 2,98,99
 123 277 123 277 116.625 273 c 128,-1,100
 110.25 269 110.25 269 104.25 266 c 128,-1,101
 98.25 263 98.25 263 94.125 261.5 c 128,-1,102
 90 260 90 260 90 262 c 0,103,104
 87.75 267 87.75 267 87 276.5 c 128,-1,105
 86.25 286 86.25 286 82.5 311 c 0,0,1
EndSplineSet
EndChar

StartChar: lslash
Encoding: 29 29 15
Width: 225
Flags: W
LayerCount: 2
Fore
SplineSet
204 7 m 0,0,1
 201.75 -4 201.75 -4 194.25 -7 c 0,2,3
 193.5 -8 193.5 -8 190.5 -8 c 2,4,-1
 188.25 -8 l 2,5,6
 171.75 -8 171.75 -8 155.25 -5.5 c 128,-1,7
 138.75 -3 138.75 -3 122.25 -3 c 0,8,9
 101.25 -3 101.25 -3 81 -6 c 128,-1,10
 60.75 -9 60.75 -9 39.75 -9 c 0,11,12
 36 -9 36 -9 29.25 -7.5 c 128,-1,13
 22.5 -6 22.5 -6 24 2 c 0,14,15
 26.25 15 26.25 15 30.75 16.5 c 128,-1,16
 35.25 18 35.25 18 45 23 c 0,17,18
 57.75 28 57.75 28 70.125 34.5 c 128,-1,19
 82.5 41 82.5 41 90.75 59 c 0,20,21
 94.5 67 94.5 67 97.125 79.5 c 128,-1,22
 99.75 92 99.75 92 101.25 101 c 2,23,-1
 141.75 336 l 1,24,-1
 102.75 310 l 2,25,26
 99.75 308 99.75 308 93.375 304.5 c 128,-1,27
 87 301 87 301 81 298 c 128,-1,28
 75 295 75 295 70.5 293.5 c 128,-1,29
 66 292 66 292 66.75 294 c 0,30,31
 64.5 299 64.5 299 63.375 308.5 c 128,-1,32
 62.25 318 62.25 318 58.5 343 c 0,33,34
 58.5 346 58.5 346 63.375 350.5 c 128,-1,35
 68.25 355 68.25 355 75.375 360 c 128,-1,36
 82.5 365 82.5 365 90 369.5 c 128,-1,37
 97.5 374 97.5 374 101.25 377 c 0,38,39
 107.25 380 107.25 380 117.375 387 c 128,-1,40
 127.5 394 127.5 394 156 412 c 1,41,-1
 165.75 472 l 2,42,43
 170.25 501 170.25 501 175.875 528.5 c 128,-1,44
 181.5 556 181.5 556 186 584 c 2,45,-1
 196.5 645 l 2,46,47
 198.75 660 198.75 660 201 678 c 128,-1,48
 203.25 696 203.25 696 197.25 709 c 0,49,50
 195 713 195 713 190.875 717 c 128,-1,51
 186.75 721 186.75 721 181.875 725 c 128,-1,52
 177 729 177 729 173.25 733 c 128,-1,53
 169.5 737 169.5 737 170.25 742 c 0,54,55
 170.25 744 170.25 744 171 746 c 0,56,57
 171.75 749 171.75 749 173.25 750 c 0,58,59
 179.25 750 179.25 750 196.125 756.5 c 128,-1,60
 213 763 213 763 230.625 771.5 c 128,-1,61
 248.25 780 248.25 780 261.375 788.5 c 128,-1,62
 274.5 797 274.5 797 275.25 801 c 1,63,64
 279 797 279 797 279 797 c 1,65,66
 276.75 783 276.75 783 274.875 769.5 c 128,-1,67
 273 756 273 756 269.25 741 c 2,68,-1
 256.5 666 l 2,69,70
 250.5 631 250.5 631 244.125 597 c 128,-1,71
 237.75 563 237.75 563 231.75 527 c 2,72,-1
 219 453 l 1,73,74
 228.75 459 228.75 459 236.625 464 c 128,-1,75
 244.5 469 244.5 469 252.375 474.5 c 128,-1,76
 260.25 480 260.25 480 270.375 487 c 128,-1,77
 280.5 494 280.5 494 294 503 c 0,78,79
 297.75 505 297.75 505 300.375 488.5 c 128,-1,80
 303 472 303 472 306.75 452 c 0,81,82
 306.75 449 306.75 449 303.375 445 c 128,-1,83
 300 441 300 441 295.125 437 c 128,-1,84
 290.25 433 290.25 433 284.625 430 c 128,-1,85
 279 427 279 427 274.5 424 c 2,86,-1
 205.5 378 l 1,87,-1
 154.5 78 l 2,88,89
 148.5 44 148.5 44 159.375 35.5 c 128,-1,90
 170.25 27 170.25 27 189 24 c 0,91,92
 189.75 22 189.75 22 191.625 22.5 c 128,-1,93
 193.5 23 193.5 23 195 23 c 0,94,95
 206.25 22 206.25 22 204 7 c 0,0,1
EndSplineSet
EndChar

StartChar: Zcaron
Encoding: 30 30 16
Width: 538
Flags: W
LayerCount: 2
Fore
SplineSet
525.75 964 m 0,0,1
 530.25 964 530.25 964 529.5 956 c 0,2,3
 528.75 953 528.75 953 521.25 939 c 128,-1,4
 513.75 925 513.75 925 502.875 905.5 c 128,-1,5
 492 886 492 886 479.625 863.5 c 128,-1,6
 467.25 841 467.25 841 455.25 821.5 c 128,-1,7
 443.25 802 443.25 802 433.875 787.5 c 128,-1,8
 424.5 773 424.5 773 421.5 770 c 1,9,10
 416.25 775 416.25 775 415.5 778 c 0,11,12
 403.5 827 403.5 827 392.25 870.5 c 128,-1,13
 381 914 381 914 377.25 952 c 0,14,15
 377.25 958 377.25 958 377.25 961 c 0,16,17
 378.75 969 378.75 969 384.75 968 c 0,18,19
 387.75 967 387.75 967 394.125 952 c 128,-1,20
 400.5 937 400.5 937 407.625 917.5 c 128,-1,21
 414.75 898 414.75 898 421.875 880 c 128,-1,22
 429 862 429 862 436.5 855 c 1,23,24
 445.5 862 445.5 862 458.25 880 c 128,-1,25
 471 898 471 898 483.75 916.5 c 128,-1,26
 496.5 935 496.5 935 507.75 949.5 c 128,-1,27
 519 964 519 964 525.75 964 c 0,0,1
193.5 750 m 0,28,29
 201 750 201 750 204.75 749 c 128,-1,30
 208.5 748 208.5 748 211.125 746 c 128,-1,31
 213.75 744 213.75 744 217.125 742 c 128,-1,32
 220.5 740 220.5 740 228 739 c 1,33,34
 233.25 733 233.25 733 246 731 c 128,-1,35
 258.75 729 258.75 729 270 729 c 2,36,-1
 283.5 729 l 2,37,38
 315.75 729 315.75 729 355.125 730 c 128,-1,39
 394.5 731 394.5 731 435.75 731.5 c 128,-1,40
 477 732 477 732 516.75 733 c 128,-1,41
 556.5 734 556.5 734 588.75 734 c 0,42,43
 595.5 734 595.5 734 606.75 736.5 c 128,-1,44
 618 739 618 739 627.375 740 c 128,-1,45
 636.75 741 636.75 741 642 737 c 128,-1,46
 647.25 733 647.25 733 642.75 721 c 0,47,48
 642.75 720 642.75 720 627 699 c 128,-1,49
 611.25 678 611.25 678 585 644 c 128,-1,50
 558.75 610 558.75 610 525 566.5 c 128,-1,51
 491.25 523 491.25 523 456 477 c 128,-1,52
 420.75 431 420.75 431 385.5 385.5 c 128,-1,53
 350.25 340 350.25 340 321 301.5 c 128,-1,54
 291.75 263 291.75 263 271.125 236 c 128,-1,55
 250.5 209 250.5 209 243.75 200 c 0,56,57
 236.25 189 236.25 189 220.5 168.5 c 128,-1,58
 204.75 148 204.75 148 188.625 126 c 128,-1,59
 172.5 104 172.5 104 159.75 84.5 c 128,-1,60
 147 65 147 65 142.5 52 c 0,61,62
 141 44 141 44 145.5 40 c 128,-1,63
 150 36 150 36 156 35 c 128,-1,64
 162 34 162 34 169.5 34.5 c 128,-1,65
 177 35 177 35 182.25 35 c 0,66,67
 214.5 35 214.5 35 252 35.5 c 128,-1,68
 289.5 36 289.5 36 321.75 36 c 0,69,70
 347.25 36 347.25 36 376.5 37.5 c 128,-1,71
 405.75 39 405.75 39 432.75 49 c 0,72,73
 453 59 453 59 465.375 77 c 128,-1,74
 477.75 95 477.75 95 491.25 119 c 0,75,76
 497.25 130 497.25 130 502.875 144 c 128,-1,77
 508.5 158 508.5 158 514.125 168 c 128,-1,78
 519.75 178 519.75 178 525.75 180.5 c 128,-1,79
 531.75 183 531.75 183 538.5 173 c 1,80,81
 537.75 156 537.75 156 534.75 140 c 0,82,83
 531.75 123 531.75 123 525.375 105 c 128,-1,84
 519 87 519 87 513.75 70 c 0,85,86
 510 58 510 58 506.625 44 c 128,-1,87
 503.25 30 503.25 30 498.375 18 c 128,-1,88
 493.5 6 493.5 6 486.375 -1 c 128,-1,89
 479.25 -8 479.25 -8 468.75 -8 c 0,90,91
 441.75 -8 441.75 -8 414.75 -6 c 128,-1,92
 387.75 -4 387.75 -4 360 -4 c 2,93,-1
 297.75 -4 l 2,94,95
 232.5 -4 232.5 -4 162 -7.5 c 128,-1,96
 91.5 -11 91.5 -11 26.25 -11 c 0,97,98
 15 -11 15 -11 18 4 c 0,99,100
 18 6 18 6 33.375 27 c 128,-1,101
 48.75 48 48.75 48 73.5 82.5 c 128,-1,102
 98.25 117 98.25 117 130.875 160.5 c 128,-1,103
 163.5 204 163.5 204 197.625 250 c 128,-1,104
 231.75 296 231.75 296 265.875 341.5 c 128,-1,105
 300 387 300 387 328.125 424.5 c 128,-1,106
 356.25 462 356.25 462 376.5 489 c 128,-1,107
 396.75 516 396.75 516 403.5 525 c 256,108,109
 410.25 534 410.25 534 427.5 556 c 128,-1,110
 444.75 578 444.75 578 463.125 601 c 128,-1,111
 481.5 624 481.5 624 496.875 644.5 c 128,-1,112
 512.25 665 512.25 665 516 672 c 0,113,114
 517.5 674 517.5 674 520.5 679.5 c 128,-1,115
 523.5 685 523.5 685 525 688 c 0,116,117
 526.5 692 526.5 692 521.25 693.5 c 128,-1,118
 516 695 516 695 508.5 695 c 0,119,120
 501.75 695 501.75 695 494.25 694.5 c 128,-1,121
 486.75 694 486.75 694 484.5 694 c 2,122,-1
 435 694 l 2,123,124
 414 694 414 694 391.875 693.5 c 128,-1,125
 369.75 693 369.75 693 347.625 692.5 c 128,-1,126
 325.5 692 325.5 692 305.25 691.5 c 128,-1,127
 285 691 285 691 268.5 690 c 0,128,129
 245.25 688 245.25 688 225.375 680 c 128,-1,130
 205.5 672 205.5 672 185.25 646 c 0,131,132
 178.5 638 178.5 638 171 625.5 c 128,-1,133
 163.5 613 163.5 613 157.125 601 c 128,-1,134
 150.75 589 150.75 589 144 580 c 128,-1,135
 137.25 571 137.25 571 132.75 571 c 0,136,137
 129 571 129 571 123 574 c 128,-1,138
 117 577 117 577 120 585 c 0,139,140
 129 612 129 612 139.5 638.5 c 128,-1,141
 150 665 150 665 159.75 691 c 0,142,143
 169.5 714 169.5 714 176.625 732 c 128,-1,144
 183.75 750 183.75 750 193.5 750 c 0,28,29
EndSplineSet
EndChar

StartChar: zcaron
Encoding: 31 31 17
Width: 330
Flags: W
LayerCount: 2
Fore
SplineSet
360 706 m 0,0,1
 364.5 706 364.5 706 363 698 c 0,2,3
 362.25 695 362.25 695 355.5 681 c 128,-1,4
 348.75 667 348.75 667 337.875 647.5 c 128,-1,5
 327 628 327 628 313.875 605.5 c 128,-1,6
 300.75 583 300.75 583 289.5 563.5 c 128,-1,7
 278.25 544 278.25 544 268.875 529.5 c 128,-1,8
 259.5 515 259.5 515 255.75 512 c 1,9,10
 250.5 517 250.5 517 250.5 520 c 0,11,12
 238.5 569 238.5 569 226.875 612.5 c 128,-1,13
 215.25 656 215.25 656 212.25 694 c 0,14,15
 212.25 700 212.25 700 212.25 702 c 0,16,17
 213.75 710 213.75 710 219.75 710 c 0,18,19
 222.75 709 222.75 709 228.75 694 c 128,-1,20
 234.75 679 234.75 679 241.875 659.5 c 128,-1,21
 249 640 249 640 256.5 622 c 128,-1,22
 264 604 264 604 270.75 597 c 1,23,24
 279.75 604 279.75 604 292.875 622 c 128,-1,25
 306 640 306 640 318 658.5 c 128,-1,26
 330 677 330 677 341.625 691.5 c 128,-1,27
 353.25 706 353.25 706 360 706 c 0,0,1
315.75 88 m 2,28,29
 313.5 76 313.5 76 310.875 61.5 c 128,-1,30
 308.25 47 308.25 47 304.5 34.5 c 128,-1,31
 300.75 22 300.75 22 297.75 12 c 128,-1,32
 294.75 2 294.75 2 292.5 0 c 0,33,34
 288.75 -7 288.75 -7 284.625 -3.5 c 128,-1,35
 280.5 0 280.5 0 275.25 0 c 0,36,37
 221.25 0 221.25 0 171.375 -1 c 128,-1,38
 121.5 -2 121.5 -2 67.5 -2 c 2,39,-1
 57.75 -2 l 2,40,41
 52.5 -2 52.5 -2 45.75 -1.5 c 128,-1,42
 39 -1 39 -1 33.75 0 c 128,-1,43
 28.5 1 28.5 1 25.125 3.5 c 128,-1,44
 21.75 6 21.75 6 21.75 9 c 0,45,46
 22.5 14 22.5 14 24.75 17 c 128,-1,47
 27 20 27 20 29.25 25 c 0,48,49
 36.75 37 36.75 37 45.75 48 c 128,-1,50
 54.75 59 54.75 59 63 71 c 0,51,52
 105 129 105 129 145.125 188 c 128,-1,53
 185.25 247 185.25 247 225.75 306 c 0,54,55
 231.75 315 231.75 315 243 331 c 128,-1,56
 254.25 347 254.25 347 265.875 364 c 128,-1,57
 277.5 381 277.5 381 287.25 396.5 c 128,-1,58
 297 412 297 412 300.75 420 c 0,59,60
 302.25 424 302.25 424 296.625 425.5 c 128,-1,61
 291 427 291 427 283.125 427.5 c 128,-1,62
 275.25 428 275.25 428 267 427.5 c 128,-1,63
 258.75 427 258.75 427 255 427 c 2,64,-1
 232.5 427 l 2,65,66
 213.75 427 213.75 427 193.5 426.5 c 128,-1,67
 173.25 426 173.25 426 158.25 421 c 0,68,69
 145.5 418 145.5 418 137.25 408.5 c 128,-1,70
 129 399 129 399 121.875 389 c 128,-1,71
 114.75 379 114.75 379 108.375 371.5 c 128,-1,72
 102 364 102 364 93 364 c 0,73,74
 89.25 364 89.25 364 86.25 365.5 c 128,-1,75
 83.25 367 83.25 367 86.25 374 c 0,76,77
 90 384 90 384 91.5 388 c 128,-1,78
 93 392 93 392 94.5 395 c 128,-1,79
 96 398 96 398 97.875 402.5 c 128,-1,80
 99.75 407 99.75 407 103.5 417 c 0,81,82
 106.5 425 106.5 425 110.25 434 c 128,-1,83
 114 443 114 443 117 452 c 0,84,85
 119.25 458 119.25 458 123.375 463.5 c 128,-1,86
 127.5 469 127.5 469 132.75 469 c 0,87,88
 142.5 469 142.5 469 149.625 464.5 c 128,-1,89
 156.75 460 156.75 460 171.75 460 c 2,90,-1
 283.5 460 l 2,91,92
 296.25 460 296.25 460 309.75 461 c 128,-1,93
 323.25 462 323.25 462 335.25 462 c 2,94,-1
 346.5 462 l 2,95,96
 356.25 462 356.25 462 368.25 460 c 128,-1,97
 380.25 458 380.25 458 383.25 453 c 0,98,99
 385.5 446 385.5 446 381 437 c 0,100,101
 335.25 369 335.25 369 290.625 304.5 c 128,-1,102
 246 240 246 240 199.5 172 c 0,103,104
 179.25 142 179.25 142 154.5 108 c 128,-1,105
 129.75 74 129.75 74 114.75 41 c 0,106,107
 112.5 36 112.5 36 118.5 36 c 2,108,-1
 159 36 l 2,109,110
 174 36 174 36 191.625 36.5 c 128,-1,111
 209.25 37 209.25 37 225.75 39.5 c 128,-1,112
 242.25 42 242.25 42 254.625 45.5 c 128,-1,113
 267 49 267 49 273.75 55 c 256,114,115
 279.75 61 279.75 61 284.25 72 c 128,-1,116
 288.75 83 288.75 83 292.5 93.5 c 128,-1,117
 296.25 104 296.25 104 299.625 114.5 c 128,-1,118
 303 125 303 125 308.25 130 c 1,119,-1
 311.25 130 l 2,120,121
 318.75 131 318.75 131 319.875 126 c 128,-1,122
 321 121 321 121 319.5 112 c 2,123,-1
 315.75 88 l 2,28,29
EndSplineSet
EndChar

StartChar: exclam
Encoding: 33 33 18
Width: 170
Flags: W
LayerCount: 2
Fore
SplineSet
135 46 m 0,0,1
 130.5 17 130.5 17 113.625 1 c 128,-1,2
 96.75 -15 96.75 -15 77.25 -15 c 0,3,4
 60 -15 60 -15 52.125 4.5 c 128,-1,5
 44.25 24 44.25 24 48.75 47 c 0,6,7
 53.25 74 53.25 74 69 93 c 128,-1,8
 84.75 112 84.75 112 103.5 112 c 0,9,10
 120.75 112 120.75 112 130.125 91.5 c 128,-1,11
 139.5 71 139.5 71 135 46 c 0,0,1
167.25 717 m 0,12,13
 169.5 732 169.5 732 172.5 737 c 128,-1,14
 175.5 742 175.5 742 181.125 742.5 c 128,-1,15
 186.75 743 186.75 743 194.625 741 c 128,-1,16
 202.5 739 202.5 739 216 739 c 0,17,18
 226.5 739 226.5 739 235.5 740.5 c 128,-1,19
 244.5 742 244.5 742 250.5 742 c 0,20,21
 258 742 258 742 261 737.5 c 128,-1,22
 264 733 264 733 259.5 717 c 0,23,24
 250.5 679 250.5 679 234 616 c 128,-1,25
 217.5 553 217.5 553 199.5 482.5 c 128,-1,26
 181.5 412 181.5 412 162.375 341.5 c 128,-1,27
 143.25 271 143.25 271 129 220 c 0,28,29
 127.5 215 127.5 215 122.625 216 c 128,-1,30
 117.75 217 117.75 217 115.5 220 c 0,31,32
 121.5 275 121.5 275 127.5 339 c 128,-1,33
 133.5 403 133.5 403 139.5 469 c 128,-1,34
 145.5 535 145.5 535 152.625 599 c 128,-1,35
 159.75 663 159.75 663 167.25 717 c 0,12,13
EndSplineSet
EndChar

StartChar: quotedbl
Encoding: 34 34 19
Width: 210
Flags: W
LayerCount: 2
Fore
SplineSet
282.75 745 m 2,0,1
 287.25 745 287.25 745 292.125 744.5 c 128,-1,2
 297 744 297 744 306 744 c 0,3,4
 312 747 312 747 313.125 739.5 c 128,-1,5
 314.25 732 314.25 732 312 727 c 0,6,7
 309 716 309 716 301.125 686.5 c 128,-1,8
 293.25 657 293.25 657 285.375 625 c 128,-1,9
 277.5 593 277.5 593 269.625 566 c 128,-1,10
 261.75 539 261.75 539 258.75 532 c 0,11,12
 256.5 527 256.5 527 252.75 525 c 128,-1,13
 249 523 249 523 245.25 523.5 c 128,-1,14
 241.5 524 241.5 524 238.125 527.5 c 128,-1,15
 234.75 531 234.75 531 234.75 538 c 0,16,17
 235.5 551 235.5 551 237.375 577.5 c 128,-1,18
 239.25 604 239.25 604 242.25 633 c 128,-1,19
 245.25 662 245.25 662 247.875 688 c 128,-1,20
 250.5 714 250.5 714 252.75 728 c 0,21,22
 253.5 737 253.5 737 256.125 741 c 128,-1,23
 258.75 745 258.75 745 266.25 745 c 2,24,-1
 282.75 745 l 2,0,1
182.25 745 m 2,25,26
 186.75 745 186.75 745 191.25 744.5 c 128,-1,27
 195.75 744 195.75 744 204.75 744 c 0,28,29
 210.75 747 210.75 747 212.25 739.5 c 128,-1,30
 213.75 732 213.75 732 211.5 727 c 0,31,32
 208.5 716 208.5 716 200.625 686.5 c 128,-1,33
 192.75 657 192.75 657 184.875 625 c 128,-1,34
 177 593 177 593 169.125 566 c 128,-1,35
 161.25 539 161.25 539 158.25 532 c 0,36,37
 156 527 156 527 152.25 525 c 128,-1,38
 148.5 523 148.5 523 144.375 523.5 c 128,-1,39
 140.25 524 140.25 524 137.25 527.5 c 128,-1,40
 134.25 531 134.25 531 134.25 538 c 0,41,42
 135 551 135 551 136.875 577.5 c 128,-1,43
 138.75 604 138.75 604 141 633 c 128,-1,44
 143.25 662 143.25 662 146.625 688 c 128,-1,45
 150 714 150 714 152.25 728 c 0,46,47
 153 737 153 737 155.25 741 c 128,-1,48
 157.5 745 157.5 745 165.75 745 c 2,49,-1
 182.25 745 l 2,25,26
EndSplineSet
EndChar

StartChar: numbersign
Encoding: 35 35 20
Width: 363
Flags: W
LayerCount: 2
Fore
SplineSet
283.5 336 m 1,0,1
 268.5 336 268.5 336 250.875 335.5 c 128,-1,2
 233.25 335 233.25 335 214.5 335 c 1,3,4
 204 303 204 303 196.875 280 c 128,-1,5
 189.75 257 189.75 257 183 238 c 1,6,-1
 252 238 l 1,7,8
 259.5 263 259.5 263 267.75 286.5 c 128,-1,9
 276 310 276 310 283.5 336 c 1,0,1
406.5 369 m 1,10,11
 405 361 405 361 403.125 351 c 128,-1,12
 401.25 341 401.25 341 396 335 c 1,13,14
 389.25 336 389.25 336 381 336 c 0,15,16
 374.25 336 374.25 336 364.5 336 c 2,17,-1
 321 336 l 1,18,19
 310.5 303 310.5 303 303 280 c 128,-1,20
 295.5 257 295.5 257 288.75 238 c 1,21,-1
 351 238 l 1,22,23
 357 220 357 220 352.875 204.5 c 128,-1,24
 348.75 189 348.75 189 340.5 172 c 1,25,26
 324 171 324 171 305.625 170.5 c 128,-1,27
 287.25 170 287.25 170 267.75 170 c 1,28,29
 258.75 140 258.75 140 247.875 103 c 128,-1,30
 237 66 237 66 219 2 c 1,31,32
 215.25 2 215.25 2 206.25 1 c 128,-1,33
 197.25 0 197.25 0 180 2 c 1,34,35
 195 54 195 54 207.375 94.5 c 128,-1,36
 219.75 135 219.75 135 231 170 c 1,37,-1
 162 170 l 1,38,39
 153 140 153 140 141.75 103 c 128,-1,40
 130.5 66 130.5 66 113.25 2 c 1,41,42
 109.5 2 109.5 2 100.125 1 c 128,-1,43
 90.75 0 90.75 0 72.75 2 c 1,44,45
 87.75 54 87.75 54 100.875 94.5 c 128,-1,46
 114 135 114 135 124.5 171 c 1,47,48
 105 171 105 171 88.875 171.5 c 128,-1,49
 72.75 172 72.75 172 60 173 c 1,50,51
 61.5 182 61.5 182 61.125 189.5 c 128,-1,52
 60.75 197 60.75 197 62.25 206 c 0,53,54
 63 212 63 212 66.375 221 c 128,-1,55
 69.75 230 69.75 230 71.25 237 c 1,56,57
 84 237 84 237 103.5 237.5 c 128,-1,58
 123 238 123 238 146.25 238 c 1,59,60
 153.75 263 153.75 263 161.25 286 c 128,-1,61
 168.75 309 168.75 309 177 335 c 1,62,-1
 120.75 335 l 1,63,64
 116.25 352 116.25 352 117.375 365 c 128,-1,65
 118.5 378 118.5 378 131.25 400 c 1,66,67
 147.75 400 147.75 400 163.875 399.5 c 128,-1,68
 180 399 180 399 196.5 399 c 1,69,70
 206.25 433 206.25 433 217.875 473.5 c 128,-1,71
 229.5 514 229.5 514 244.5 564 c 1,72,73
 252 567 252 567 264.75 567 c 0,74,75
 270 567 270 567 275.625 566.5 c 128,-1,76
 281.25 566 281.25 566 284.25 565 c 1,77,78
 273.75 522 273.75 522 261.375 481 c 128,-1,79
 249 440 249 440 234.75 399 c 1,80,81
 253.5 399 253.5 399 270 398.5 c 128,-1,82
 286.5 398 286.5 398 302.25 398 c 1,83,84
 312 433 312 433 323.625 472.5 c 128,-1,85
 335.25 512 335.25 512 351 564 c 1,86,87
 358.5 567 358.5 567 371.25 567 c 0,88,89
 376.5 567 376.5 567 381.75 566.5 c 128,-1,90
 387 566 387 566 390.75 565 c 1,91,92
 380.25 522 380.25 522 367.5 481.5 c 128,-1,93
 354.75 441 354.75 441 341.25 398 c 1,94,-1
 410.25 398 l 1,95,96
 410.25 388 410.25 388 408.75 383 c 2,97,-1
 406.5 369 l 1,10,11
EndSplineSet
EndChar

StartChar: dollar
Encoding: 36 36 21
Width: 369
Flags: W
LayerCount: 2
Fore
SplineSet
195 601 m 0,0,1
 186.75 553 186.75 553 203.625 519 c 128,-1,2
 220.5 485 220.5 485 248.25 459 c 1,3,4
 261 536 261 536 272.625 600.5 c 128,-1,5
 284.25 665 284.25 665 294 720 c 1,6,7
 260.25 714 260.25 714 232.125 683.5 c 128,-1,8
 204 653 204 653 195 601 c 0,0,1
304.5 156 m 0,9,10
 313.5 211 313.5 211 296.25 246.5 c 128,-1,11
 279 282 279 282 249.75 310 c 1,12,-1
 198.75 17 l 1,13,14
 236.25 25 236.25 25 265.875 61.5 c 128,-1,15
 295.5 98 295.5 98 304.5 156 c 0,9,10
323.25 819 m 1,16,17
 327 819 327 819 331.125 818.5 c 128,-1,18
 335.25 818 335.25 818 337.5 814 c 1,19,20
 336 808 336 808 333.75 801 c 0,21,22
 333 795 333 795 331.5 787 c 256,23,24
 330 780 330 780 329.25 772 c 0,25,26
 327.75 765 327.75 765 326.25 757 c 1,27,28
 339.75 755 339.75 755 355.125 744.5 c 128,-1,29
 370.5 734 370.5 734 380.25 724 c 0,30,31
 387 718 387 718 391.875 723.5 c 128,-1,32
 396.75 729 396.75 729 402.375 739.5 c 128,-1,33
 408 750 408 750 414.75 759 c 128,-1,34
 421.5 768 421.5 768 432.75 768 c 0,35,36
 438 768 438 768 437.25 758 c 128,-1,37
 436.5 748 436.5 748 434.25 733 c 256,38,39
 432 719 432 719 427.875 703.5 c 128,-1,40
 423.75 688 423.75 688 422.25 677 c 0,41,42
 414 624 414 624 402 570 c 0,43,44
 399 561 399 561 396 558 c 128,-1,45
 393 555 393 555 390 555 c 256,46,47
 387 555 387 555 384.75 556 c 128,-1,48
 382.5 557 382.5 557 380.25 557 c 0,49,50
 375.75 557 375.75 557 374.625 566 c 128,-1,51
 373.5 575 373.5 575 373.5 588 c 128,-1,52
 373.5 601 373.5 601 373.875 615 c 128,-1,53
 374.25 629 374.25 629 372 639 c 0,54,55
 368.25 673 368.25 673 353.625 693.5 c 128,-1,56
 339 714 339 714 319.5 719 c 1,57,-1
 270.75 438 l 1,58,59
 289.5 423 289.5 423 307.5 408 c 128,-1,60
 325.5 393 325.5 393 340.5 378 c 0,61,62
 366 349 366 349 374.625 303 c 128,-1,63
 383.25 257 383.25 257 375 205 c 0,64,65
 357 103 357 103 307.5 46 c 128,-1,66
 258 -11 258 -11 192 -22 c 1,67,68
 189.75 -32 189.75 -32 188.25 -40 c 0,69,70
 186.75 -49 186.75 -49 185.25 -57 c 256,71,72
 183.75 -65 183.75 -65 183 -73 c 0,73,74
 181.5 -81 181.5 -81 179.25 -88 c 1,75,-1
 165 -88 l 2,76,77
 156.75 -88 156.75 -88 154.5 -87 c 0,78,79
 154.5 -81 154.5 -81 156 -74 c 256,80,81
 157.5 -67 157.5 -67 158.25 -58 c 2,82,-1
 164.25 -25 l 1,83,84
 150.75 -25 150.75 -25 139.875 -19.5 c 128,-1,85
 129 -14 129 -14 119.625 -8.5 c 128,-1,86
 110.25 -3 110.25 -3 102.375 2 c 128,-1,87
 94.5 7 94.5 7 87.75 7 c 0,88,89
 79.5 7 79.5 7 74.25 0.5 c 128,-1,90
 69 -6 69 -6 64.125 -15 c 128,-1,91
 59.25 -24 59.25 -24 52.875 -30.5 c 128,-1,92
 46.5 -37 46.5 -37 36 -37 c 0,93,94
 30.75 -37 30.75 -37 31.5 -24 c 128,-1,95
 32.25 -11 32.25 -11 35.25 6 c 256,96,97
 38.25 23 38.25 23 42.375 41.5 c 128,-1,98
 46.5 60 46.5 60 49.5 72 c 0,99,100
 54 99 54 99 57.75 120 c 128,-1,101
 61.5 141 61.5 141 67.5 168 c 0,102,103
 69.75 177 69.75 177 72.75 180 c 128,-1,104
 75.75 183 75.75 183 78.75 183 c 256,105,106
 81.75 183 81.75 183 84 182 c 128,-1,107
 86.25 181 86.25 181 88.5 181 c 0,108,109
 93.75 181 93.75 181 94.875 172.5 c 128,-1,110
 96 164 96 164 96 151 c 128,-1,111
 96 138 96 138 96 124 c 128,-1,112
 96 110 96 110 97.5 99 c 0,113,114
 102 61 102 61 123.375 39.5 c 128,-1,115
 144.75 18 144.75 18 171 15 c 1,116,-1
 225.75 332 l 1,117,118
 204 351 204 351 183.375 371 c 128,-1,119
 162.75 391 162.75 391 147.75 416 c 128,-1,120
 132.75 441 132.75 441 126.375 474 c 128,-1,121
 120 507 120 507 127.5 552 c 256,122,123
 135 597 135 597 151.875 633.5 c 128,-1,124
 168.75 670 168.75 670 192 696 c 128,-1,125
 215.25 722 215.25 722 242.625 737.5 c 128,-1,126
 270 753 270 753 300 757 c 1,127,-1
 311.25 817 l 1,128,129
 315.75 819 315.75 819 317.25 819 c 2,130,-1
 323.25 819 l 1,16,17
EndSplineSet
EndChar

StartChar: percent
Encoding: 37 37 22
Width: 555
Flags: W
LayerCount: 2
Fore
SplineSet
497.25 148 m 0,0,1
 505.5 198 505.5 198 492 228 c 128,-1,2
 478.5 258 478.5 258 450.75 258 c 0,3,4
 428.25 258 428.25 258 405 230 c 128,-1,5
 381.75 202 381.75 202 372.75 156 c 0,6,7
 362.25 104 362.25 104 376.125 77.5 c 128,-1,8
 390 51 390 51 417 51 c 0,9,10
 441 51 441 51 464.625 75.5 c 128,-1,11
 488.25 100 488.25 100 497.25 148 c 0,0,1
306.75 563 m 0,12,13
 315 613 315 613 301.5 643 c 128,-1,14
 288 673 288 673 261 673 c 0,15,16
 238.5 673 238.5 673 214.875 644.5 c 128,-1,17
 191.25 616 191.25 616 182.25 570 c 0,18,19
 171.75 518 171.75 518 185.625 492 c 128,-1,20
 199.5 466 199.5 466 226.5 466 c 0,21,22
 250.5 466 250.5 466 274.125 490.5 c 128,-1,23
 297.75 515 297.75 515 306.75 563 c 0,12,13
581.25 662 m 1,24,25
 553.5 619 553.5 619 525 578.5 c 128,-1,26
 496.5 538 496.5 538 466.5 497 c 0,27,28
 378 374 378 374 290.625 254 c 128,-1,29
 203.25 134 203.25 134 118.5 7 c 1,30,31
 115.5 9 115.5 9 107.625 18.5 c 128,-1,32
 99.75 28 99.75 28 84.75 36 c 1,33,34
 200.25 202 200.25 202 316.5 361.5 c 128,-1,35
 432.75 521 432.75 521 547.5 690 c 1,36,37
 555 690 555 690 564.75 679 c 128,-1,38
 574.5 668 574.5 668 581.25 662 c 1,24,25
548.25 159 m 0,39,40
 542.25 124 542.25 124 528.75 93 c 128,-1,41
 515.25 62 515.25 62 496.125 39 c 128,-1,42
 477 16 477 16 453.75 2.5 c 128,-1,43
 430.5 -11 430.5 -11 406.5 -11 c 0,44,45
 381 -11 381 -11 361.5 0 c 128,-1,46
 342 11 342 11 330.75 32.5 c 128,-1,47
 319.5 54 319.5 54 316.5 84 c 128,-1,48
 313.5 114 313.5 114 319.5 151 c 0,49,50
 325.5 186 325.5 186 339 216.5 c 128,-1,51
 352.5 247 352.5 247 371.625 270 c 128,-1,52
 390.75 293 390.75 293 414 306 c 128,-1,53
 437.25 319 437.25 319 461.25 319 c 0,54,55
 484.5 319 484.5 319 502.875 307 c 128,-1,56
 521.25 295 521.25 295 533.625 273.5 c 128,-1,57
 546 252 546 252 550.125 222.5 c 128,-1,58
 554.25 193 554.25 193 548.25 159 c 0,39,40
357.75 573 m 0,59,60
 351.75 538 351.75 538 338.25 507.5 c 128,-1,61
 324.75 477 324.75 477 305.625 454 c 128,-1,62
 286.5 431 286.5 431 263.625 417 c 128,-1,63
 240.75 403 240.75 403 216 403 c 0,64,65
 190.5 403 190.5 403 171 414.5 c 128,-1,66
 151.5 426 151.5 426 140.25 447.5 c 128,-1,67
 129 469 129 469 126 498.5 c 128,-1,68
 123 528 123 528 129 565 c 0,69,70
 135 600 135 600 148.5 631 c 128,-1,71
 162 662 162 662 181.125 685 c 128,-1,72
 200.25 708 200.25 708 223.5 721 c 128,-1,73
 246.75 734 246.75 734 270.75 734 c 0,74,75
 294 734 294 734 312.75 722 c 128,-1,76
 331.5 710 331.5 710 343.5 688.5 c 128,-1,77
 355.5 667 355.5 667 359.625 637 c 128,-1,78
 363.75 607 363.75 607 357.75 573 c 0,59,60
EndSplineSet
EndChar

StartChar: ampersand
Encoding: 38 38 23
Width: 563
Flags: W
LayerCount: 2
Fore
SplineSet
373.5 548 m 0,0,1
 380.25 587 380.25 587 369.75 613 c 128,-1,2
 359.25 639 359.25 639 330.75 639 c 0,3,4
 305.25 639 305.25 639 285.75 615.5 c 128,-1,5
 266.25 592 266.25 592 260.25 556 c 0,6,7
 256.5 534 256.5 534 259.5 515 c 0,8,9
 260.25 505 260.25 505 264.75 492 c 128,-1,10
 269.25 479 269.25 479 276 467 c 128,-1,11
 282.75 455 282.75 455 289.875 444.5 c 128,-1,12
 297 434 297 434 302.25 429 c 1,13,14
 306 431 306 431 309.375 433.5 c 128,-1,15
 312.75 436 312.75 436 315.75 438 c 0,16,17
 337.5 456 337.5 456 352.875 485.5 c 128,-1,18
 368.25 515 368.25 515 373.5 548 c 0,0,1
250.5 365 m 1,19,20
 210.75 345 210.75 345 179.25 300.5 c 128,-1,21
 147.75 256 147.75 256 137.25 198 c 0,22,23
 132 165 132 165 135.75 137.5 c 128,-1,24
 139.5 110 139.5 110 150.75 89.5 c 128,-1,25
 162 69 162 69 179.625 57 c 128,-1,26
 197.25 45 197.25 45 220.5 45 c 0,27,28
 255 45 255 45 282.75 65.5 c 128,-1,29
 310.5 86 310.5 86 339.75 120 c 0,30,31
 345.75 127 345.75 127 351 135.5 c 128,-1,32
 356.25 144 356.25 144 361.5 153 c 1,33,34
 360 168 360 168 354.375 180.5 c 128,-1,35
 348.75 193 348.75 193 343.5 207 c 0,36,37
 325.5 253 325.5 253 302.25 292.5 c 128,-1,38
 279 332 279 332 250.5 365 c 1,19,20
330.75 667 m 0,39,40
 353.25 667 353.25 667 372 660.5 c 128,-1,41
 390.75 654 390.75 654 403.5 640.5 c 128,-1,42
 416.25 627 416.25 627 421.125 604.5 c 128,-1,43
 426 582 426 582 420.75 549 c 0,44,45
 416.25 524 416.25 524 405 503.5 c 128,-1,46
 393.75 483 393.75 483 378.75 466.5 c 128,-1,47
 363.75 450 363.75 450 346.875 436.5 c 128,-1,48
 330 423 330 423 315 414 c 1,49,50
 320.25 406 320.25 406 325.5 399 c 128,-1,51
 330.75 392 330.75 392 337.5 384 c 0,52,53
 348 369 348 369 358.5 349.5 c 128,-1,54
 369 330 369 330 378 309 c 128,-1,55
 387 288 387 288 396.75 267 c 128,-1,56
 406.5 246 406.5 246 414 227 c 1,57,58
 417 229 417 229 419.625 233 c 128,-1,59
 422.25 237 422.25 237 423.75 240 c 0,60,61
 432.75 253 432.75 253 444 267.5 c 128,-1,62
 455.25 282 455.25 282 464.625 296 c 128,-1,63
 474 310 474 310 481.125 325.5 c 128,-1,64
 488.25 341 488.25 341 491.25 357 c 0,65,66
 494.25 376 494.25 376 492 383 c 128,-1,67
 489.75 390 489.75 390 486.375 392 c 128,-1,68
 483 394 483 394 480 396.5 c 128,-1,69
 477 399 477 399 479.25 412 c 0,70,71
 480 416 480 416 485.625 418 c 128,-1,72
 491.25 420 491.25 420 497.25 420 c 2,73,-1
 543 420 l 2,74,75
 558 420 558 420 574.5 422 c 128,-1,76
 591 424 591 424 607.5 424 c 0,77,78
 612 424 612 424 614.625 420.5 c 128,-1,79
 617.25 417 617.25 417 616.5 410 c 256,80,81
 615 403 615 403 610.875 399 c 128,-1,82
 606.75 395 606.75 395 601.875 393 c 128,-1,83
 597 391 597 391 591 390.5 c 128,-1,84
 585 390 585 390 580.5 390 c 0,85,86
 570.75 390 570.75 390 557.25 377 c 128,-1,87
 543.75 364 543.75 364 529.875 346.5 c 128,-1,88
 516 329 516 329 504.75 312 c 128,-1,89
 493.5 295 493.5 295 487.5 287 c 0,90,91
 471 264 471 264 454.5 239.5 c 128,-1,92
 438 215 438 215 421.5 194 c 1,93,94
 429.75 166 429.75 166 440.25 140 c 128,-1,95
 450.75 114 450.75 114 463.5 93.5 c 128,-1,96
 476.25 73 476.25 73 492 59 c 128,-1,97
 507.75 45 507.75 45 528.75 42 c 0,98,99
 533.25 39 533.25 39 538.875 36.5 c 128,-1,100
 544.5 34 544.5 34 547.5 30 c 128,-1,101
 550.5 26 550.5 26 549.75 19 c 128,-1,102
 549 12 549 12 542.25 1 c 0,103,104
 537.75 -1 537.75 -1 530.25 -2.5 c 128,-1,105
 522.75 -4 522.75 -4 515.625 -4.5 c 128,-1,106
 508.5 -5 508.5 -5 501 -5.5 c 128,-1,107
 493.5 -6 493.5 -6 488.25 -6 c 0,108,109
 453.75 -6 453.75 -6 434.625 9 c 128,-1,110
 415.5 24 415.5 24 403.875 44.5 c 128,-1,111
 392.25 65 392.25 65 385.125 87 c 128,-1,112
 378 109 378 109 369 123 c 0,113,114
 368.25 122 368.25 122 367.5 121 c 128,-1,115
 366.75 120 366.75 120 366 119 c 0,116,117
 355.5 102 355.5 102 339.75 82.5 c 128,-1,118
 324 63 324 63 306.75 45.5 c 128,-1,119
 289.5 28 289.5 28 271.875 13 c 128,-1,120
 254.25 -2 254.25 -2 240.75 -9 c 0,121,122
 210 -25 210 -25 174 -26 c 0,123,124
 150.75 -26 150.75 -26 133.5 -18 c 0,125,126
 113.25 -11 113.25 -11 98.625 5.5 c 128,-1,127
 84 22 84 22 75.75 45 c 128,-1,128
 67.5 68 67.5 68 65.625 96.5 c 128,-1,129
 63.75 125 63.75 125 69 157 c 2,130,-1
 72 176 l 2,131,132
 81 229 81 229 109.875 270.5 c 128,-1,133
 138.75 312 138.75 312 173.25 340 c 0,134,135
 186.75 351 186.75 351 205.125 362 c 128,-1,136
 223.5 373 223.5 373 235.5 387 c 0,137,138
 234.75 390 234.75 390 229.5 397 c 0,139,140
 216.75 419 216.75 419 207.75 452 c 128,-1,141
 198.75 485 198.75 485 204.75 519 c 0,142,143
 210 550 210 550 222.375 576.5 c 128,-1,144
 234.75 603 234.75 603 251.25 623 c 128,-1,145
 267.75 643 267.75 643 288.375 655 c 128,-1,146
 309 667 309 667 330.75 667 c 0,39,40
EndSplineSet
EndChar

StartChar: quotesingle
Encoding: 39 39 24
Width: 109
Flags: W
LayerCount: 2
Fore
SplineSet
182.25 745 m 2,0,1
 186.75 745 186.75 745 191.25 744.5 c 128,-1,2
 195.75 744 195.75 744 204.75 744 c 0,3,4
 210.75 747 210.75 747 212.25 739.5 c 128,-1,5
 213.75 732 213.75 732 211.5 727 c 0,6,7
 208.5 716 208.5 716 200.625 686.5 c 128,-1,8
 192.75 657 192.75 657 184.875 625 c 128,-1,9
 177 593 177 593 169.125 566 c 128,-1,10
 161.25 539 161.25 539 158.25 532 c 0,11,12
 156 527 156 527 152.25 525 c 128,-1,13
 148.5 523 148.5 523 144.375 523.5 c 128,-1,14
 140.25 524 140.25 524 137.25 527.5 c 128,-1,15
 134.25 531 134.25 531 134.25 538 c 0,16,17
 135 551 135 551 136.875 577.5 c 128,-1,18
 138.75 604 138.75 604 141 633 c 128,-1,19
 143.25 662 143.25 662 146.625 688 c 128,-1,20
 150 714 150 714 152.25 728 c 0,21,22
 153 737 153 737 155.25 741 c 128,-1,23
 157.5 745 157.5 745 165.75 745 c 2,24,-1
 182.25 745 l 2,0,1
EndSplineSet
EndChar

StartChar: parenleft
Encoding: 40 40 25
Width: 249
Flags: W
LayerCount: 2
Fore
SplineSet
352.5 734 m 0,0,1
 351 728 351 728 345.75 722 c 0,2,3
 313.5 685 313.5 685 290.25 650 c 0,4,5
 234.75 566 234.75 566 196.875 469 c 128,-1,6
 159 372 159 372 141 269 c 0,7,8
 135 232 135 232 130.875 192 c 128,-1,9
 126.75 152 126.75 152 126 111.5 c 128,-1,10
 125.25 71 125.25 71 127.875 33 c 128,-1,11
 130.5 -5 130.5 -5 137.25 -37 c 0,12,13
 145.5 -78 145.5 -78 154.875 -120 c 128,-1,14
 164.25 -162 164.25 -162 185.25 -193 c 0,15,16
 188.25 -202 188.25 -202 184.5 -212.5 c 128,-1,17
 180.75 -223 180.75 -223 172.5 -223 c 0,18,19
 166.5 -223 166.5 -223 158.625 -211 c 128,-1,20
 150.75 -199 150.75 -199 147.75 -193 c 0,21,22
 99 -98 99 -98 80.625 13 c 128,-1,23
 62.25 124 62.25 124 85.5 259 c 0,24,25
 95.25 317 95.25 317 114 376.5 c 128,-1,26
 132.75 436 132.75 436 159 493 c 128,-1,27
 185.25 550 185.25 550 217.125 601 c 128,-1,28
 249 652 249 652 284.25 694 c 0,29,30
 288 699 288 699 296.25 708.5 c 128,-1,31
 304.5 718 304.5 718 313.5 727 c 128,-1,32
 322.5 736 322.5 736 330.75 743.5 c 128,-1,33
 339 751 339 751 343.5 752 c 0,34,35
 350.25 745 350.25 745 352.5 734 c 0,0,1
EndSplineSet
EndChar

StartChar: parenright
Encoding: 41 41 26
Width: 249
Flags: W
LayerCount: 2
Fore
SplineSet
253.5 269 m 0,0,1
 238.5 180 238.5 180 204 93.5 c 128,-1,2
 169.5 7 169.5 7 125.25 -67 c 0,3,4
 113.25 -87 113.25 -87 98.25 -109 c 128,-1,5
 83.25 -131 83.25 -131 66.375 -152.5 c 128,-1,6
 49.5 -174 49.5 -174 31.875 -192.5 c 128,-1,7
 14.25 -211 14.25 -211 -2.25 -223 c 1,8,9
 -14.25 -218 -14.25 -218 -13.5 -202 c 1,10,11
 17.25 -162 17.25 -162 46.5 -120 c 128,-1,12
 75.75 -78 75.75 -78 100.5 -31 c 0,13,14
 136.5 37 136.5 37 160.5 111 c 128,-1,15
 184.5 185 184.5 185 198 262 c 0,16,17
 206.25 311 206.25 311 210.75 363 c 128,-1,18
 215.25 415 215.25 415 214.125 465 c 128,-1,19
 213 515 213 515 206.25 562 c 128,-1,20
 199.5 609 199.5 609 186 649 c 256,21,22
 173.25 689 173.25 689 164.625 705 c 128,-1,23
 156 721 156 721 152.25 732 c 0,24,25
 151.5 736 151.5 736 157.5 745 c 128,-1,26
 163.5 754 163.5 754 167.25 754 c 0,27,28
 169.5 754 169.5 754 173.25 750 c 128,-1,29
 177 746 177 746 180.375 741 c 128,-1,30
 183.75 736 183.75 736 186.75 731.5 c 128,-1,31
 189.75 727 189.75 727 191.25 724 c 0,32,33
 240.75 631 240.75 631 258.75 517 c 128,-1,34
 276.75 403 276.75 403 253.5 269 c 0,0,1
EndSplineSet
EndChar

StartChar: asterisk
Encoding: 42 42 27
Width: 369
Flags: W
LayerCount: 2
Fore
SplineSet
450 581 m 0,0,1
 451.5 571 451.5 571 448.5 567 c 128,-1,2
 445.5 563 445.5 563 439.5 560 c 0,3,4
 429.75 555 429.75 555 410.25 548 c 128,-1,5
 390.75 541 390.75 541 370.125 533 c 128,-1,6
 349.5 525 349.5 525 330.375 518.5 c 128,-1,7
 311.25 512 311.25 512 300.75 509 c 0,8,9
 291.75 505 291.75 505 291 513.5 c 128,-1,10
 290.25 522 290.25 522 295.5 529 c 0,11,12
 299.25 534 299.25 534 318.75 548 c 128,-1,13
 338.25 562 338.25 562 360.75 578 c 128,-1,14
 383.25 594 383.25 594 403.875 608.5 c 128,-1,15
 424.5 623 424.5 623 431.25 629 c 0,16,17
 435 631 435 631 440.25 630.5 c 128,-1,18
 445.5 630 445.5 630 444 621 c 0,19,20
 445.5 611 445.5 611 446.25 605.5 c 128,-1,21
 447 600 447 600 447.75 597 c 128,-1,22
 448.5 594 448.5 594 448.875 591 c 128,-1,23
 449.25 588 449.25 588 450 581 c 0,0,1
311.25 748 m 2,24,25
 313.5 748 313.5 748 316.875 747 c 128,-1,26
 320.25 746 320.25 746 327.75 746 c 0,27,28
 334.5 748 334.5 748 335.625 741 c 128,-1,29
 336.75 734 336.75 734 333.75 729 c 0,30,31
 330.75 718 330.75 718 324 688.5 c 128,-1,32
 317.25 659 317.25 659 309.375 627.5 c 128,-1,33
 301.5 596 301.5 596 294.75 569 c 128,-1,34
 288 542 288 542 284.25 536 c 0,35,36
 279.75 526 279.75 526 273.75 525 c 0,37,38
 268.5 525 268.5 525 268.5 540 c 0,39,40
 268.5 553 268.5 553 270 579 c 128,-1,41
 271.5 605 271.5 605 274.125 634 c 128,-1,42
 276.75 663 276.75 663 279 689.5 c 128,-1,43
 281.25 716 281.25 716 283.5 730 c 0,44,45
 285.75 738 285.75 738 288 743 c 128,-1,46
 290.25 748 290.25 748 297.75 748 c 2,47,-1
 311.25 748 l 2,24,25
123 332 m 0,48,49
 118.5 340 118.5 340 119.25 343 c 0,50,51
 120 348 120 348 126 355 c 0,52,53
 134.25 365 134.25 365 151.125 383.5 c 128,-1,54
 168 402 168 402 186 421 c 128,-1,55
 204 440 204 440 221.25 457 c 128,-1,56
 238.5 474 238.5 474 248.25 482 c 0,57,58
 256.5 491 256.5 491 260.625 485.5 c 128,-1,59
 264.75 480 264.75 480 260.25 469 c 0,60,61
 258 463 258 463 243.375 440.5 c 128,-1,62
 228.75 418 228.75 418 211.5 391.5 c 128,-1,63
 194.25 365 194.25 365 178.125 340.5 c 128,-1,64
 162 316 162 316 156.75 307 c 0,65,66
 154.5 302 154.5 302 148.5 299 c 128,-1,67
 142.5 296 142.5 296 140.25 304 c 0,68,69
 135 311 135 311 133.125 314 c 128,-1,70
 131.25 317 131.25 317 130.125 319.5 c 128,-1,71
 129 322 129 322 127.5 324.5 c 128,-1,72
 126 327 126 327 123 332 c 0,48,49
330.75 300 m 0,73,74
 320.25 290 320.25 290 313.5 304 c 0,75,76
 310.5 315 310.5 315 305.25 338 c 128,-1,77
 300 361 300 361 294 386.5 c 128,-1,78
 288 412 288 412 283.125 435 c 128,-1,79
 278.25 458 278.25 458 276 470 c 0,80,81
 273.75 481 273.75 481 279.375 487.5 c 128,-1,82
 285 494 285 494 290.25 487 c 0,83,84
 294 485 294 485 304.875 465.5 c 128,-1,85
 315.75 446 315.75 446 327.375 422.5 c 128,-1,86
 339 399 339 399 349.125 377.5 c 128,-1,87
 359.25 356 359.25 356 363 350 c 0,88,89
 366 346 366 346 365.625 339 c 128,-1,90
 365.25 332 365.25 332 359.25 329 c 0,91,92
 351.75 321 351.75 321 348 316.5 c 128,-1,93
 344.25 312 344.25 312 342.375 310 c 128,-1,94
 340.5 308 340.5 308 338.25 306 c 128,-1,95
 336 304 336 304 330.75 300 c 0,73,74
120.75 580 m 0,96,97
 123.75 587 123.75 587 125.625 590 c 128,-1,98
 127.5 593 127.5 593 128.625 596 c 128,-1,99
 129.75 599 129.75 599 132 603.5 c 128,-1,100
 134.25 608 134.25 608 139.5 620 c 0,101,102
 141.75 630 141.75 630 147.75 630 c 0,103,104
 153 630 153 630 156 625 c 0,105,106
 161.25 619 161.25 619 176.625 605 c 128,-1,107
 192 591 192 591 208.875 575 c 128,-1,108
 225.75 559 225.75 559 239.625 545 c 128,-1,109
 253.5 531 253.5 531 255.75 526 c 0,110,111
 259.5 518 259.5 518 255 509.5 c 128,-1,112
 250.5 501 250.5 501 242.25 504 c 0,113,114
 234.75 507 234.75 507 217.5 513.5 c 128,-1,115
 200.25 520 200.25 520 181.875 528.5 c 128,-1,116
 163.5 537 163.5 537 146.625 544.5 c 128,-1,117
 129.75 552 129.75 552 123 558 c 0,118,119
 117.75 561 117.75 561 116.625 565.5 c 128,-1,120
 115.5 570 115.5 570 120.75 580 c 0,96,97
EndSplineSet
EndChar

StartChar: plus
Encoding: 43 43 28
Width: 340
Flags: W
LayerCount: 2
Fore
SplineSet
178.5 48 m 1,0,1
 173.25 48 173.25 48 166.5 48.5 c 128,-1,2
 159.75 49 159.75 49 156 54 c 1,3,4
 162 81 162 81 168.375 120 c 128,-1,5
 174.75 159 174.75 159 186 222 c 1,6,-1
 72 222 l 1,7,8
 67.5 239 67.5 239 69 252 c 128,-1,9
 70.5 265 70.5 265 84 288 c 1,10,11
 98.25 287 98.25 287 113.25 287 c 256,12,13
 127.5 287 127.5 287 141 287 c 2,14,-1
 196.5 287 l 1,15,-1
 224.25 450 l 1,16,17
 237.75 461 237.75 461 247.125 462 c 128,-1,18
 256.5 463 256.5 463 270 450 c 1,19,20
 265.5 428 265.5 428 261.75 407 c 0,21,22
 258 387 258 387 255 366 c 2,23,-1
 241.5 286 l 1,24,-1
 361.5 286 l 1,25,26
 361.5 276 361.5 276 360 270 c 2,27,-1
 357.75 256 l 2,28,29
 356.25 248 356.25 248 354.375 238 c 128,-1,30
 352.5 228 352.5 228 348 222 c 1,31,32
 329.25 224 329.25 224 301.875 223.5 c 128,-1,33
 274.5 223 274.5 223 229.5 223 c 1,34,-1
 199.5 50 l 1,35,36
 192 48 192 48 188.25 48 c 2,37,-1
 178.5 48 l 1,0,1
EndSplineSet
EndChar

StartChar: comma
Encoding: 44 44 29
Width: 181
Flags: W
LayerCount: 2
Fore
SplineSet
149.25 -9 m 0,0,1
 143.25 -45 143.25 -45 126.375 -77 c 128,-1,2
 109.5 -109 109.5 -109 87.75 -133 c 0,3,4
 70.5 -152 70.5 -152 49.5 -169 c 128,-1,5
 28.5 -186 28.5 -186 13.5 -189 c 0,6,7
 9.75 -190 9.75 -190 7.125 -184 c 128,-1,8
 4.5 -178 4.5 -178 6 -173 c 0,9,10
 8.25 -166 8.25 -166 21.375 -156 c 128,-1,11
 34.5 -146 34.5 -146 49.5 -131.5 c 128,-1,12
 64.5 -117 64.5 -117 78.375 -97 c 128,-1,13
 92.25 -77 92.25 -77 96.75 -50 c 0,14,15
 99.75 -34 99.75 -34 98.25 -25 c 128,-1,16
 96.75 -16 96.75 -16 92.625 -11.5 c 128,-1,17
 88.5 -7 88.5 -7 81.375 -4 c 128,-1,18
 74.25 -1 74.25 -1 66.75 4 c 0,19,20
 56.25 12 56.25 12 49.125 23 c 128,-1,21
 42 34 42 34 45.75 54 c 0,22,23
 48 69 48 69 54.75 80 c 128,-1,24
 61.5 91 61.5 91 69.75 97.5 c 128,-1,25
 78 104 78 104 87.75 107.5 c 128,-1,26
 97.5 111 97.5 111 106.5 111 c 0,27,28
 121.5 111 121.5 111 131.25 99 c 128,-1,29
 141 87 141 87 146.25 69 c 128,-1,30
 151.5 51 151.5 51 151.875 30 c 128,-1,31
 152.25 9 152.25 9 149.25 -9 c 0,0,1
EndSplineSet
EndChar

StartChar: hyphen
Encoding: 45 45 30
Width: 267
Flags: W
LayerCount: 2
Fore
SplineSet
81 278 m 0,0,1
 81.75 283 81.75 283 92.625 284 c 128,-1,2
 103.5 285 103.5 285 114 285 c 2,3,-1
 126 285 l 2,4,5
 166.5 285 166.5 285 207 284 c 128,-1,6
 247.5 283 247.5 283 288.75 286 c 0,7,8
 293.25 286 293.25 286 289.5 267 c 2,9,-1
 282.75 226 l 2,10,11
 282 221 282 221 274.125 219.5 c 128,-1,12
 266.25 218 266.25 218 258 218 c 2,13,-1
 96 218 l 2,14,15
 87.75 218 87.75 218 79.125 219 c 128,-1,16
 70.5 220 70.5 220 71.25 223 c 0,17,18
 72 230 72 230 74.25 240.5 c 128,-1,19
 76.5 251 76.5 251 81 278 c 0,0,1
EndSplineSet
EndChar

StartChar: period
Encoding: 46 46 31
Width: 176
Flags: W
LayerCount: 2
Fore
SplineSet
132.75 44 m 256,0,1
 128.25 17 128.25 17 113.25 1 c 128,-1,2
 98.25 -15 98.25 -15 79.5 -15 c 256,3,4
 60.75 -15 60.75 -15 51.375 1.5 c 128,-1,5
 42 18 42 18 46.5 46 c 256,6,7
 51 74 51 74 67.875 92 c 128,-1,8
 84.75 110 84.75 110 102.75 110 c 0,9,10
 123 110 123 110 130.125 90.5 c 128,-1,11
 137.25 71 137.25 71 132.75 44 c 256,0,1
EndSplineSet
EndChar

StartChar: slash
Encoding: 47 47 32
Width: 268
Flags: W
LayerCount: 2
Fore
SplineSet
379.5 744 m 1,0,1
 360.75 694 360.75 694 339.75 646.5 c 128,-1,2
 318.75 599 318.75 599 297 550 c 0,3,4
 233.25 404 233.25 404 170.625 261 c 128,-1,5
 108 118 108 118 47.25 -31 c 1,6,7
 43.5 -31 43.5 -31 34.875 -32 c 128,-1,8
 26.25 -33 26.25 -33 8.25 -31 c 1,9,10
 91.5 165 91.5 165 175.125 355.5 c 128,-1,11
 258.75 546 258.75 546 339.75 743 c 1,12,13
 347.25 746 347.25 746 359.25 746 c 0,14,15
 364.5 746 364.5 746 370.5 745.5 c 128,-1,16
 376.5 745 376.5 745 379.5 744 c 1,0,1
EndSplineSet
EndChar

StartChar: zero
Encoding: 48 48 33
Width: 431
Flags: W
LayerCount: 2
Fore
SplineSet
167.25 324.5 m 132,-1,1
 157.5 267 157.5 267 153.75 214 c 132,-1,2
 150 161 150 161 155.625 117.5 c 132,-1,3
 161.25 74 161.25 74 177.75 47 c 4,4,5
 195 19 195 19 226.5 19 c 4,6,7
 252 19 252 19 276 43.5 c 132,-1,8
 300 68 300 68 321 111 c 132,-1,9
 342 154 342 154 358.125 208.5 c 132,-1,10
 374.25 263 374.25 263 384.75 320 c 4,11,12
 395.25 379 395.25 379 399 438 c 4,13,14
 407.25 565 407.25 565 375.75 621 c 4,15,16
 359.25 650 359.25 650 329.25 650 c 6,17,18
 327.75 641 327.75 641 329.25 650 c 6,19,20
 327.75 650 327.75 650 326.25 650 c 4,21,22
 301.5 650 301.5 650 277.875 622.5 c 132,-1,23
 254.25 595 254.25 595 233.25 549.5 c 132,-1,24
 212.25 504 212.25 504 195.75 447 c 4,25,0
 177 382 177 382 167.25 324.5 c 132,-1,1
453.375 602 m 132,-1,27
 469.5 555 469.5 555 472.5 489 c 132,-1,28
 475.5 423 475.5 423 462.375 348 c 132,-1,29
 449.25 273 449.25 273 424.875 205 c 132,-1,30
 400.5 137 400.5 137 368.25 85.5 c 132,-1,31
 336 34 336 34 297 3 c 4,32,33
 257.25 -28 257.25 -28 215.625 -28 c 132,-1,34
 174 -28 174 -28 144 -2 c 4,35,36
 114 24 114 24 98.625 72.5 c 132,-1,37
 83.25 121 83.25 121 81.375 186 c 132,-1,38
 79.5 251 79.5 251 93 329 c 132,-1,39
 106.5 407 106.5 407 131.25 475 c 132,-1,40
 156 543 156 543 188.25 593 c 132,-1,41
 220.5 643 220.5 643 258.75 674 c 4,42,43
 298.5 705 298.5 705 338.625 704.5 c 132,-1,44
 378.75 704 378.75 704 408 677 c 4,45,26
 437.25 649 437.25 649 453.375 602 c 132,-1,27
EndSplineSet
EndChar

StartChar: one
Encoding: 49 49 34
Width: 258
Flags: W
LayerCount: 2
Fore
SplineSet
288.75 698 m 5,0,1
 288.75 683 288.75 683 279 645 c 4,2,3
 275.25 629 275.25 629 273 625 c 4,4,5
 263.25 609 263.25 609 260.25 589 c 4,6,7
 260.25 588 260.25 588 251.25 538 c 4,8,9
 235.5 449 235.5 449 219 361 c 4,10,11
 202.5 272 202.5 272 187.5 183 c 6,12,-1
 183.75 160 l 5,13,-1
 187.5 183 l 5,14,-1
 180.75 144 l 5,15,-1
 183.75 160 l 5,16,17
 180.75 138 180.75 138 178.5 114 c 132,-1,18
 176.25 90 176.25 90 181.5 77 c 4,19,20
 185.25 64 185.25 64 195.75 60 c 4,21,22
 206.25 55 206.25 55 215.625 51 c 132,-1,23
 225 47 225 47 232.125 42 c 132,-1,24
 239.25 37 239.25 37 237 23 c 4,25,26
 233.25 0 233.25 0 222 -2 c 4,27,28
 210.75 -5 210.75 -5 201 -5 c 4,29,30
 180.75 -5 180.75 -5 161.25 0 c 4,31,32
 142.5 5 142.5 5 122.25 5 c 4,33,34
 111.75 5 111.75 5 103.5 3 c 4,35,36
 95.25 2 95.25 2 88.125 -0.5 c 132,-1,37
 81 -3 81 -3 72.75 -5 c 4,38,39
 54 -6 54 -6 54 -6 c 6,40,-1
 44.25 -6 l 6,41,42
 37.5 -6 37.5 -6 31.5 -0.5 c 132,-1,43
 25.5 5 25.5 5 28.5 23 c 4,44,45
 30.75 37 30.75 37 39 43 c 132,-1,46
 47.25 49 47.25 49 57.75 53 c 132,-1,47
 68.25 57 68.25 57 79.5 62 c 4,48,49
 91.5 68 91.5 68 100.5 81 c 4,50,51
 109.5 93 109.5 93 117 126 c 132,-1,52
 124.5 159 124.5 159 129.75 189 c 6,53,-1
 135.75 221 l 5,54,-1
 155.25 334 l 6,55,56
 162.75 375 162.75 375 170.25 414 c 4,57,58
 177.75 454 177.75 454 183.75 492 c 6,59,-1
 189 523 l 6,60,61
 198.75 578 198.75 578 197.25 581 c 4,62,63
 194.25 592 194.25 592 185.25 592 c 4,64,65
 165 594 165 594 165 594 c 4,66,67
 159 594 159 594 152.25 594 c 4,68,69
 144 594 144 594 135.75 601 c 4,70,71
 127.5 607 127.5 607 136.5 642 c 4,72,73
 141 658 141 658 142.5 658 c 4,74,75
 157.5 663 157.5 663 159.75 663 c 4,76,77
 186.75 670 186.75 670 218.25 692 c 4,78,79
 236.25 704 236.25 704 269.25 702 c 4,80,81
 275.25 702 275.25 702 280.5 702 c 5,82,83
 288.75 698 288.75 698 288.75 698 c 5,0,1
EndSplineSet
EndChar

StartChar: two
Encoding: 50 50 35
Width: 356
Flags: W
LayerCount: 2
Fore
SplineSet
106.91796875 541.490234375 m 0,0,1
 107.759765625 547.419921875 107.759765625 547.419921875 111.548828125 559.280273438 c 128,-1,2
 115.336914062 571.139648438 115.336914062 571.139648438 121.650390625 582.258789062 c 128,-1,3
 127.96484375 593.377929688 127.96484375 593.377929688 133.4375 604.49609375 c 128,-1,4
 138.91015625 615.615234375 138.91015625 615.615234375 141.435546875 620.0625 c 0,5,6
 162.482421875 654.16015625 162.482421875 654.16015625 178.056640625 671.208984375 c 128,-1,7
 193.630859375 688.2578125 193.630859375 688.2578125 207.1015625 695.669921875 c 128,-1,8
 220.571289062 703.08203125 220.571289062 703.08203125 232.357421875 704.565429688 c 128,-1,9
 244.14453125 706.047851562 244.14453125 706.047851562 255.9296875 706.047851562 c 0,10,11
 314.01953125 706.047851562 314.01953125 706.047851562 331.698242188 637.111328125 c 128,-1,12
 349.37890625 568.174804688 349.37890625 568.174804688 317.38671875 454.022460938 c 0,13,14
 309.810546875 424.372070312 309.810546875 424.372070312 292.97265625 385.0859375 c 128,-1,15
 276.134765625 345.799804688 276.134765625 345.799804688 255.087890625 304.290039062 c 128,-1,16
 234.041015625 262.780273438 234.041015625 262.780273438 210.889648438 222.752929688 c 128,-1,17
 187.73828125 182.724609375 187.73828125 182.724609375 167.533203125 150.110351562 c 128,-1,18
 147.328125 117.495117188 147.328125 117.495117188 132.173828125 95.2578125 c 128,-1,19
 117.020507812 73.01953125 117.020507812 73.01953125 112.811523438 68.572265625 c 1,20,21
 122.072265625 59.677734375 122.072265625 59.677734375 146.065429688 56.712890625 c 128,-1,22
 170.05859375 53.7470703125 170.05859375 53.7470703125 196.999023438 55.9716796875 c 128,-1,23
 223.938476562 58.1953125 223.938476562 58.1953125 248.353515625 67.08984375 c 128,-1,24
 272.767578125 75.9853515625 272.767578125 75.9853515625 281.186523438 90.8095703125 c 0,25,26
 291.2890625 110.08203125 291.2890625 110.08203125 303.916992188 134.543945312 c 128,-1,27
 316.544921875 159.004882812 316.544921875 159.004882812 327.489257812 181.983398438 c 128,-1,28
 338.43359375 204.962890625 338.43359375 204.962890625 347.2734375 222.752929688 c 128,-1,29
 356.11328125 240.54296875 356.11328125 240.54296875 358.638671875 244.990234375 c 0,30,31
 367.057617188 261.297851562 367.057617188 261.297851562 375.4765625 254.625976562 c 128,-1,32
 383.895507812 247.955078125 383.895507812 247.955078125 385.579101562 234.612304688 c 1,33,34
 357.796875 173.830078125 357.796875 173.830078125 343.485351562 125.6484375 c 128,-1,35
 329.172851562 77.4677734375 329.172851562 77.4677734375 322.859375 45.59375 c 128,-1,36
 316.544921875 13.7197265625 316.544921875 13.7197265625 313.59765625 -2.587890625 c 128,-1,37
 310.651367188 -18.89453125 310.651367188 -18.89453125 303.916992188 -17.412109375 c 0,38,39
 281.186523438 -14.447265625 281.186523438 -14.447265625 249.1953125 -4.8115234375 c 128,-1,40
 217.204101562 4.8251953125 217.204101562 4.8251953125 167.533203125 7.7900390625 c 0,41,42
 146.486328125 7.7900390625 146.486328125 7.7900390625 120.388671875 7.048828125 c 128,-1,43
 94.2900390625 6.3076171875 94.2900390625 6.3076171875 73.2431640625 6.3076171875 c 0,44,45
 69.8759765625 6.3076171875 69.8759765625 6.3076171875 63.140625 -6.2939453125 c 128,-1,46
 56.4052734375 -18.89453125 56.4052734375 -18.89453125 53.0380859375 -15.9296875 c 0,47,48
 45.4609375 -15.9296875 45.4609375 -15.9296875 42.09375 -10 c 128,-1,49
 38.7265625 -4.0703125 38.7265625 -4.0703125 41.251953125 15.2021484375 c 0,50,51
 42.09375 22.615234375 42.09375 22.615234375 47.1455078125 30.02734375 c 0,52,53
 75.76953125 77.4677734375 75.76953125 77.4677734375 105.655273438 132.3203125 c 128,-1,54
 135.541992188 187.172851562 135.541992188 187.172851562 162.060546875 242.025390625 c 128,-1,55
 188.580078125 296.877929688 188.580078125 296.877929688 210.46875 347.282226562 c 128,-1,56
 232.357421875 397.6875 232.357421875 397.6875 246.669921875 439.197265625 c 0,57,58
 274.451171875 522.217773438 274.451171875 522.217773438 263.927734375 571.139648438 c 128,-1,59
 253.404296875 620.0625 253.404296875 620.0625 212.994140625 620.0625 c 0,60,61
 187.73828125 620.0625 187.73828125 620.0625 172.163085938 606.719726562 c 128,-1,62
 156.588867188 593.377929688 156.588867188 593.377929688 146.486328125 576.329101562 c 128,-1,63
 136.383789062 559.280273438 136.383789062 559.280273438 129.6484375 543.713867188 c 128,-1,64
 122.9140625 528.147460938 122.9140625 528.147460938 117.86328125 523.700195312 c 256,65,66
 112.811523438 519.252929688 112.811523438 519.252929688 109.022460938 525.182617188 c 128,-1,67
 105.234375 531.112304688 105.234375 531.112304688 106.91796875 541.490234375 c 0,0,1
EndSplineSet
EndChar

StartChar: three
Encoding: 51 51 36
Width: 288
Flags: W
LayerCount: 2
Fore
SplineSet
135 621 m 4,0,1
 136.5 634 136.5 634 148.125 650.5 c 132,-1,2
 159.75 667 159.75 667 176.625 681.5 c 132,-1,3
 193.5 696 193.5 696 212.625 706 c 132,-1,4
 231.75 716 231.75 716 249 716 c 132,-1,5
 266.25 716 266.25 716 280.875 710 c 132,-1,6
 295.5 704 295.5 704 306 690 c 132,-1,7
 316.5 676 316.5 676 320.625 654.5 c 132,-1,8
 324.75 633 324.75 633 319.5 601 c 4,9,10
 315.75 579 315.75 579 301.125 552.5 c 132,-1,11
 286.5 526 286.5 526 268.125 500.5 c 132,-1,12
 249.75 475 249.75 475 231 454 c 132,-1,13
 212.25 433 212.25 433 200.25 423 c 5,14,15
 232.5 427 232.5 427 255.75 415.5 c 132,-1,16
 279 404 279 404 292.5 380 c 132,-1,17
 306 356 306 356 309.75 322 c 132,-1,18
 313.5 288 313.5 288 306 249 c 4,19,20
 296.25 191 296.25 191 265.5 138 c 132,-1,21
 234.75 85 234.75 85 195.375 45 c 132,-1,22
 156 5 156 5 112.125 -18.5 c 132,-1,23
 68.25 -42 68.25 -42 30.75 -43 c 4,24,25
 26.25 -43 26.25 -43 24.75 -39.5 c 132,-1,26
 23.25 -36 23.25 -36 24.75 -31 c 132,-1,27
 26.25 -26 26.25 -26 28.875 -22.5 c 132,-1,28
 31.5 -19 31.5 -19 33.75 -19 c 4,29,30
 69 -6 69 -6 102.75 15 c 132,-1,31
 136.5 36 136.5 36 164.25 65.5 c 132,-1,32
 192 95 192 95 211.5 132.5 c 132,-1,33
 231 170 231 170 239.25 217 c 4,34,35
 243.75 242 243.75 242 242.625 266.5 c 132,-1,36
 241.5 291 241.5 291 236.25 312 c 132,-1,37
 231 333 231 333 219.375 347.5 c 132,-1,38
 207.75 362 207.75 362 191.25 367 c 4,39,40
 177.75 371 177.75 371 162 373 c 132,-1,41
 146.25 375 146.25 375 129.75 364 c 4,42,43
 124.5 361 124.5 361 114 352 c 132,-1,44
 103.5 343 103.5 343 99.75 343 c 4,45,46
 89.25 343 89.25 343 92.25 361 c 4,47,48
 93.75 370 93.75 370 104.25 376.5 c 132,-1,49
 114.75 383 114.75 383 119.25 386 c 4,50,51
 137.25 398 137.25 398 159.75 418.5 c 132,-1,52
 182.25 439 182.25 439 203.625 464 c 132,-1,53
 225 489 225 489 240.75 517 c 132,-1,54
 256.5 545 256.5 545 261.75 573 c 4,55,56
 270 622 270 622 256.875 645.5 c 132,-1,57
 243.75 669 243.75 669 221.25 669 c 260,58,59
 198 669 198 669 181.5 652.5 c 132,-1,60
 165 636 165 636 143.25 610 c 4,61,62
 139.5 606 139.5 606 137.25 610.5 c 132,-1,63
 135 615 135 615 135 621 c 4,0,1
EndSplineSet
EndChar

StartChar: four
Encoding: 52 52 37
Width: 411
Flags: W
LayerCount: 2
Fore
SplineSet
453 255 m 4,0,1
 449.25 233 449.25 233 433.5 233 c 4,2,3
 425.25 233 425.25 233 416.625 234 c 132,-1,4
 408 235 408 235 399 235 c 6,5,-1
 385.5 235 l 6,6,7
 372.75 235 372.75 235 362.25 235.5 c 132,-1,8
 351.75 236 351.75 236 343.875 234.5 c 132,-1,9
 336 233 336 233 330.75 228 c 132,-1,10
 325.5 223 325.5 223 324 212 c 6,11,-1
 288.75 8 l 6,12,13
 287.25 0 287.25 0 285.375 -8 c 132,-1,14
 283.5 -16 283.5 -16 283.5 -24 c 4,15,16
 279 -40 279 -40 267.75 -47 c 132,-1,17
 256.5 -54 256.5 -54 243.75 -54 c 4,18,19
 234 -54 234 -54 226.875 -49.5 c 132,-1,20
 219.75 -45 219.75 -45 221.25 -39 c 4,21,22
 225.75 -22 225.75 -22 230.625 5.5 c 132,-1,23
 235.5 33 235.5 33 240.75 62 c 6,24,-1
 257.25 155 l 6,25,26
 258.75 162 258.75 162 260.25 171.5 c 132,-1,27
 261.75 181 261.75 181 263.25 190 c 4,28,29
 267 212 267 212 264 221.5 c 132,-1,30
 261 231 261 231 253.5 234 c 132,-1,31
 246 237 246 237 237.375 236 c 132,-1,32
 228.75 235 228.75 235 221.25 235 c 4,33,34
 180.75 235 180.75 235 140.25 231 c 132,-1,35
 99.75 227 99.75 227 58.5 227 c 4,36,37
 53.25 227 53.25 227 51.75 235.5 c 132,-1,38
 50.25 244 50.25 244 56.25 253 c 4,39,40
 67.5 271 67.5 271 86.25 298.5 c 132,-1,41
 105 326 105 326 126.375 358 c 132,-1,42
 147.75 390 147.75 390 171.375 424 c 132,-1,43
 195 458 195 458 216.375 489.5 c 132,-1,44
 237.75 521 237.75 521 256.125 547.5 c 132,-1,45
 274.5 574 274.5 574 287.25 590 c 4,46,47
 300 608 300 608 306 618.5 c 132,-1,48
 312 629 312 629 316.875 638 c 132,-1,49
 321.75 647 321.75 647 327.375 657 c 132,-1,50
 333 667 333 667 345.75 687 c 4,51,52
 352.5 697 352.5 697 363 701 c 132,-1,53
 373.5 705 373.5 705 384 705 c 260,54,55
 393.75 705 393.75 705 399.75 700 c 132,-1,56
 405.75 695 405.75 695 403.5 687 c 4,57,58
 402.75 684 402.75 684 402 673.5 c 132,-1,59
 401.25 663 401.25 663 395.25 627 c 6,60,-1
 338.25 303 l 6,61,62
 336 289 336 289 351.75 288 c 6,63,-1
 385.5 288 l 6,64,65
 400.5 288 400.5 288 414 288.5 c 132,-1,66
 427.5 289 427.5 289 434.25 289 c 4,67,68
 444 289 444 289 449.625 279 c 132,-1,69
 455.25 269 455.25 269 453 255 c 4,0,1
123.75 300 m 4,70,71
 122.25 292 122.25 292 127.125 289 c 132,-1,72
 132 286 132 286 135.75 286 c 4,73,74
 142.5 286 142.5 286 161.25 287 c 132,-1,75
 180 288 180 288 201.375 288.5 c 132,-1,76
 222.75 289 222.75 289 240 290 c 132,-1,77
 257.25 291 257.25 291 261 291 c 4,78,79
 275.25 291 275.25 291 279 297 c 132,-1,80
 282.75 303 282.75 303 285.75 316 c 6,81,-1
 295.5 374 l 6,82,83
 301.5 409 301.5 409 307.875 449 c 132,-1,84
 314.25 489 314.25 489 321.75 530 c 6,85,-1
 334.5 607 l 5,86,87
 298.5 555 298.5 555 250.875 489.5 c 132,-1,88
 203.25 424 203.25 424 150.75 346 c 4,89,90
 144.75 337 144.75 337 135.375 324 c 132,-1,91
 126 311 126 311 123.75 300 c 4,70,71
EndSplineSet
EndChar

StartChar: five
Encoding: 53 53 38
Width: 345
Flags: W
LayerCount: 2
Fore
SplineSet
436.125 776.5 m 4,0,1
 437.625 773.5 437.625 773.5 435.375 764 c 132,-1,2
 433.125 754.5 433.125 754.5 428.25 741 c 132,-1,3
 423.375 727.5 423.375 727.5 416.625 709.5 c 132,-1,4
 409.875 691.5 409.875 691.5 403.875 670.5 c 4,5,6
 400.125 660.5 400.125 660.5 395.625 649.5 c 132,-1,7
 391.125 638.5 391.125 638.5 384.75 628.5 c 132,-1,8
 378.375 618.5 378.375 618.5 369.75 612.5 c 132,-1,9
 361.125 606.5 361.125 606.5 349.875 606.5 c 4,10,11
 340.875 606.5 340.875 606.5 319.875 606.5 c 4,12,13
 299.625 606.5 299.625 606.5 277.125 606.5 c 260,14,15
 254.625 606.5 254.625 606.5 236.625 605 c 132,-1,16
 218.625 603.5 218.625 603.5 214.875 600.5 c 4,17,18
 209.625 600.5 209.625 600.5 200.625 580 c 132,-1,19
 191.625 559.5 191.625 559.5 181.5 533.5 c 132,-1,20
 171.375 507.5 171.375 507.5 162 482 c 132,-1,21
 152.625 456.5 152.625 456.5 147.375 446.5 c 5,22,23
 159.375 453.5 159.375 453.5 174.375 465 c 132,-1,24
 189.375 476.5 189.375 476.5 207.75 486 c 132,-1,25
 226.125 495.5 226.125 495.5 247.5 501.5 c 132,-1,26
 268.875 507.5 268.875 507.5 294.375 501.5 c 4,27,28
 324.375 494.5 324.375 494.5 343.875 473.5 c 132,-1,29
 363.375 452.5 363.375 452.5 372.75 422 c 132,-1,30
 382.125 391.5 382.125 391.5 381 352 c 132,-1,31
 379.875 312.5 379.875 312.5 368.625 268.5 c 4,32,33
 350.625 199.5 350.625 199.5 313.5 142.5 c 132,-1,34
 276.375 85.5 276.375 85.5 231.375 44.5 c 4,35,36
 214.125 29.5 214.125 29.5 207.375 28.5 c 260,37,38
 201.375 28.5 201.375 28.5 195.375 45.5 c 4,39,40
 193.875 48.5 193.875 48.5 204.75 60.5 c 132,-1,41
 215.625 72.5 215.625 72.5 232.5 95 c 132,-1,42
 249.375 117.5 249.375 117.5 268.5 152 c 132,-1,43
 287.625 186.5 287.625 186.5 300.375 235.5 c 4,44,45
 310.125 274.5 310.125 274.5 315 305 c 132,-1,46
 319.875 335.5 319.875 335.5 315.75 358.5 c 132,-1,47
 311.625 381.5 311.625 381.5 299.625 399 c 132,-1,48
 287.625 416.5 287.625 416.5 264.375 431.5 c 4,49,50
 256.125 436.5 256.125 436.5 240.375 435 c 132,-1,51
 224.625 433.5 224.625 433.5 206.625 428 c 132,-1,52
 188.625 422.5 188.625 422.5 171 413.5 c 132,-1,53
 153.375 404.5 153.375 404.5 143.625 396.5 c 4,54,55
 137.625 393.5 137.625 393.5 133.125 386.5 c 132,-1,56
 128.625 379.5 128.625 379.5 123.375 373 c 132,-1,57
 118.125 366.5 118.125 366.5 111.375 364 c 132,-1,58
 104.625 361.5 104.625 361.5 95.625 367.5 c 4,59,60
 90.375 374.5 90.375 374.5 91.875 385.5 c 4,61,62
 94.875 402.5 94.875 402.5 104.25 418 c 132,-1,63
 113.625 433.5 113.625 433.5 116.625 441.5 c 4,64,65
 124.875 460.5 124.875 460.5 136.875 489.5 c 132,-1,66
 148.875 518.5 148.875 518.5 160.875 550 c 132,-1,67
 172.875 581.5 172.875 581.5 183.375 612.5 c 132,-1,68
 193.875 643.5 193.875 643.5 199.125 665.5 c 4,69,70
 200.625 670.5 200.625 670.5 202.5 675.5 c 132,-1,71
 204.375 680.5 204.375 680.5 209.625 680.5 c 4,72,73
 217.125 681.5 217.125 681.5 231.375 681 c 132,-1,74
 245.625 680.5 245.625 680.5 266.25 680 c 132,-1,75
 286.875 679.5 286.875 679.5 312 680 c 132,-1,76
 337.125 680.5 337.125 680.5 365.625 683.5 c 5,77,-1
 418.875 777.5 l 6,78,79
 423.375 784.5 423.375 784.5 428.25 781.5 c 132,-1,80
 433.125 778.5 433.125 778.5 436.125 776.5 c 4,0,1
EndSplineSet
EndChar

StartChar: six
Encoding: 54 54 39
Width: 405
Flags: W
LayerCount: 2
Fore
SplineSet
408 234 m 0,0,1
 399.75 186 399.75 186 380.25 141.5 c 128,-1,2
 360.75 97 360.75 97 334.5 62.5 c 128,-1,3
 308.25 28 308.25 28 276.375 7.5 c 128,-1,4
 244.5 -13 244.5 -13 209.25 -13 c 0,5,6
 174.75 -13 174.75 -13 143.25 7 c 0,7,8
 118.5 24 118.5 24 103.875 51.5 c 128,-1,9
 89.25 79 89.25 79 82.5 113 c 128,-1,10
 75.75 147 75.75 147 76.5 186.5 c 128,-1,11
 77.25 226 77.25 226 84.75 267 c 0,12,13
 98.25 348 98.25 348 129.375 421.5 c 128,-1,14
 160.5 495 160.5 495 203.625 557.5 c 128,-1,15
 246.75 620 246.75 620 298.125 669.5 c 128,-1,16
 349.5 719 349.5 719 404.25 752 c 0,17,18
 412.5 757 412.5 757 424.5 763 c 128,-1,19
 436.5 769 436.5 769 444 770 c 0,20,21
 447 767 447 767 450 762 c 128,-1,22
 453 757 453 757 451.5 750 c 0,23,24
 450.75 745 450.75 745 444.375 738.5 c 128,-1,25
 438 732 438 732 430.125 727 c 128,-1,26
 422.25 722 422.25 722 414.75 717.5 c 128,-1,27
 407.25 713 407.25 713 404.25 711 c 0,28,29
 390.75 701 390.75 701 376.875 689 c 128,-1,30
 363 677 363 677 350.25 664 c 0,31,32
 292.5 606 292.5 606 249 529.5 c 128,-1,33
 205.5 453 205.5 453 178.5 366 c 1,34,35
 189 378 189 378 203.625 391 c 128,-1,36
 218.25 404 218.25 404 235.5 415.5 c 128,-1,37
 252.75 427 252.75 427 271.125 434 c 128,-1,38
 289.5 441 289.5 441 309.75 441 c 0,39,40
 340.5 441 340.5 441 362.25 425.5 c 128,-1,41
 384 410 384 410 397.125 382 c 128,-1,42
 410.25 354 410.25 354 412.875 316 c 128,-1,43
 415.5 278 415.5 278 408 234 c 0,0,1
273.75 395 m 0,44,45
 258.75 395 258.75 395 242.625 386.5 c 128,-1,46
 226.5 378 226.5 378 211.875 365.5 c 128,-1,47
 197.25 353 197.25 353 184.5 339.5 c 128,-1,48
 171.75 326 171.75 326 163.5 314 c 1,49,50
 159 295 159 295 155.25 279.5 c 128,-1,51
 151.5 264 151.5 264 148.5 245 c 0,52,53
 142.5 209 142.5 209 139.875 169.5 c 128,-1,54
 137.25 130 137.25 130 142.875 96 c 128,-1,55
 148.5 62 148.5 62 165 40 c 128,-1,56
 181.5 18 181.5 18 212.25 18 c 0,57,58
 238.5 18 238.5 18 259.875 36.5 c 128,-1,59
 281.25 55 281.25 55 297.375 84 c 128,-1,60
 313.5 113 313.5 113 324.375 147 c 128,-1,61
 335.25 181 335.25 181 341.25 213 c 0,62,63
 347.25 247 347.25 247 347.25 279.5 c 128,-1,64
 347.25 312 347.25 312 339.375 338 c 128,-1,65
 331.5 364 331.5 364 315.75 379.5 c 128,-1,66
 300 395 300 395 273.75 395 c 0,44,45
EndSplineSet
EndChar

StartChar: seven
Encoding: 55 55 40
Width: 343
Flags: W
LayerCount: 2
Fore
SplineSet
447.75 674 m 4,0,1
 447 671 447 671 440.625 657.5 c 132,-1,2
 434.25 644 434.25 644 424.875 624.5 c 132,-1,3
 415.5 605 415.5 605 404.25 582 c 132,-1,4
 393 559 393 559 382.125 538 c 132,-1,5
 371.25 517 371.25 517 363 500.5 c 132,-1,6
 354.75 484 354.75 484 351.75 478 c 4,7,8
 285.75 343 285.75 343 220.875 211.5 c 132,-1,9
 156 80 156 80 81.75 -49 c 4,10,11
 78.75 -54 78.75 -54 73.125 -53.5 c 132,-1,12
 67.5 -53 67.5 -53 62.625 -49 c 132,-1,13
 57.75 -45 57.75 -45 55.125 -38.5 c 132,-1,14
 52.5 -32 52.5 -32 54.75 -27 c 4,15,16
 106.5 74 106.5 74 157.125 171.5 c 132,-1,17
 207.75 269 207.75 269 259.5 370 c 4,18,19
 285 422 285 422 310.5 472.5 c 132,-1,20
 336 523 336 523 359.25 575 c 4,21,22
 360.75 580 360.75 580 362.25 585 c 132,-1,23
 363.75 590 363.75 590 364.5 595 c 4,24,25
 366 605 366 605 360 607 c 132,-1,26
 354 609 354 609 348.75 609 c 6,27,-1
 131.25 609 l 6,28,29
 125.25 609 125.25 609 120 611.5 c 132,-1,30
 114.75 614 114.75 614 118.5 622 c 4,31,32
 129 647 129 647 138.75 673 c 132,-1,33
 148.5 699 148.5 699 156.375 720.5 c 132,-1,34
 164.25 742 164.25 742 170.625 756 c 132,-1,35
 177 770 177 770 180.75 770 c 260,36,37
 184.5 770 184.5 770 190.125 767.5 c 132,-1,38
 195.75 765 195.75 765 194.25 757 c 4,39,40
 190.5 738 190.5 738 188.25 722 c 132,-1,41
 186 706 186 706 181.5 689 c 5,42,-1
 209.25 688 l 5,43,-1
 266.25 688 l 6,44,45
 280.5 688 280.5 688 295.5 688 c 132,-1,46
 310.5 688 310.5 688 324.75 689 c 4,47,48
 348 690 348 690 371.25 691.5 c 132,-1,49
 394.5 693 394.5 693 417.75 693 c 6,50,-1
 426.75 693 l 6,51,52
 434.25 693 434.25 693 442.125 689 c 132,-1,53
 450 685 450 685 447.75 674 c 4,0,1
EndSplineSet
EndChar

StartChar: eight
Encoding: 56 56 41
Width: 352
Flags: W
LayerCount: 2
Fore
SplineSet
354.75 186 m 0,0,1
 348 144 348 144 331.5 108 c 128,-1,2
 315 72 315 72 291 44.5 c 128,-1,3
 267 17 267 17 238.875 2 c 128,-1,4
 210.75 -13 210.75 -13 182.25 -13 c 0,5,6
 154.5 -13 154.5 -13 129 -4.5 c 128,-1,7
 103.5 4 103.5 4 85.875 23.5 c 128,-1,8
 68.25 43 68.25 43 60.75 75.5 c 128,-1,9
 53.25 108 53.25 108 60.75 155 c 0,10,11
 65.25 187 65.25 187 76.875 213.5 c 128,-1,12
 88.5 240 88.5 240 105.375 262.5 c 128,-1,13
 122.25 285 122.25 285 141.75 303 c 128,-1,14
 161.25 321 161.25 321 181.5 335 c 2,15,-1
 198.75 347 l 1,16,17
 196.5 352 196.5 352 193.125 355.5 c 128,-1,18
 189.75 359 189.75 359 187.5 364 c 0,19,20
 174 379 174 379 160.875 396.5 c 128,-1,21
 147.75 414 147.75 414 138.75 435 c 128,-1,22
 129.75 456 129.75 456 125.625 480.5 c 128,-1,23
 121.5 505 121.5 505 126 536 c 0,24,25
 132.75 580 132.75 580 150.75 615 c 128,-1,26
 168.75 650 168.75 650 193.125 675 c 128,-1,27
 217.5 700 217.5 700 246.375 713.5 c 128,-1,28
 275.25 727 275.25 727 303 727 c 0,29,30
 328.5 727 328.5 727 352.125 716.5 c 128,-1,31
 375.75 706 375.75 706 391.875 685.5 c 128,-1,32
 408 665 408 665 415.125 633.5 c 128,-1,33
 422.25 602 422.25 602 415.5 562 c 0,34,35
 410.25 525 410.25 525 397.125 498 c 128,-1,36
 384 471 384 471 365.625 451 c 128,-1,37
 347.25 431 347.25 431 325.125 415 c 128,-1,38
 303 399 303 399 281.25 385 c 1,39,40
 284.25 380 284.25 380 288.375 376 c 128,-1,41
 292.5 372 292.5 372 297 368 c 0,42,43
 310.5 354 310.5 354 323.625 334.5 c 128,-1,44
 336.75 315 336.75 315 345.375 292 c 128,-1,45
 354 269 354 269 357 242.5 c 128,-1,46
 360 216 360 216 354.75 186 c 0,0,1
291 151 m 0,47,48
 296.25 187 296.25 187 292.5 215.5 c 128,-1,49
 288.75 244 288.75 244 277.875 265.5 c 128,-1,50
 267 287 267 287 250.875 303 c 128,-1,51
 234.75 319 234.75 319 216.75 331 c 1,52,53
 178.5 312 178.5 312 151.5 267.5 c 128,-1,54
 124.5 223 124.5 223 117 170 c 0,55,56
 112.5 140 112.5 140 112.5 113 c 128,-1,57
 112.5 86 112.5 86 118.125 65 c 128,-1,58
 123.75 44 123.75 44 137.25 31 c 128,-1,59
 150.75 18 150.75 18 172.5 18 c 0,60,61
 186.75 18 186.75 18 199.5 20.5 c 128,-1,62
 212.25 23 212.25 23 226.5 32 c 0,63,64
 254.25 49 254.25 49 270 80.5 c 128,-1,65
 285.75 112 285.75 112 291 151 c 0,47,48
361.5 557 m 0,66,67
 366 586 366 586 363.375 612 c 128,-1,68
 360.75 638 360.75 638 352.5 657 c 128,-1,69
 344.25 676 344.25 676 329.25 687 c 128,-1,70
 314.25 698 314.25 698 292.5 698 c 0,71,72
 255 698 255 698 225 662 c 128,-1,73
 195 626 195 626 186 571 c 0,74,75
 180 532 180 532 191.25 497 c 0,76,77
 195 486 195 486 203.25 471 c 128,-1,78
 211.5 456 211.5 456 221.25 441.5 c 128,-1,79
 231 427 231 427 241.875 416.5 c 128,-1,80
 252.75 406 252.75 406 261.75 402 c 1,81,82
 280.5 409 280.5 409 297 425.5 c 128,-1,83
 313.5 442 313.5 442 326.25 463 c 128,-1,84
 339 484 339 484 348.375 508.5 c 128,-1,85
 357.75 533 357.75 533 361.5 557 c 0,66,67
EndSplineSet
EndChar

StartChar: nine
Encoding: 57 57 42
Width: 405
Flags: W
LayerCount: 2
Fore
SplineSet
249.75 287 m 4,0,1
 264.75 287 264.75 287 280.125 295.5 c 132,-1,2
 295.5 304 295.5 304 310.125 316.5 c 132,-1,3
 324.75 329 324.75 329 337.5 343 c 132,-1,4
 350.25 357 350.25 357 358.5 368 c 5,5,6
 363 387 363 387 366.75 402.5 c 132,-1,7
 370.5 418 370.5 418 374.25 438 c 4,8,9
 380.25 473 380.25 473 382.875 512.5 c 132,-1,10
 385.5 552 385.5 552 379.5 586 c 132,-1,11
 373.5 620 373.5 620 357.375 642 c 132,-1,12
 341.25 664 341.25 664 310.5 664 c 4,13,14
 284.25 664 284.25 664 262.875 645.5 c 132,-1,15
 241.5 627 241.5 627 225 598.5 c 132,-1,16
 208.5 570 208.5 570 198 535.5 c 132,-1,17
 187.5 501 187.5 501 180.75 469 c 4,18,19
 174.75 435 174.75 435 175.125 402.5 c 132,-1,20
 175.5 370 175.5 370 183 344.5 c 132,-1,21
 190.5 319 190.5 319 207 303 c 132,-1,22
 223.5 287 223.5 287 249.75 287 c 4,0,1
114.75 448 m 4,23,24
 123 496 123 496 142.125 540.5 c 132,-1,25
 161.25 585 161.25 585 187.5 620 c 132,-1,26
 213.75 655 213.75 655 246 675.5 c 132,-1,27
 278.25 696 278.25 696 313.5 696 c 4,28,29
 348 696 348 696 378.75 675 c 4,30,31
 403.5 658 403.5 658 418.125 630.5 c 132,-1,32
 432.75 603 432.75 603 439.5 569 c 132,-1,33
 446.25 535 446.25 535 445.5 495.5 c 132,-1,34
 444.75 456 444.75 456 437.25 415 c 4,35,36
 423.75 334 423.75 334 395.25 264 c 132,-1,37
 366.75 194 366.75 194 330.375 137.5 c 132,-1,38
 294 81 294 81 251.25 39.5 c 132,-1,39
 208.5 -2 208.5 -2 165.75 -24 c 4,40,41
 157.5 -29 157.5 -29 145.875 -35.5 c 132,-1,42
 134.25 -42 134.25 -42 126.75 -43 c 4,43,44
 123.75 -40 123.75 -40 120.375 -34.5 c 132,-1,45
 117 -29 117 -29 117.75 -22 c 4,46,47
 118.5 -19 118.5 -19 128.625 -11 c 132,-1,48
 138.75 -3 138.75 -3 151.875 7 c 132,-1,49
 165 17 165 17 178.125 26.5 c 132,-1,50
 191.25 36 191.25 36 198 43 c 4,51,52
 250.5 96 250.5 96 283.5 163.5 c 132,-1,53
 316.5 231 316.5 231 343.5 317 c 5,54,55
 333 305 333 305 318.375 291.5 c 132,-1,56
 303.75 278 303.75 278 286.875 266.5 c 132,-1,57
 270 255 270 255 251.25 248 c 132,-1,58
 232.5 241 232.5 241 213 241 c 4,59,60
 181.5 241 181.5 241 159.75 257 c 132,-1,61
 138 273 138 273 125.25 300.5 c 132,-1,62
 112.5 328 112.5 328 109.875 366 c 132,-1,63
 107.25 404 107.25 404 114.75 448 c 4,23,24
EndSplineSet
EndChar

StartChar: colon
Encoding: 58 58 43
Width: 180
Flags: W
LayerCount: 2
Fore
SplineSet
199.5 406 m 0,0,1
 195 378 195 378 177.75 358.5 c 128,-1,2
 160.5 339 160.5 339 141 339 c 0,3,4
 138 339 138 339 138 340 c 0,5,6
 130.5 341 130.5 341 124.5 347.5 c 128,-1,7
 118.5 354 118.5 354 114.75 364 c 128,-1,8
 111 374 111 374 109.5 385.5 c 128,-1,9
 108 397 108 397 110.25 409 c 0,10,11
 114 433 114 433 130.875 452 c 128,-1,12
 147.75 471 147.75 471 163.5 471 c 0,13,14
 182.25 471 182.25 471 193.125 452 c 128,-1,15
 204 433 204 433 199.5 406 c 0,0,1
138.75 51 m 0,16,17
 134.25 24 134.25 24 117 3 c 128,-1,18
 99.75 -18 99.75 -18 79.5 -18 c 0,19,20
 70.5 -18 70.5 -18 63.75 -12 c 128,-1,21
 57 -6 57 -6 52.875 3.5 c 128,-1,22
 48.75 13 48.75 13 47.25 25.5 c 128,-1,23
 45.75 38 45.75 38 48.75 51 c 0,24,25
 53.25 78 53.25 78 69.375 96 c 128,-1,26
 85.5 114 85.5 114 103.5 114 c 0,27,28
 120.75 114 120.75 114 132 95.5 c 128,-1,29
 143.25 77 143.25 77 138.75 51 c 0,16,17
EndSplineSet
EndChar

StartChar: semicolon
Encoding: 59 59 44
Width: 182
Flags: W
LayerCount: 2
Fore
SplineSet
205.5 406 m 0,0,1
 201 378 201 378 184.5 358.5 c 128,-1,2
 168 339 168 339 149.25 339 c 0,3,4
 147 339 147 339 146.25 340 c 0,5,6
 128.25 342 128.25 342 122.25 361.5 c 128,-1,7
 116.25 381 116.25 381 120 404 c 0,8,9
 124.5 433 124.5 433 139.5 451 c 128,-1,10
 154.5 469 154.5 469 174 469 c 0,11,12
 191.25 469 191.25 469 200.25 449.5 c 128,-1,13
 209.25 430 209.25 430 205.5 406 c 0,0,1
148.5 -12 m 0,14,15
 141.75 -50 141.75 -50 126 -80.5 c 128,-1,16
 110.25 -111 110.25 -111 87.75 -135 c 0,17,18
 83.25 -139 83.25 -139 73.125 -148 c 128,-1,19
 63 -157 63 -157 51.75 -166 c 128,-1,20
 40.5 -175 40.5 -175 30.375 -181.5 c 128,-1,21
 20.25 -188 20.25 -188 16.5 -188 c 0,22,23
 11.25 -188 11.25 -188 11.25 -181 c 1,24,25
 8.25 -179 8.25 -179 9 -172 c 0,26,27
 9 -171 9 -171 12.75 -167.5 c 128,-1,28
 16.5 -164 16.5 -164 19.875 -160.5 c 128,-1,29
 23.25 -157 23.25 -157 26.625 -154 c 128,-1,30
 30 -151 30 -151 31.5 -150 c 0,31,32
 43.5 -140 43.5 -140 54.375 -129.5 c 128,-1,33
 65.25 -119 65.25 -119 73.875 -107 c 128,-1,34
 82.5 -95 82.5 -95 88.5 -80.5 c 128,-1,35
 94.5 -66 94.5 -66 97.5 -45 c 0,36,37
 100.5 -27 100.5 -27 97.125 -18 c 128,-1,38
 93.75 -9 93.75 -9 85.875 -4.5 c 128,-1,39
 78 0 78 0 69.375 3 c 128,-1,40
 60.75 6 60.75 6 54.75 13 c 0,41,42
 41.25 27 41.25 27 44.25 52 c 0,43,44
 48.75 80 48.75 80 68.25 95.5 c 128,-1,45
 87.75 111 87.75 111 104.25 111 c 256,46,47
 121.5 111 121.5 111 131.625 99.5 c 128,-1,48
 141.75 88 141.75 88 147.375 70 c 128,-1,49
 153 52 153 52 152.625 31 c 128,-1,50
 152.25 10 152.25 10 148.5 -12 c 0,14,15
EndSplineSet
EndChar

StartChar: less
Encoding: 60 60 45
Width: 325
Flags: W
LayerCount: 2
Fore
SplineSet
134.25 230 m 1,0,1
 162 192 162 192 181.5 165.5 c 128,-1,2
 201 139 201 139 219 116.5 c 128,-1,3
 237 94 237 94 256.875 71 c 128,-1,4
 276.75 48 276.75 48 302.25 16 c 1,5,6
 300.75 7 300.75 7 299.25 3 c 128,-1,7
 297.75 -1 297.75 -1 295.5 -4.5 c 128,-1,8
 293.25 -8 293.25 -8 291.75 -12 c 128,-1,9
 290.25 -16 290.25 -16 288 -26 c 1,10,11
 252 5 252 5 227.25 29 c 128,-1,12
 202.5 53 202.5 53 179.25 77.5 c 128,-1,13
 156 102 156 102 130.5 130.5 c 128,-1,14
 105 159 105 159 68.25 198 c 1,15,-1
 78.75 261 l 1,16,17
 113.25 286 113.25 286 139.5 306 c 128,-1,18
 165.75 326 165.75 326 187.5 343.5 c 128,-1,19
 209.25 361 209.25 361 228.75 378 c 128,-1,20
 248.25 395 248.25 395 269.25 412 c 128,-1,21
 290.25 429 290.25 429 315.75 448 c 128,-1,22
 341.25 467 341.25 467 374.25 489 c 1,23,24
 372.75 480 372.75 480 372.75 476 c 128,-1,25
 372.75 472 372.75 472 372.75 469 c 128,-1,26
 372.75 466 372.75 466 373.125 462.5 c 128,-1,27
 373.5 459 373.5 459 372 450 c 1,28,29
 333 415 333 415 302.25 387 c 128,-1,30
 271.5 359 271.5 359 244.875 333.5 c 128,-1,31
 218.25 308 218.25 308 192 283.5 c 128,-1,32
 165.75 259 165.75 259 134.25 230 c 1,0,1
EndSplineSet
EndChar

StartChar: equal
Encoding: 61 61 46
Width: 363
Flags: W
LayerCount: 2
Fore
SplineSet
381 340 m 1,0,1
 379.5 332 379.5 332 377.625 322 c 128,-1,2
 375.75 312 375.75 312 371.25 306 c 1,3,4
 363.75 307 363.75 307 354 307 c 0,5,6
 345.75 307 345.75 307 334.5 307 c 2,7,-1
 281.25 307 l 2,8,9
 249 307 249 307 203.625 306.5 c 128,-1,10
 158.25 306 158.25 306 95.25 306 c 1,11,12
 90.75 323 90.75 323 91.875 336 c 128,-1,13
 93 349 93 349 106.5 372 c 1,14,15
 172.5 372 172.5 372 231.75 371 c 128,-1,16
 291 370 291 370 334.5 370 c 2,17,-1
 384.75 370 l 1,18,19
 384.75 360 384.75 360 383.25 354 c 2,20,-1
 381 340 l 1,0,1
75 208 m 1,21,22
 90 208 90 208 109.5 208.5 c 128,-1,23
 129 209 129 209 161.25 209 c 2,24,-1
 354.75 209 l 1,25,26
 360.75 191 360.75 191 356.25 176 c 128,-1,27
 351.75 161 351.75 161 343.5 143 c 1,28,29
 328.5 142 328.5 142 311.25 142 c 256,30,31
 294 142 294 142 274.5 142 c 2,32,-1
 195.75 142 l 2,33,34
 157.5 142 157.5 142 122.25 142.5 c 128,-1,35
 87 143 87 143 63.75 144 c 1,36,37
 65.25 153 65.25 153 64.5 160.5 c 128,-1,38
 63.75 168 63.75 168 65.25 177 c 0,39,40
 66 183 66 183 69.75 192.5 c 128,-1,41
 73.5 202 73.5 202 75 208 c 1,21,22
EndSplineSet
EndChar

StartChar: greater
Encoding: 62 62 47
Width: 325
Flags: W
LayerCount: 2
Fore
SplineSet
279 230 m 1,0,1
 256.5 259 256.5 259 238.875 283.5 c 128,-1,2
 221.25 308 221.25 308 203.25 333 c 128,-1,3
 185.25 358 185.25 358 164.25 386.5 c 128,-1,4
 143.25 415 143.25 415 117 450 c 1,5,6
 118.5 459 118.5 459 120 462.5 c 128,-1,7
 121.5 466 121.5 466 122.625 469 c 128,-1,8
 123.75 472 123.75 472 125.25 476 c 128,-1,9
 126.75 480 126.75 480 128.25 489 c 1,10,11
 165.75 455 165.75 455 190.125 429 c 128,-1,12
 214.5 403 214.5 403 235.5 378 c 128,-1,13
 256.5 353 256.5 353 280.875 325.5 c 128,-1,14
 305.25 298 305.25 298 344.25 261 c 1,15,-1
 332.25 198 l 1,16,17
 298.5 172 298.5 172 272.25 151 c 128,-1,18
 246 130 246 130 223.125 112 c 128,-1,19
 200.25 94 200.25 94 180 78 c 128,-1,20
 159.75 62 159.75 62 138 46 c 128,-1,21
 116.25 30 116.25 30 91.125 12.5 c 128,-1,22
 66 -5 66 -5 35.25 -26 c 1,23,24
 36.75 -17 36.75 -17 36.375 -12.5 c 128,-1,25
 36 -8 36 -8 35.25 -4.5 c 128,-1,26
 34.5 -1 34.5 -1 34.125 3 c 128,-1,27
 33.75 7 33.75 7 35.25 16 c 1,28,29
 72.75 48 72.75 48 100.875 72.5 c 128,-1,30
 129 97 129 97 155.25 120 c 128,-1,31
 181.5 143 181.5 143 210.375 169 c 128,-1,32
 239.25 195 239.25 195 279 230 c 1,0,1
EndSplineSet
EndChar

StartChar: question
Encoding: 63 63 48
Width: 254
Flags: W
LayerCount: 2
Fore
SplineSet
127.5 40 m 0,0,1
 123 14 123 14 106.125 -3 c 128,-1,2
 89.25 -20 89.25 -20 72 -15 c 0,3,4
 55.5 -13 55.5 -13 49.875 4.5 c 128,-1,5
 44.25 22 44.25 22 48.75 44 c 0,6,7
 53.25 70 53.25 70 66.375 86.5 c 128,-1,8
 79.5 103 79.5 103 99 103 c 0,9,10
 117 103 117 103 124.125 83.5 c 128,-1,11
 131.25 64 131.25 64 127.5 40 c 0,0,1
311.25 479 m 0,12,13
 304.5 440 304.5 440 290.625 413.5 c 128,-1,14
 276.75 387 276.75 387 259.5 368 c 128,-1,15
 242.25 349 242.25 349 222.75 336 c 128,-1,16
 203.25 323 203.25 323 186 311 c 128,-1,17
 168.75 299 168.75 299 155.25 286 c 128,-1,18
 141.75 273 141.75 273 135 255 c 0,19,20
 132 252 132 252 129 239 c 2,21,-1
 124.5 212 l 2,22,23
 122.25 199 122.25 199 118.125 187 c 128,-1,24
 114 175 114 175 105 174 c 0,25,26
 96.75 177 96.75 177 98.25 190 c 0,27,28
 98.25 194 98.25 194 98.625 199 c 128,-1,29
 99 204 99 204 99.75 210 c 2,30,-1
 104.25 237 l 2,31,32
 106.5 251 106.5 251 109.5 263 c 128,-1,33
 112.5 275 112.5 275 114 284 c 0,34,35
 117 303 117 303 118.875 317 c 128,-1,36
 120.75 331 120.75 331 122.625 341 c 128,-1,37
 124.5 351 124.5 351 127.5 358 c 128,-1,38
 130.5 365 130.5 365 135.75 370 c 0,39,40
 157.5 381 157.5 381 179.625 395 c 128,-1,41
 201.75 409 201.75 409 222.375 427.5 c 128,-1,42
 243 446 243 446 257.25 472 c 128,-1,43
 271.5 498 271.5 498 278.25 534 c 0,44,45
 282.75 559 282.75 559 280.875 582 c 128,-1,46
 279 605 279 605 271.125 624 c 128,-1,47
 263.25 643 263.25 643 250.5 655 c 128,-1,48
 237.75 667 237.75 667 219.75 667 c 0,49,50
 207.75 667 207.75 667 194.625 660.5 c 128,-1,51
 181.5 654 181.5 654 168.75 654 c 256,52,53
 156.75 654 156.75 654 149.625 665 c 128,-1,54
 142.5 676 142.5 676 146.25 693 c 0,55,56
 148.5 708 148.5 708 154.5 717.5 c 128,-1,57
 160.5 727 160.5 727 168.75 732.5 c 128,-1,58
 177 738 177 738 185.625 739.5 c 128,-1,59
 194.25 741 194.25 741 202.5 741 c 0,60,61
 232.5 741 232.5 741 256.125 715 c 128,-1,62
 279.75 689 279.75 689 294.375 650 c 128,-1,63
 309 611 309 611 313.5 565 c 128,-1,64
 318 519 318 519 311.25 479 c 0,12,13
EndSplineSet
EndChar

StartChar: at
Encoding: 64 64 49
Width: 624
Flags: W
LayerCount: 2
Fore
SplineSet
372.75 93 m 0,0,1
 378 100 378 100 386.25 113.5 c 128,-1,2
 394.5 127 394.5 127 398.25 138 c 2,3,-1
 406.5 174 l 1,4,-1
 411.75 203 l 2,5,6
 413.25 211 413.25 211 414 218 c 128,-1,7
 414.75 225 414.75 225 414.75 230 c 1,8,9
 408 228 408 228 398.625 224.5 c 128,-1,10
 389.25 221 389.25 221 379.875 216.5 c 128,-1,11
 370.5 212 370.5 212 361.125 207.5 c 128,-1,12
 351.75 203 351.75 203 345 200 c 0,13,14
 324 190 324 190 304.5 170.5 c 128,-1,15
 285 151 285 151 279.75 119 c 0,16,17
 275.25 90 275.25 90 281.25 73 c 128,-1,18
 287.25 56 287.25 56 310.5 56 c 0,19,20
 325.5 56 325.5 56 343.125 67 c 128,-1,21
 360.75 78 360.75 78 372.75 93 c 0,0,1
385.5 81 m 1,22,23
 375 66 375 66 361.125 51.5 c 128,-1,24
 347.25 37 347.25 37 330.75 25 c 128,-1,25
 314.25 13 314.25 13 297.75 6.5 c 128,-1,26
 281.25 0 281.25 0 267 0 c 0,27,28
 231 0 231 0 221.25 28.5 c 128,-1,29
 211.5 57 211.5 57 219 103 c 0,30,31
 222.75 126 222.75 126 234.375 145 c 128,-1,32
 246 164 246 164 261.375 179.5 c 128,-1,33
 276.75 195 276.75 195 293.25 206 c 128,-1,34
 309.75 217 309.75 217 323.25 224 c 0,35,36
 351 237 351 237 372.75 247 c 128,-1,37
 394.5 257 394.5 257 422.25 266 c 1,38,-1
 435.75 341 l 2,39,40
 443.25 384 443.25 384 436.5 410.5 c 128,-1,41
 429.75 437 429.75 437 397.5 437 c 0,42,43
 375.75 437 375.75 437 361.5 427.5 c 128,-1,44
 347.25 418 347.25 418 337.125 404.5 c 128,-1,45
 327 391 327 391 322.125 378 c 128,-1,46
 317.25 365 317.25 365 315 357 c 0,47,48
 309 341 309 341 295.125 329 c 128,-1,49
 281.25 317 281.25 317 267 317 c 0,50,51
 259.5 317 259.5 317 259.875 327 c 128,-1,52
 260.25 337 260.25 337 261.75 345 c 0,53,54
 266.25 370 266.25 370 284.625 395 c 128,-1,55
 303 420 303 420 327.375 441 c 128,-1,56
 351.75 462 351.75 462 378.375 475 c 128,-1,57
 405 488 405 488 424.5 488 c 0,58,59
 429.75 488 429.75 488 437.25 486.5 c 128,-1,60
 444.75 485 444.75 485 451.875 483 c 128,-1,61
 459 481 459 481 466.125 478 c 128,-1,62
 473.25 475 473.25 475 476.25 472 c 0,63,64
 497.25 455 497.25 455 498 426.5 c 128,-1,65
 498.75 398 498.75 398 492.75 364 c 0,66,67
 485.25 321 485.25 321 477.375 278.5 c 128,-1,68
 469.5 236 469.5 236 461.25 193 c 2,69,-1
 456 163 l 2,70,71
 452.25 139 452.25 139 449.25 115 c 128,-1,72
 446.25 91 446.25 91 448.5 83 c 0,73,74
 450 76 450 76 455.25 73.5 c 128,-1,75
 460.5 71 460.5 71 466.5 71 c 0,76,77
 488.25 71 488.25 71 509.25 95.5 c 128,-1,78
 530.25 120 530.25 120 547.875 154.5 c 128,-1,79
 565.5 189 565.5 189 577.875 226 c 128,-1,80
 590.25 263 590.25 263 594.75 288 c 0,81,82
 606 353 606 353 597.75 407 c 128,-1,83
 589.5 461 589.5 461 566.25 500 c 128,-1,84
 543 539 543 539 507.375 560.5 c 128,-1,85
 471.75 582 471.75 582 428.25 582 c 0,86,87
 375 582 375 582 327.75 552.5 c 128,-1,88
 280.5 523 280.5 523 241.875 474 c 128,-1,89
 203.25 425 203.25 425 175.875 359.5 c 128,-1,90
 148.5 294 148.5 294 135.75 222 c 0,91,92
 123.75 151 123.75 151 129.375 93 c 128,-1,93
 135 35 135 35 156 -11 c 0,94,95
 180 -61 180 -61 219 -89 c 128,-1,96
 258 -117 258 -117 312 -117 c 0,97,98
 332.25 -117 332.25 -117 357 -111 c 128,-1,99
 381.75 -105 381.75 -105 407.25 -93.5 c 128,-1,100
 432.75 -82 432.75 -82 456 -65 c 128,-1,101
 479.25 -48 479.25 -48 497.25 -26 c 1,102,103
 504.75 -29 504.75 -29 511.875 -32 c 128,-1,104
 519 -35 519 -35 526.5 -37 c 1,105,106
 474 -102 474 -102 416.25 -135 c 128,-1,107
 358.5 -168 358.5 -168 297.75 -168 c 0,108,109
 253.5 -168 253.5 -168 215.25 -150 c 128,-1,110
 177 -132 177 -132 147.75 -98.5 c 128,-1,111
 118.5 -65 118.5 -65 98.625 -17 c 128,-1,112
 78.75 31 78.75 31 74.25 91 c 0,113,114
 71.25 126 71.25 126 73.875 163 c 128,-1,115
 76.5 200 76.5 200 83.25 237 c 0,116,117
 96.75 317 96.75 317 132.375 390 c 128,-1,118
 168 463 168 463 219 518 c 256,119,120
 269.25 573 269.25 573 325.125 600.5 c 128,-1,121
 381 628 381 628 436.5 628 c 0,122,123
 471.75 628 471.75 628 504.75 615 c 128,-1,124
 537.75 602 537.75 602 564 576.5 c 128,-1,125
 590.25 551 590.25 551 609.75 514 c 128,-1,126
 629.25 477 629.25 477 635.25 429 c 0,127,128
 639.75 397 639.75 397 639.75 364 c 128,-1,129
 639.75 331 639.75 331 633.75 296 c 0,130,131
 626.25 251 626.25 251 608.25 204.5 c 128,-1,132
 590.25 158 590.25 158 565.875 117.5 c 128,-1,133
 541.5 77 541.5 77 510.75 47.5 c 128,-1,134
 480 18 480 18 446.25 9 c 0,135,136
 442.5 8 442.5 8 438.375 7.5 c 128,-1,137
 434.25 7 434.25 7 429.75 7 c 0,138,139
 405.75 7 405.75 7 396.375 28.5 c 128,-1,140
 387 50 387 50 386.25 81 c 1,141,-1
 385.5 81 l 1,22,23
EndSplineSet
EndChar

StartChar: A
Encoding: 65 65 50
Width: 555
Flags: W
LayerCount: 2
Fore
SplineSet
9 11 m 0,0,1
 11.25 24 11.25 24 17.625 28.5 c 128,-1,2
 24 33 24 33 32.625 35 c 128,-1,3
 41.25 37 41.25 37 51 41 c 128,-1,4
 60.75 45 60.75 45 69 59 c 0,5,6
 72 63 72 63 78.75 77 c 128,-1,7
 85.5 91 85.5 91 93 106.5 c 128,-1,8
 100.5 122 100.5 122 106.875 137 c 128,-1,9
 113.25 152 113.25 152 117 159 c 0,10,11
 141.75 214 141.75 214 166.125 268 c 128,-1,12
 190.5 322 190.5 322 216 377 c 0,13,14
 258 470 258 470 300.75 562 c 128,-1,15
 343.5 654 343.5 654 385.5 748 c 0,16,17
 387.75 754 387.75 754 390.375 757.5 c 128,-1,18
 393 761 393 761 398.25 761 c 0,19,20
 403.5 761 403.5 761 405.75 755.5 c 128,-1,21
 408 750 408 750 408 744 c 0,22,23
 414 686 414 686 420.75 625.5 c 128,-1,24
 427.5 565 427.5 565 434.25 507 c 0,25,26
 444.75 395 444.75 395 458.625 285.5 c 128,-1,27
 472.5 176 472.5 176 489.75 68 c 0,28,29
 492.75 49 492.75 49 503.625 42.5 c 128,-1,30
 514.5 36 514.5 36 525.375 33 c 128,-1,31
 536.25 30 536.25 30 544.125 26.5 c 128,-1,32
 552 23 552 23 549.75 9 c 0,33,34
 548.25 0 548.25 0 540.375 -3.5 c 128,-1,35
 532.5 -7 532.5 -7 525 -7 c 2,36,-1
 516.75 -7 l 2,37,38
 499.5 -7 499.5 -7 483.375 -4 c 128,-1,39
 467.25 -1 467.25 -1 449.25 -1 c 0,40,41
 423.75 -1 423.75 -1 399 -4 c 128,-1,42
 374.25 -7 374.25 -7 349.5 -7 c 0,43,44
 343.5 -7 343.5 -7 339 -1 c 128,-1,45
 334.5 5 334.5 5 336.75 14 c 0,46,47
 339 25 339 25 349.125 27.5 c 128,-1,48
 359.25 30 359.25 30 372 31 c 128,-1,49
 384.75 32 384.75 32 395.625 36 c 128,-1,50
 406.5 40 406.5 40 409.5 57 c 0,51,52
 410.25 60 410.25 60 409.875 64 c 128,-1,53
 409.5 68 409.5 68 409.5 71 c 0,54,55
 409.5 81 409.5 81 407.25 102 c 128,-1,56
 405 123 405 123 401.625 151.5 c 128,-1,57
 398.25 180 398.25 180 394.5 215 c 128,-1,58
 390.75 250 390.75 250 386.25 287 c 0,59,60
 384.75 297 384.75 297 383.625 305 c 128,-1,61
 382.5 313 382.5 313 381.75 315 c 0,62,63
 377.25 323 377.25 323 366 325 c 128,-1,64
 354.75 327 354.75 327 342.75 327 c 2,65,-1
 329.25 327 l 2,66,67
 321 327 321 327 307.125 327.5 c 128,-1,68
 293.25 328 293.25 328 278.25 328 c 0,69,70
 264 328 264 328 249.75 327 c 128,-1,71
 235.5 326 235.5 326 225.75 323 c 1,72,73
 205.5 280 205.5 280 186.75 237.5 c 128,-1,74
 168 195 168 195 154.125 160 c 128,-1,75
 140.25 125 140.25 125 132 101.5 c 128,-1,76
 123.75 78 123.75 78 122.25 73 c 0,77,78
 118.5 51 118.5 51 129 45 c 128,-1,79
 139.5 39 139.5 39 153 37 c 128,-1,80
 166.5 35 166.5 35 177.375 31.5 c 128,-1,81
 188.25 28 188.25 28 186 12 c 0,82,83
 184.5 4 184.5 4 178.875 -1.5 c 128,-1,84
 173.25 -7 173.25 -7 168 -7 c 0,85,86
 144.75 -7 144.75 -7 121.875 -3.5 c 128,-1,87
 99 0 99 0 75.75 0 c 0,88,89
 59.25 0 59.25 0 45.75 -2.5 c 128,-1,90
 32.25 -5 32.25 -5 16.5 -5 c 0,91,92
 11.25 -5 11.25 -5 9.75 0 c 128,-1,93
 8.25 5 8.25 5 9 11 c 0,0,1
360.75 614 m 1,94,95
 345.75 581 345.75 581 334.125 557.5 c 128,-1,96
 322.5 534 322.5 534 310.875 508 c 128,-1,97
 299.25 482 299.25 482 284.625 450.5 c 128,-1,98
 270 419 270 419 247.5 370 c 1,99,-1
 266.25 370 l 2,100,101
 278.25 370 278.25 370 303 370.5 c 128,-1,102
 327.75 371 327.75 371 373.5 371 c 1,103,104
 373.5 372 373.5 372 376.125 372.5 c 128,-1,105
 378.75 373 378.75 373 380.25 374 c 0,106,107
 377.25 410 377.25 410 374.25 450 c 128,-1,108
 371.25 490 371.25 490 368.625 525.5 c 128,-1,109
 366 561 366 561 364.125 585.5 c 128,-1,110
 362.25 610 362.25 610 360.75 614 c 1,94,95
EndSplineSet
Substitution2: "'c2sc' Versalien in Kapit+AOQA-lchen in Lateinisch Nachschlagetabelle 0 Subtabelle" uni1D00
EndChar

StartChar: B
Encoding: 66 66 51
Width: 490
Flags: W
LayerCount: 2
Fore
SplineSet
447.75 570 m 0,0,1
 459 639 459 639 435.75 675 c 128,-1,2
 412.5 711 412.5 711 366.75 711 c 2,3,-1
 357 711 l 2,4,5
 349.5 711 349.5 711 339.75 710.5 c 128,-1,6
 330 710 330 710 320.625 706 c 128,-1,7
 311.25 702 311.25 702 303.375 695 c 128,-1,8
 295.5 688 295.5 688 291.75 675 c 0,9,10
 288.75 664 288.75 664 286.5 652 c 128,-1,11
 284.25 640 284.25 640 282 629 c 2,12,-1
 248.25 433 l 2,13,14
 247.5 428 247.5 428 252 422 c 128,-1,15
 256.5 416 256.5 416 268.5 416 c 2,16,-1
 292.5 416 l 2,17,18
 318 416 318 416 342.75 424 c 128,-1,19
 367.5 432 367.5 432 388.5 450.5 c 128,-1,20
 409.5 469 409.5 469 425.25 498.5 c 128,-1,21
 441 528 441 528 447.75 570 c 0,0,1
417.75 206 m 0,22,23
 426 254 426 254 417 292 c 0,24,25
 409.5 324 409.5 324 394.5 341.5 c 128,-1,26
 379.5 359 379.5 359 360 368.5 c 128,-1,27
 340.5 378 340.5 378 317.25 380 c 128,-1,28
 294 382 294 382 270.75 382 c 2,29,-1
 258.75 382 l 2,30,31
 251.25 382 251.25 382 243.375 377 c 128,-1,32
 235.5 372 235.5 372 233.25 356 c 2,33,-1
 197.25 147 l 2,34,35
 193.5 123 193.5 123 191.25 98 c 128,-1,36
 189 73 189 73 199.5 55 c 0,37,38
 208.5 41 208.5 41 226.875 38 c 128,-1,39
 245.25 35 245.25 35 258.75 35 c 0,40,41
 324.75 35 324.75 35 364.875 82.5 c 128,-1,42
 405 130 405 130 417.75 206 c 0,22,23
494.25 216 m 0,43,44
 484.5 159 484.5 159 462.75 117.5 c 128,-1,45
 441 76 441 76 411.75 49 c 128,-1,46
 382.5 22 382.5 22 347.25 8.5 c 128,-1,47
 312 -5 312 -5 275.25 -6 c 0,48,49
 271.5 -7 271.5 -7 267.75 -7 c 256,50,51
 264.75 -7 264.75 -7 261.75 -7 c 2,52,-1
 51.75 -7 l 2,53,54
 44.25 -7 44.25 -7 34.125 -4.5 c 128,-1,55
 24 -2 24 -2 27 13 c 0,56,57
 28.5 23 28.5 23 40.125 26 c 128,-1,58
 51.75 29 51.75 29 65.625 32 c 128,-1,59
 79.5 35 79.5 35 93 42 c 128,-1,60
 106.5 49 106.5 49 111 67 c 0,61,62
 111.75 69 111.75 69 118.5 99.5 c 128,-1,63
 125.25 130 125.25 130 133.5 178.5 c 128,-1,64
 141.75 227 141.75 227 153.375 288 c 128,-1,65
 165 349 165 349 176.25 412.5 c 128,-1,66
 187.5 476 187.5 476 198 537 c 256,67,68
 208.5 597 208.5 597 216.75 643 c 0,69,70
 219.75 662 219.75 662 219 674 c 128,-1,71
 218.25 686 218.25 686 213.75 692 c 128,-1,72
 209.25 698 209.25 698 200.625 700.5 c 128,-1,73
 192 703 192 703 180.75 706 c 0,74,75
 178.5 706 178.5 706 173.625 707 c 128,-1,76
 168.75 708 168.75 708 165 710 c 128,-1,77
 161.25 712 161.25 712 158.25 715 c 128,-1,78
 155.25 718 155.25 718 156 722 c 0,79,80
 157.5 732 157.5 732 166.5 736 c 128,-1,81
 175.5 740 175.5 740 188.25 741 c 128,-1,82
 201 742 201 742 214.125 741 c 128,-1,83
 227.25 740 227.25 740 236.25 740 c 0,84,85
 268.5 740 268.5 740 300.75 744.5 c 128,-1,86
 333 749 333 749 366 749 c 0,87,88
 395.25 749 395.25 749 425.625 739.5 c 128,-1,89
 456 730 456 730 479.25 709 c 128,-1,90
 502.5 688 502.5 688 513.375 653 c 128,-1,91
 524.25 618 524.25 618 515.25 568 c 0,92,93
 505.5 510 505.5 510 474 472.5 c 128,-1,94
 442.5 435 442.5 435 403.5 418 c 1,95,96
 406.5 414 406.5 414 416.25 409 c 128,-1,97
 426 404 426 404 430.5 401 c 0,98,99
 468.75 377 468.75 377 487.125 330.5 c 128,-1,100
 505.5 284 505.5 284 494.25 216 c 0,43,44
EndSplineSet
Substitution2: "'c2sc' Versalien in Kapit+AOQA-lchen in Lateinisch Nachschlagetabelle 0 Subtabelle" uni0299
EndChar

StartChar: C
Encoding: 67 67 52
Width: 517
Flags: W
LayerCount: 2
Fore
SplineSet
609 776 m 0,0,1
 614.25 776 614.25 776 613.875 766 c 128,-1,2
 613.5 756 613.5 756 611.25 741 c 256,3,4
 609 727 609 727 605.25 711.5 c 128,-1,5
 601.5 696 601.5 696 599.25 685 c 0,6,7
 594.75 658 594.75 658 589.125 631.5 c 128,-1,8
 583.5 605 583.5 605 577.5 579 c 0,9,10
 574.5 570 574.5 570 571.875 566.5 c 128,-1,11
 569.25 563 569.25 563 567 563 c 256,12,13
 564 563 564 563 561.375 564 c 128,-1,14
 558.75 565 558.75 565 556.5 565 c 0,15,16
 552 565 552 565 550.875 574.5 c 128,-1,17
 549.75 584 549.75 584 549.75 596.5 c 128,-1,18
 549.75 609 549.75 609 549.75 623 c 128,-1,19
 549.75 637 549.75 637 547.5 647 c 0,20,21
 530.25 683 530.25 683 500.625 702 c 128,-1,22
 471 721 471 721 436.5 721 c 0,23,24
 387 721 387 721 347.25 693.5 c 128,-1,25
 307.5 666 307.5 666 277.5 619.5 c 128,-1,26
 247.5 573 247.5 573 226.125 512.5 c 128,-1,27
 204.75 452 204.75 452 193.5 386 c 0,28,29
 181.5 315 181.5 315 180.375 248.5 c 128,-1,30
 179.25 182 179.25 182 193.125 130.5 c 128,-1,31
 207 79 207 79 237.75 47 c 128,-1,32
 268.5 15 268.5 15 321 15 c 0,33,34
 338.25 15 338.25 15 357.75 21 c 128,-1,35
 377.25 27 377.25 27 396.75 37.5 c 128,-1,36
 416.25 48 416.25 48 434.25 63.5 c 128,-1,37
 452.25 79 452.25 79 467.25 99 c 0,38,39
 471.75 106 471.75 106 478.5 118.5 c 128,-1,40
 485.25 131 485.25 131 492.375 143.5 c 128,-1,41
 499.5 156 499.5 156 505.5 165 c 128,-1,42
 511.5 174 511.5 174 514.5 174 c 0,43,44
 522 174 522 174 524.625 170 c 128,-1,45
 527.25 166 527.25 166 525.75 155 c 0,46,47
 524.25 147 524.25 147 519.375 128.5 c 128,-1,48
 514.5 110 514.5 110 508.125 90 c 128,-1,49
 501.75 70 501.75 70 495.375 53.5 c 128,-1,50
 489 37 489 37 484.5 32 c 0,51,52
 470.25 17 470.25 17 448.125 6 c 128,-1,53
 426 -5 426 -5 402 -12 c 128,-1,54
 378 -19 378 -19 353.25 -22.5 c 128,-1,55
 328.5 -26 328.5 -26 309.75 -26 c 0,56,57
 246.75 -26 246.75 -26 202.125 7.5 c 128,-1,58
 157.5 41 157.5 41 132 97.5 c 128,-1,59
 106.5 154 106.5 154 100.5 228.5 c 128,-1,60
 94.5 303 94.5 303 108 385 c 0,61,62
 123 474 123 474 155.25 543 c 128,-1,63
 187.5 612 187.5 612 230.25 660 c 128,-1,64
 273 708 273 708 325.875 732.5 c 128,-1,65
 378.75 757 378.75 757 436.5 757 c 0,66,67
 461.25 757 461.25 757 484.125 753 c 128,-1,68
 507 749 507 749 530.25 741 c 0,69,70
 535.5 739 535.5 739 542.25 735.5 c 128,-1,71
 549 732 549 732 556.5 729 c 0,72,73
 560.25 723 560.25 723 565.125 729.5 c 128,-1,74
 570 736 570 736 576 746.5 c 128,-1,75
 582 757 582 757 590.25 766.5 c 128,-1,76
 598.5 776 598.5 776 609 776 c 0,0,1
EndSplineSet
Substitution2: "'c2sc' Versalien in Kapit+AOQA-lchen in Lateinisch Nachschlagetabelle 0 Subtabelle" uni1D04
EndChar

StartChar: D
Encoding: 68 68 53
Width: 592
Flags: W
LayerCount: 2
Fore
SplineSet
534 368 m 0,0,1
 555.75 492 555.75 492 526.875 579.5 c 128,-1,2
 498 667 498 667 419.25 702 c 0,3,4
 405.75 708 405.75 708 390.75 713 c 128,-1,5
 375.75 718 375.75 718 359.25 718 c 2,6,-1
 339.75 718 l 1,7,8
 340.5 718 340.5 718 335.625 717.5 c 128,-1,9
 330.75 717 330.75 717 323.625 714 c 128,-1,10
 316.5 711 316.5 711 308.625 704 c 128,-1,11
 300.75 697 300.75 697 294.75 685 c 0,12,13
 291 675 291 675 288.75 665 c 128,-1,14
 286.5 655 286.5 655 285 645 c 0,15,16
 280.5 618 280.5 618 275.625 590.5 c 128,-1,17
 270.75 563 270.75 563 266.25 537 c 0,18,19
 251.25 447 251.25 447 235.125 358 c 128,-1,20
 219 269 219 269 203.25 179 c 0,21,22
 195.75 134 195.75 134 194.25 104.5 c 128,-1,23
 192.75 75 192.75 75 198.75 57.5 c 128,-1,24
 204.75 40 204.75 40 217.125 33 c 128,-1,25
 229.5 26 229.5 26 249 26 c 0,26,27
 299.25 26 299.25 26 345.375 52.5 c 128,-1,28
 391.5 79 391.5 79 429.375 125.5 c 128,-1,29
 467.25 172 467.25 172 494.625 234.5 c 128,-1,30
 522 297 522 297 534 368 c 0,0,1
613.5 360 m 0,31,32
 598.5 272 598.5 272 561 203.5 c 128,-1,33
 523.5 135 523.5 135 473.25 88 c 128,-1,34
 423 41 423 41 364.5 16.5 c 128,-1,35
 306 -8 306 -8 249.75 -8 c 0,36,37
 232.5 -8 232.5 -8 221.625 -7 c 128,-1,38
 210.75 -6 210.75 -6 201 -5 c 128,-1,39
 191.25 -4 191.25 -4 180 -3 c 128,-1,40
 168.75 -2 168.75 -2 152.25 -2 c 0,41,42
 122.25 -2 122.25 -2 94.125 -4.5 c 128,-1,43
 66 -7 66 -7 36 -7 c 0,44,45
 30 -7 30 -7 31.5 2 c 0,46,47
 33 12 33 12 37.875 17.5 c 128,-1,48
 42.75 23 42.75 23 48.75 26 c 128,-1,49
 54.75 29 54.75 29 60.75 30 c 128,-1,50
 66.75 31 66.75 31 72 33 c 0,51,52
 96 40 96 40 104.25 55 c 128,-1,53
 112.5 70 112.5 70 119.25 100 c 0,54,55
 121.5 110 121.5 110 124.125 123.5 c 128,-1,56
 126.75 137 126.75 137 130.875 160 c 128,-1,57
 135 183 135 183 142.125 220 c 128,-1,58
 149.25 257 149.25 257 159 316 c 2,59,-1
 200.25 555 l 2,60,61
 203.25 571 203.25 571 206.625 590.5 c 128,-1,62
 210 610 210 610 212.25 628 c 128,-1,63
 214.5 646 214.5 646 215.625 660 c 128,-1,64
 216.75 674 216.75 674 216.75 679 c 0,65,66
 214.5 694 214.5 694 204.375 697.5 c 128,-1,67
 194.25 701 194.25 701 183.75 701 c 0,68,69
 178.5 701 178.5 701 172.5 700.5 c 128,-1,70
 166.5 700 166.5 700 160.5 700 c 0,71,72
 154.5 700 154.5 700 150 706 c 0,73,74
 147 710 147 710 149.25 718 c 128,-1,75
 151.5 726 151.5 726 155.25 730 c 256,76,77
 159 734 159 734 173.625 737.5 c 128,-1,78
 188.25 741 188.25 741 209.25 743.5 c 128,-1,79
 230.25 746 230.25 746 253.875 748 c 128,-1,80
 277.5 750 277.5 750 299.25 751 c 128,-1,81
 321 752 321 752 338.25 752.5 c 128,-1,82
 355.5 753 355.5 753 362.25 753 c 0,83,84
 433.5 753 433.5 753 488.25 726 c 128,-1,85
 543 699 543 699 576 648.5 c 128,-1,86
 609 598 609 598 619.5 525 c 128,-1,87
 630 452 630 452 613.5 360 c 0,31,32
EndSplineSet
Substitution2: "'c2sc' Versalien in Kapit+AOQA-lchen in Lateinisch Nachschlagetabelle 0 Subtabelle" uni1D05
EndChar

StartChar: E
Encoding: 69 69 54
Width: 477
Flags: W
LayerCount: 2
Fore
SplineSet
501 582 m 0,0,1
 494.25 582 494.25 582 491.625 594.5 c 128,-1,2
 489 607 489 607 487.875 624.5 c 128,-1,3
 486.75 642 486.75 642 484.5 659 c 128,-1,4
 482.25 676 482.25 676 474 684 c 0,5,6
 468.75 689 468.75 689 456.75 692.5 c 128,-1,7
 444.75 696 444.75 696 430.125 698 c 128,-1,8
 415.5 700 415.5 700 399.75 700.5 c 128,-1,9
 384 701 384 701 369.75 701 c 2,10,-1
 338.25 701 l 2,11,12
 321.75 701 321.75 701 311.25 691.5 c 128,-1,13
 300.75 682 300.75 682 294.375 666.5 c 128,-1,14
 288 651 288 651 284.25 632 c 128,-1,15
 280.5 613 280.5 613 277.5 596 c 0,16,17
 271.5 561 271.5 561 265.5 526.5 c 128,-1,18
 259.5 492 259.5 492 253.5 457 c 2,19,-1
 249.75 433 l 2,20,21
 247.5 420 247.5 420 247.5 412 c 0,22,23
 249.75 407 249.75 407 254.625 404.5 c 128,-1,24
 259.5 402 259.5 402 266.625 401.5 c 128,-1,25
 273.75 401 273.75 401 280.125 401.5 c 128,-1,26
 286.5 402 286.5 402 290.25 402 c 0,27,28
 309.75 402 309.75 402 330 402.5 c 128,-1,29
 350.25 403 350.25 403 370.5 408 c 0,30,31
 393 413 393 413 405.375 433.5 c 128,-1,32
 417.75 454 417.75 454 424.5 483 c 0,33,34
 427.5 489 427.5 489 431.25 495 c 128,-1,35
 435 501 435 501 440.25 501 c 0,36,37
 447.75 501 447.75 501 447 490.5 c 128,-1,38
 446.25 480 446.25 480 444 469 c 0,39,40
 440.25 447 440.25 447 435.75 425.5 c 128,-1,41
 431.25 404 431.25 404 427.5 383 c 256,42,43
 423.75 361 423.75 361 421.125 340 c 128,-1,44
 418.5 319 418.5 319 414.75 298 c 0,45,46
 414 293 414 293 412.875 285.5 c 128,-1,47
 411.75 278 411.75 278 409.875 270.5 c 128,-1,48
 408 263 408 263 404.625 258.5 c 128,-1,49
 401.25 254 401.25 254 396 254 c 256,50,51
 390.75 254 390.75 254 389.625 263 c 128,-1,52
 388.5 272 388.5 272 388.875 284 c 128,-1,53
 389.25 296 389.25 296 389.625 307.5 c 128,-1,54
 390 319 390 319 389.25 325 c 0,55,56
 390 344 390 344 379.875 354 c 128,-1,57
 369.75 364 369.75 364 354.375 367.5 c 128,-1,58
 339 371 339 371 321 370.5 c 128,-1,59
 303 370 303 370 289.5 370 c 0,60,61
 285.75 370 285.75 370 280.5 369.5 c 128,-1,62
 275.25 369 275.25 369 268.5 368.5 c 128,-1,63
 261.75 368 261.75 368 255.375 367 c 128,-1,64
 249 366 249 366 246 365 c 0,65,66
 241.5 364 241.5 364 238.5 355.5 c 128,-1,67
 235.5 347 235.5 347 233.25 337 c 128,-1,68
 231 327 231 327 229.5 316.5 c 128,-1,69
 228 306 228 306 227.25 302 c 2,70,-1
 199.5 140 l 2,71,72
 197.25 129 197.25 129 195.375 115 c 128,-1,73
 193.5 101 193.5 101 192.75 87.5 c 128,-1,74
 192 74 192 74 193.875 62 c 128,-1,75
 195.75 50 195.75 50 202.5 44 c 0,76,77
 207.75 40 207.75 40 221.625 37.5 c 128,-1,78
 235.5 35 235.5 35 251.25 34 c 128,-1,79
 267 33 267 33 282 32.5 c 128,-1,80
 297 32 297 32 303 32 c 2,81,-1
 325.5 32 l 2,82,83
 334.5 32 334.5 32 346.125 33 c 128,-1,84
 357.75 34 357.75 34 368.625 35.5 c 128,-1,85
 379.5 37 379.5 37 388.875 40 c 128,-1,86
 398.25 43 398.25 43 405 48 c 0,87,88
 416.25 57 416.25 57 428.25 76.5 c 128,-1,89
 440.25 96 440.25 96 451.125 115.5 c 128,-1,90
 462 135 462 135 471.375 150 c 128,-1,91
 480.75 165 480.75 165 486.75 165 c 0,92,93
 495 165 495 165 494.625 156.5 c 128,-1,94
 494.25 148 494.25 148 489.75 140 c 0,95,96
 489.75 139 489.75 139 486.75 130 c 128,-1,97
 483.75 121 483.75 121 483 119 c 0,98,99
 481.5 116 481.5 116 475.875 98 c 128,-1,100
 470.25 80 470.25 80 463.125 60 c 128,-1,101
 456 40 456 40 450.75 23.5 c 128,-1,102
 445.5 7 445.5 7 445.5 7 c 1,103,104
 438 -5 438 -5 425.25 -5 c 2,105,-1
 88.5 -5 l 2,106,107
 78.75 -5 78.75 -5 68.25 -6 c 128,-1,108
 57.75 -7 57.75 -7 46.5 -7 c 0,109,110
 39 -7 39 -7 31.5 -6 c 128,-1,111
 24 -5 24 -5 26.25 10 c 0,112,113
 27.75 18 27.75 18 37.125 22.5 c 128,-1,114
 46.5 27 46.5 27 59.625 31 c 128,-1,115
 72.75 35 72.75 35 86.25 41.5 c 128,-1,116
 99.75 48 99.75 48 108 61 c 0,117,118
 115.5 73 115.5 73 123 101 c 128,-1,119
 130.5 129 130.5 129 135.75 162 c 0,120,121
 141.75 196 141.75 196 147 230 c 128,-1,122
 152.25 264 152.25 264 156.75 290 c 0,123,124
 171 373 171 373 184.5 455 c 128,-1,125
 198 537 198 537 213 620 c 2,126,-1
 216 638 l 2,127,128
 216.75 643 216.75 643 217.5 647 c 256,129,130
 218.25 651 218.25 651 218.25 656 c 0,131,132
 221.25 683 221.25 683 210.75 691.5 c 128,-1,133
 200.25 700 200.25 700 186.75 703 c 128,-1,134
 173.25 706 173.25 706 163.125 708.5 c 128,-1,135
 153 711 153 711 155.25 724 c 0,136,137
 156.75 733 156.75 733 163.125 736.5 c 128,-1,138
 169.5 740 169.5 740 178.125 741.5 c 128,-1,139
 186.75 743 186.75 743 195.75 742.5 c 128,-1,140
 204.75 742 204.75 742 211.5 742 c 0,141,142
 236.25 742 236.25 742 260.25 740.5 c 128,-1,143
 284.25 739 284.25 739 309 739 c 0,144,145
 358.5 739 358.5 739 406.125 740.5 c 128,-1,146
 453.75 742 453.75 742 503.25 742 c 2,147,-1
 510.75 742 l 2,148,149
 518.25 742 518.25 742 526.125 740 c 128,-1,150
 534 738 534 738 534 730 c 0,151,152
 533.25 710 533.25 710 530.25 692 c 0,153,154
 528.75 683 528.75 683 525.75 670 c 128,-1,155
 522.75 657 522.75 657 519.75 639 c 0,156,157
 516 619 516 619 511.5 601 c 128,-1,158
 507 583 507 583 501 582 c 0,0,1
EndSplineSet
Substitution2: "'c2sc' Versalien in Kapit+AOQA-lchen in Lateinisch Nachschlagetabelle 0 Subtabelle" uni1D07
EndChar

StartChar: F
Encoding: 70 70 55
Width: 432
Flags: W
LayerCount: 2
Fore
SplineSet
153 720 m 0,0,1
 153.75 726 153.75 726 156 730 c 128,-1,2
 158.25 734 158.25 734 163.875 736.5 c 128,-1,3
 169.5 739 169.5 739 180 739.5 c 128,-1,4
 190.5 740 190.5 740 209.25 740 c 0,5,6
 226.5 740 226.5 740 241.5 739.5 c 128,-1,7
 256.5 739 256.5 739 262.5 739 c 2,8,-1
 373.5 739 l 2,9,10
 406.5 739 406.5 739 438.75 739.5 c 128,-1,11
 471 740 471 740 503.25 740 c 2,12,-1
 519 740 l 2,13,14
 524.25 740 524.25 740 528.75 739.5 c 128,-1,15
 533.25 739 533.25 739 534.75 739 c 0,16,17
 537.75 738 537.75 738 536.625 722.5 c 128,-1,18
 535.5 707 535.5 707 532.5 687 c 128,-1,19
 529.5 667 529.5 667 525.375 647.5 c 128,-1,20
 521.25 628 521.25 628 519.75 620 c 0,21,22
 519 614 519 614 517.5 606 c 256,23,24
 516 599 516 599 514.5 593 c 128,-1,25
 513 587 513 587 510.375 583 c 128,-1,26
 507.75 579 507.75 579 503.25 579 c 0,27,28
 492.75 579 492.75 579 492 593 c 128,-1,29
 491.25 607 491.25 607 492 626 c 128,-1,30
 492.75 645 492.75 645 490.125 664 c 128,-1,31
 487.5 683 487.5 683 473.25 691 c 0,32,33
 467.25 695 467.25 695 454.5 697 c 128,-1,34
 441.75 699 441.75 699 428.25 700.5 c 128,-1,35
 414.75 702 414.75 702 401.625 702.5 c 128,-1,36
 388.5 703 388.5 703 380.25 703 c 2,37,-1
 364.5 703 l 2,38,39
 350.25 703 350.25 703 333 700 c 128,-1,40
 315.75 697 315.75 697 308.25 691 c 0,41,42
 293.25 679 293.25 679 288 661 c 128,-1,43
 282.75 643 282.75 643 279.75 623 c 0,44,45
 272.25 577 272.25 577 264.375 530.5 c 128,-1,46
 256.5 484 256.5 484 248.25 438 c 0,47,48
 245.25 422 245.25 422 247.125 414.5 c 128,-1,49
 249 407 249 407 253.875 404 c 128,-1,50
 258.75 401 258.75 401 265.875 401.5 c 128,-1,51
 273 402 273 402 280.5 402 c 2,52,-1
 306.75 402 l 2,53,54
 318.75 402 318.75 402 332.25 402.5 c 128,-1,55
 345.75 403 345.75 403 358.875 406 c 128,-1,56
 372 409 372 409 382.125 413 c 128,-1,57
 392.25 417 392.25 417 398.25 424 c 0,58,59
 407.25 434 407.25 434 412.875 448.5 c 128,-1,60
 418.5 463 418.5 463 423 475 c 128,-1,61
 427.5 487 427.5 487 432.75 496 c 128,-1,62
 438 505 438 505 446.25 505 c 0,63,64
 451.5 505 451.5 505 450.75 495.5 c 128,-1,65
 450 486 450 486 449.25 481 c 0,66,67
 445.5 458 445.5 458 441 437 c 128,-1,68
 436.5 416 436.5 416 432.75 393 c 256,69,70
 429 370 429 370 426 349 c 128,-1,71
 423 328 423 328 419.25 305 c 0,72,73
 418.5 299 418.5 299 417.375 291.5 c 128,-1,74
 416.25 284 416.25 284 414 276 c 128,-1,75
 411.75 268 411.75 268 408.375 263 c 128,-1,76
 405 258 405 258 400.5 258 c 0,77,78
 393.75 258 393.75 258 392.625 272.5 c 128,-1,79
 391.5 287 391.5 287 391.125 305 c 128,-1,80
 390.75 323 390.75 323 386.625 340 c 128,-1,81
 382.5 357 382.5 357 367.5 364 c 0,82,83
 358.5 369 358.5 369 339 370.5 c 128,-1,84
 319.5 372 319.5 372 303 372 c 2,85,-1
 284.25 372 l 2,86,87
 279 372 279 372 271.125 372.5 c 128,-1,88
 263.25 373 263.25 373 255.75 371.5 c 128,-1,89
 248.25 370 248.25 370 241.5 364.5 c 128,-1,90
 234.75 359 234.75 359 233.25 349 c 0,91,92
 225.75 303 225.75 303 217.125 258 c 128,-1,93
 208.5 213 208.5 213 200.25 167 c 2,94,-1
 196.5 145 l 2,95,96
 195 135 195 135 192.75 122 c 0,97,98
 190.5 110 190.5 110 189.375 98 c 128,-1,99
 188.25 86 188.25 86 186.75 77 c 128,-1,100
 185.25 68 185.25 68 186.75 65 c 0,101,102
 189.75 46 189.75 46 202.5 39.5 c 128,-1,103
 215.25 33 215.25 33 229.125 31 c 128,-1,104
 243 29 243 29 253.125 25.5 c 128,-1,105
 263.25 22 263.25 22 260.25 7 c 0,106,107
 258.75 -2 258.75 -2 251.625 -5.5 c 128,-1,108
 244.5 -9 244.5 -9 237 -9 c 2,109,-1
 229.5 -9 l 2,110,111
 203.25 -9 203.25 -9 177.75 -5.5 c 128,-1,112
 152.25 -2 152.25 -2 125.25 -2 c 0,113,114
 104.25 -2 104.25 -2 84.375 -5.5 c 128,-1,115
 64.5 -9 64.5 -9 44.25 -9 c 0,116,117
 39 -9 39 -9 31.125 -7.5 c 128,-1,118
 23.25 -6 23.25 -6 25.5 5 c 0,119,120
 27 13 27 13 34.125 18 c 128,-1,121
 41.25 23 41.25 23 50.25 25 c 128,-1,122
 59.25 27 59.25 27 68.25 28.5 c 128,-1,123
 77.25 30 77.25 30 82.5 32 c 0,124,125
 99 36 99 36 107.25 56 c 0,126,127
 110.25 62 110.25 62 115.125 78.5 c 128,-1,128
 120 95 120 95 124.125 116 c 128,-1,129
 128.25 137 128.25 137 132.375 159 c 128,-1,130
 136.5 181 136.5 181 139.5 200 c 2,131,-1
 147 238 l 2,132,133
 165 340 165 340 180.75 439.5 c 128,-1,134
 196.5 539 196.5 539 214.5 641 c 0,135,136
 219 666 219 666 215.25 678.5 c 128,-1,137
 211.5 691 211.5 691 204 696.5 c 128,-1,138
 196.5 702 196.5 702 187.5 703.5 c 128,-1,139
 178.5 705 178.5 705 169.875 705.5 c 128,-1,140
 161.25 706 161.25 706 156.375 708.5 c 128,-1,141
 151.5 711 151.5 711 153 720 c 0,0,1
EndSplineSet
Substitution2: "'c2sc' Versalien in Kapit+AOQA-lchen in Lateinisch Nachschlagetabelle 0 Subtabelle" uniA730
EndChar

StartChar: G
Encoding: 71 71 56
Width: 573
Flags: W
LayerCount: 2
Fore
SplineSet
607.5 757 m 0,0,1
 612.75 757 612.75 757 612 746.5 c 128,-1,2
 611.25 736 611.25 736 609 722 c 256,3,4
 606.75 708 606.75 708 603 692.5 c 128,-1,5
 599.25 677 599.25 677 597.75 666 c 0,6,7
 593.25 639 593.25 639 587.625 612.5 c 128,-1,8
 582 586 582 586 576 559 c 0,9,10
 573 550 573 550 570.375 547 c 128,-1,11
 567.75 544 567.75 544 564.75 544 c 256,12,13
 561.75 544 561.75 544 559.125 545 c 128,-1,14
 556.5 546 556.5 546 555 546 c 0,15,16
 550.5 546 550.5 546 548.625 554 c 128,-1,17
 546.75 562 546.75 562 546.375 574.5 c 128,-1,18
 546 587 546 587 546.375 600.5 c 128,-1,19
 546.75 614 546.75 614 546 626 c 0,20,21
 543 648 543 648 532.5 665 c 128,-1,22
 522 682 522 682 506.25 694.5 c 128,-1,23
 490.5 707 490.5 707 471.75 713.5 c 128,-1,24
 453 720 453 720 434.25 720 c 0,25,26
 381 720 381 720 341.25 691 c 128,-1,27
 301.5 662 301.5 662 272.625 613.5 c 128,-1,28
 243.75 565 243.75 565 224.25 503 c 128,-1,29
 204.75 441 204.75 441 193.5 377 c 0,30,31
 182.25 309 182.25 309 180.75 247 c 128,-1,32
 179.25 185 179.25 185 191.625 137.5 c 128,-1,33
 204 90 204 90 231.375 62 c 128,-1,34
 258.75 34 258.75 34 306 34 c 0,35,36
 352.5 34 352.5 34 381 45.5 c 128,-1,37
 409.5 57 409.5 57 425.25 79 c 128,-1,38
 441 101 441 101 448.5 133.5 c 128,-1,39
 456 166 456 166 463.5 208 c 0,40,41
 473.25 264 473.25 264 477.375 296 c 128,-1,42
 481.5 328 481.5 328 478.5 343.5 c 128,-1,43
 475.5 359 475.5 359 464.625 363 c 128,-1,44
 453.75 367 453.75 367 434.25 367 c 0,45,46
 425.25 367 425.25 367 417.75 369 c 128,-1,47
 410.25 371 410.25 371 413.25 388 c 0,48,49
 414.75 395 414.75 395 419.25 398.5 c 128,-1,50
 423.75 402 423.75 402 429.375 404 c 128,-1,51
 435 406 435 406 440.625 406.5 c 128,-1,52
 446.25 407 446.25 407 449.25 407 c 0,53,54
 471 407 471 407 485.25 404.5 c 128,-1,55
 499.5 402 499.5 402 520.5 402 c 0,56,57
 544.5 402 544.5 402 562.5 405 c 128,-1,58
 580.5 408 580.5 408 603.75 408 c 0,59,60
 611.25 408 611.25 408 620.25 405.5 c 128,-1,61
 629.25 403 629.25 403 627 389 c 0,62,63
 625.5 379 625.5 379 618.375 376.5 c 128,-1,64
 611.25 374 611.25 374 602.25 373.5 c 128,-1,65
 593.25 373 593.25 373 582.75 371 c 128,-1,66
 572.25 369 572.25 369 563.25 359 c 0,67,68
 560.25 357 560.25 357 556.125 349 c 128,-1,69
 552 341 552 341 549 329 c 128,-1,70
 546 317 546 317 543 304 c 128,-1,71
 540 291 540 291 538.5 280 c 2,72,-1
 534.75 259 l 2,73,74
 532.5 246 532.5 246 528.75 223.5 c 128,-1,75
 525 201 525 201 521.25 177 c 128,-1,76
 517.5 153 517.5 153 514.125 130.5 c 128,-1,77
 510.75 108 510.75 108 508.5 94 c 0,78,79
 507 87 507 87 505.125 77 c 128,-1,80
 503.25 67 503.25 67 498.75 61 c 0,81,82
 481.5 37 481.5 37 453.75 24.5 c 128,-1,83
 426 12 426 12 396 5.5 c 128,-1,84
 366 -1 366 -1 338.25 -2.5 c 128,-1,85
 310.5 -4 310.5 -4 294 -4 c 0,86,87
 237.75 -4 237.75 -4 195 18 c 128,-1,88
 152.25 40 152.25 40 126.75 85 c 128,-1,89
 101.25 130 101.25 130 94.875 198.5 c 128,-1,90
 88.5 267 88.5 267 104.25 359 c 0,91,92
 120.75 452 120.75 452 153 526 c 128,-1,93
 185.25 600 185.25 600 229.875 651.5 c 128,-1,94
 274.5 703 274.5 703 329.25 730.5 c 128,-1,95
 384 758 384 758 445.5 758 c 0,96,97
 476.25 758 476.25 758 508.125 745.5 c 128,-1,98
 540 733 540 733 561 710 c 0,99,100
 564.75 705 564.75 705 570 711.5 c 128,-1,101
 575.25 718 575.25 718 581.25 728 c 128,-1,102
 587.25 738 587.25 738 594.375 747.5 c 128,-1,103
 601.5 757 601.5 757 607.5 757 c 0,0,1
EndSplineSet
Substitution2: "'c2sc' Versalien in Kapit+AOQA-lchen in Lateinisch Nachschlagetabelle 0 Subtabelle" uni0262
EndChar

StartChar: H
Encoding: 72 72 57
Width: 616
Flags: W
LayerCount: 2
Fore
SplineSet
715.5 715 m 0,0,1
 712.5 709 712.5 709 703.5 707.5 c 128,-1,2
 694.5 706 694.5 706 683.25 704.5 c 128,-1,3
 672 703 672 703 661.125 700 c 128,-1,4
 650.25 697 650.25 697 643.5 688 c 0,5,6
 636 679 636 679 631.875 663.5 c 128,-1,7
 627.75 648 627.75 648 624.75 631 c 2,8,-1
 621 613 l 2,9,10
 598.5 484 598.5 484 576 357.5 c 128,-1,11
 553.5 231 553.5 231 531.75 102 c 0,12,13
 527.25 76 527.25 76 530.625 62.5 c 128,-1,14
 534 49 534 49 541.125 42.5 c 128,-1,15
 548.25 36 548.25 36 558 34 c 128,-1,16
 567.75 32 567.75 32 576 30 c 128,-1,17
 584.25 28 584.25 28 589.5 23.5 c 128,-1,18
 594.75 19 594.75 19 592.5 8 c 0,19,20
 590.25 -7 590.25 -7 582.375 -8 c 128,-1,21
 574.5 -9 574.5 -9 566.25 -9 c 0,22,23
 542.25 -9 542.25 -9 518.625 -6 c 128,-1,24
 495 -3 495 -3 471.75 -3 c 0,25,26
 448.5 -3 448.5 -3 425.25 -6 c 128,-1,27
 402 -9 402 -9 378.75 -9 c 0,28,29
 363.75 -9 363.75 -9 366 7 c 0,30,31
 368.25 22 368.25 22 376.5 25.5 c 128,-1,32
 384.75 29 384.75 29 395.25 29 c 256,33,34
 405.75 29 405.75 29 418.125 31.5 c 128,-1,35
 430.5 34 430.5 34 441.75 48 c 256,36,37
 451.5 62 451.5 62 457.125 83.5 c 128,-1,38
 462.75 105 462.75 105 466.5 123 c 2,39,-1
 498.75 309 l 2,40,41
 501 324 501 324 498 331 c 128,-1,42
 495 338 495 338 489 340 c 128,-1,43
 483 342 483 342 475.5 341.5 c 128,-1,44
 468 341 468 341 461.25 341 c 2,45,-1
 287.25 341 l 2,46,47
 279 341 279 341 268.875 341.5 c 128,-1,48
 258.75 342 258.75 342 250.125 339.5 c 128,-1,49
 241.5 337 241.5 337 234.75 330.5 c 128,-1,50
 228 324 228 324 225.75 308 c 2,51,-1
 191.25 108 l 2,52,53
 187.5 88 187.5 88 187.125 84 c 128,-1,54
 186.75 80 186.75 80 186.75 77 c 0,55,56
 184.5 49 184.5 49 194.625 40.5 c 128,-1,57
 204.75 32 204.75 32 217.875 30 c 128,-1,58
 231 28 231 28 241.875 26.5 c 128,-1,59
 252.75 25 252.75 25 250.5 10 c 0,60,61
 248.25 -5 248.25 -5 240 -6.5 c 128,-1,62
 231.75 -8 231.75 -8 222.75 -8 c 0,63,64
 204 -8 204 -8 185.25 -5.5 c 128,-1,65
 166.5 -3 166.5 -3 148.5 -3 c 2,66,-1
 120.75 -3 l 2,67,68
 101.25 -3 101.25 -3 82.125 -6 c 128,-1,69
 63 -9 63 -9 44.25 -9 c 0,70,71
 39 -9 39 -9 31.125 -8 c 128,-1,72
 23.25 -7 23.25 -7 25.5 4 c 0,73,74
 27.75 19 27.75 19 39.75 23 c 128,-1,75
 51.75 27 51.75 27 65.25 30 c 128,-1,76
 78.75 33 78.75 33 93 42.5 c 128,-1,77
 107.25 52 107.25 52 115.5 80 c 0,78,79
 121.5 103 121.5 103 126 126.5 c 128,-1,80
 130.5 150 130.5 150 134.25 172 c 2,81,-1
 212.25 622 l 2,82,83
 217.5 653 217.5 653 215.25 669 c 128,-1,84
 213 685 213 685 205.5 692.5 c 128,-1,85
 198 700 198 700 189 702.5 c 128,-1,86
 180 705 180 705 171.75 706.5 c 128,-1,87
 163.5 708 163.5 708 158.625 711.5 c 128,-1,88
 153.75 715 153.75 715 156 727 c 0,89,90
 157.5 736 157.5 736 164.625 738.5 c 128,-1,91
 171.75 741 171.75 741 179.25 741 c 2,92,-1
 187.5 741 l 2,93,94
 206.25 741 206.25 741 223.875 739.5 c 128,-1,95
 241.5 738 241.5 738 259.5 738 c 0,96,97
 285 738 285 738 311.625 739 c 128,-1,98
 338.25 740 338.25 740 363 740 c 0,99,100
 367.5 740 367.5 740 371.25 737 c 128,-1,101
 375 734 375 734 374.25 727 c 0,102,103
 370.5 707 370.5 707 358.5 704 c 128,-1,104
 346.5 701 346.5 701 332.25 701 c 0,105,106
 325.5 701 325.5 701 318.75 699 c 128,-1,107
 312 697 312 697 305.25 691.5 c 128,-1,108
 298.5 686 298.5 686 293.625 675.5 c 128,-1,109
 288.75 665 288.75 665 285.75 647 c 0,110,111
 283.5 633 283.5 633 280.875 618.5 c 128,-1,112
 278.25 604 278.25 604 275.25 590 c 2,113,-1
 245.25 416 l 2,114,115
 240.75 387 240.75 387 258.75 387 c 0,116,117
 288.75 387 288.75 387 311.625 386.5 c 128,-1,118
 334.5 386 334.5 386 357 386 c 256,119,120
 379.5 386 379.5 386 402.375 385.5 c 128,-1,121
 425.25 385 425.25 385 455.25 385 c 0,122,123
 462 385 462 385 471 384.5 c 128,-1,124
 480 384 480 384 489 384.5 c 128,-1,125
 498 385 498 385 504.375 387.5 c 128,-1,126
 510.75 390 510.75 390 513 396 c 0,127,128
 514.5 399 514.5 399 517.5 415 c 128,-1,129
 520.5 431 520.5 431 524.25 454 c 0,130,131
 528 478 528 478 533.25 503.5 c 128,-1,132
 538.5 529 538.5 529 542.25 553 c 2,133,-1
 553.5 620 l 2,134,135
 555 627 555 627 556.125 636.5 c 128,-1,136
 557.25 646 557.25 646 558 656 c 128,-1,137
 558.75 666 558.75 666 558 674.5 c 128,-1,138
 557.25 683 557.25 683 554.25 688 c 0,139,140
 550.5 692 550.5 692 544.875 694.5 c 128,-1,141
 539.25 697 539.25 697 531.75 698 c 128,-1,142
 524.25 699 524.25 699 519 700.5 c 128,-1,143
 513.75 702 513.75 702 512.25 706 c 0,144,145
 505.5 706 505.5 706 501.375 708 c 128,-1,146
 497.25 710 497.25 710 498.75 722 c 0,147,148
 500.25 730 500.25 730 503.625 733.5 c 128,-1,149
 507 737 507 737 512.25 738.5 c 128,-1,150
 517.5 740 517.5 740 523.125 739.5 c 128,-1,151
 528.75 739 528.75 739 534 739 c 0,152,153
 552.75 739 552.75 739 570 736.5 c 128,-1,154
 587.25 734 587.25 734 605.25 734 c 0,155,156
 627.75 734 627.75 734 649.875 736 c 128,-1,157
 672 738 672 738 694.5 738 c 0,158,159
 711 738 711 738 714.375 734 c 128,-1,160
 717.75 730 717.75 730 715.5 715 c 0,0,1
EndSplineSet
Substitution2: "'c2sc' Versalien in Kapit+AOQA-lchen in Lateinisch Nachschlagetabelle 0 Subtabelle" uni029C
EndChar

StartChar: I
Encoding: 73 73 58
Width: 269
Flags: W
LayerCount: 2
Fore
SplineSet
371.25 723 m 0,0,1
 369 709 369 709 360.75 705.5 c 128,-1,2
 352.5 702 352.5 702 342.75 702 c 0,3,4
 323.25 702 323.25 702 311.625 698 c 128,-1,5
 300 694 300 694 293.625 685 c 128,-1,6
 287.25 676 287.25 676 284.25 662.5 c 128,-1,7
 281.25 649 281.25 649 278.25 631 c 0,8,9
 267 566 267 566 255 502.5 c 128,-1,10
 243 439 243 439 231 375 c 2,11,-1
 186.75 114 l 2,12,13
 183.75 98 183.75 98 181.875 77 c 128,-1,14
 180 56 180 56 186.75 45 c 0,15,16
 192 37 192 37 202.5 34 c 128,-1,17
 213 31 213 31 222.75 28.5 c 128,-1,18
 232.5 26 232.5 26 240 22.5 c 128,-1,19
 247.5 19 247.5 19 246 10 c 0,20,21
 243.75 -5 243.75 -5 232.875 -6.5 c 128,-1,22
 222 -8 222 -8 211.5 -8 c 0,23,24
 191.25 -8 191.25 -8 171.75 -5 c 128,-1,25
 152.25 -2 152.25 -2 132 -2 c 0,26,27
 110.25 -2 110.25 -2 92.625 -5.5 c 128,-1,28
 75 -9 75 -9 54 -9 c 2,29,-1
 43.5 -9 l 2,30,31
 36.75 -9 36.75 -9 30.375 -5.5 c 128,-1,32
 24 -2 24 -2 26.25 10 c 0,33,34
 27.75 19 27.75 19 35.25 23 c 128,-1,35
 42.75 27 42.75 27 53.25 29.5 c 128,-1,36
 63.75 32 63.75 32 75 35.5 c 128,-1,37
 86.25 39 86.25 39 95.25 48 c 0,38,39
 103.5 56 103.5 56 109.125 77 c 128,-1,40
 114.75 98 114.75 98 117.75 118 c 2,41,-1
 121.5 139 l 1,42,-1
 184.5 498 l 2,43,44
 189 525 189 525 193.5 550 c 128,-1,45
 198 575 198 575 202.5 601 c 2,46,-1
 205.5 621 l 2,47,48
 208.5 638 208.5 638 210.375 658.5 c 128,-1,49
 212.25 679 212.25 679 209.25 687 c 0,50,51
 203.25 698 203.25 698 193.125 700.5 c 128,-1,52
 183 703 183 703 172.875 704.5 c 128,-1,53
 162.75 706 162.75 706 156.75 710 c 128,-1,54
 150.75 714 150.75 714 153.75 728 c 0,55,56
 155.25 738 155.25 738 162 739.5 c 128,-1,57
 168.75 741 168.75 741 174.75 741 c 2,58,-1
 183 741 l 2,59,60
 204 741 204 741 224.625 738 c 128,-1,61
 245.25 735 245.25 735 264.75 735 c 0,62,63
 274.5 735 274.5 735 285.75 736.5 c 128,-1,64
 297 738 297 738 307.5 738 c 2,65,-1
 369.75 738 l 2,66,67
 370.5 736 370.5 736 371.25 731 c 128,-1,68
 372 726 372 726 371.25 723 c 0,0,1
EndSplineSet
Substitution2: "'c2sc' Versalien in Kapit+AOQA-lchen in Lateinisch Nachschlagetabelle 0 Subtabelle" uni026A
EndChar

StartChar: J
Encoding: 74 74 59
Width: 253
Flags: W
LayerCount: 2
Fore
SplineSet
363.75 721 m 0,0,1
 363 716 363 716 358.125 711.5 c 128,-1,2
 353.25 707 353.25 707 339 705 c 0,3,4
 309 706 309 706 295.125 687.5 c 128,-1,5
 281.25 669 281.25 669 274.5 626 c 0,6,7
 272.25 615 272.25 615 270.375 604 c 128,-1,8
 268.5 593 268.5 593 267 582 c 0,9,10
 246 464 246 464 225.75 348.5 c 128,-1,11
 205.5 233 205.5 233 186 116 c 0,12,13
 176.25 59 176.25 59 158.625 -1 c 128,-1,14
 141 -61 141 -61 115.5 -113 c 128,-1,15
 90 -165 90 -165 54.375 -203 c 128,-1,16
 18.75 -241 18.75 -241 -29.25 -255 c 0,17,18
 -33.75 -256 -33.75 -256 -35.25 -251 c 128,-1,19
 -36.75 -246 -36.75 -246 -36 -239 c 256,20,21
 -34.5 -232 -34.5 -232 -31.125 -225 c 128,-1,22
 -27.75 -218 -27.75 -218 -23.25 -217 c 0,23,24
 -2.25 -214 -2.25 -214 15 -192.5 c 128,-1,25
 32.25 -171 32.25 -171 46.875 -139.5 c 128,-1,26
 61.5 -108 61.5 -108 72.75 -70 c 128,-1,27
 84 -32 84 -32 92.25 5 c 128,-1,28
 100.5 42 100.5 42 106.875 72.5 c 128,-1,29
 113.25 103 113.25 103 117 121 c 0,30,31
 128.25 182 128.25 182 139.125 243.5 c 128,-1,32
 150 305 150 305 160.5 367 c 2,33,-1
 203.25 616 l 2,34,35
 207 640 207 640 210 665 c 0,36,37
 212.25 689 212.25 689 201 694.5 c 128,-1,38
 189.75 700 189.75 700 175.125 701 c 128,-1,39
 160.5 702 160.5 702 148.875 705 c 128,-1,40
 137.25 708 137.25 708 140.25 724 c 0,41,42
 141.75 732 141.75 732 147 736 c 128,-1,43
 152.25 740 152.25 740 157.5 740 c 0,44,45
 190.5 740 190.5 740 222.375 737 c 128,-1,46
 254.25 734 254.25 734 287.25 734 c 0,47,48
 302.25 734 302.25 734 318.375 736.5 c 128,-1,49
 334.5 739 334.5 739 351 739 c 0,50,51
 356.25 739 356.25 739 360.75 735 c 128,-1,52
 365.25 731 365.25 731 363.75 721 c 0,0,1
EndSplineSet
Substitution2: "'c2sc' Versalien in Kapit+AOQA-lchen in Lateinisch Nachschlagetabelle 0 Subtabelle" uni1D0A
EndChar

StartChar: K
Encoding: 75 75 60
Width: 570
Flags: W
LayerCount: 2
Fore
SplineSet
284.25 735 m 2,0,1
 300.75 735 300.75 735 316.5 737.5 c 128,-1,2
 332.25 740 332.25 740 349.5 740 c 2,3,-1
 355.5 740 l 2,4,5
 360.75 740 360.75 740 367.125 737 c 128,-1,6
 373.5 734 373.5 734 372 728 c 0,7,8
 369.75 724 369.75 724 367.875 718.5 c 128,-1,9
 366 713 366 713 364.5 710 c 0,10,11
 360 702 360 702 349.125 703.5 c 128,-1,12
 338.25 705 338.25 705 325.875 702.5 c 128,-1,13
 313.5 700 313.5 700 302.625 688 c 128,-1,14
 291.75 676 291.75 676 285 639 c 2,15,-1
 276 585 l 2,16,17
 271.5 560 271.5 560 267.75 537 c 128,-1,18
 264 514 264 514 259.5 489 c 2,19,-1
 250.5 435 l 2,20,21
 250.5 433 250.5 433 248.25 426.5 c 128,-1,22
 246 420 246 420 247.5 419 c 0,23,24
 255 419 255 419 264 425 c 128,-1,25
 273 431 273 431 281.25 439 c 128,-1,26
 289.5 447 289.5 447 297 455.5 c 128,-1,27
 304.5 464 304.5 464 309 469 c 0,28,29
 315 476 315 476 331.125 493.5 c 128,-1,30
 347.25 511 347.25 511 367.5 533 c 128,-1,31
 387.75 555 387.75 555 410.25 579.5 c 128,-1,32
 432.75 604 432.75 604 451.5 626 c 128,-1,33
 470.25 648 470.25 648 482.625 664.5 c 128,-1,34
 495 681 495 681 496.5 687 c 0,35,36
 498 697 498 697 488.25 699 c 128,-1,37
 478.5 701 478.5 701 466.875 701.5 c 128,-1,38
 455.25 702 455.25 702 445.875 704.5 c 128,-1,39
 436.5 707 436.5 707 438 717 c 2,40,-1
 439.5 725 l 1,41,42
 445.5 738 445.5 738 456.375 738.5 c 128,-1,43
 467.25 739 467.25 739 477 739 c 0,44,45
 496.5 739 496.5 739 515.625 737.5 c 128,-1,46
 534.75 736 534.75 736 554.25 736 c 0,47,48
 572.25 736 572.25 736 590.25 737.5 c 128,-1,49
 608.25 739 608.25 739 626.25 739 c 0,50,51
 631.5 739 631.5 739 636 735 c 128,-1,52
 640.5 731 640.5 731 639 722 c 0,53,54
 636.75 711 636.75 711 628.125 706.5 c 128,-1,55
 619.5 702 619.5 702 607.875 700 c 128,-1,56
 596.25 698 596.25 698 583.125 695.5 c 128,-1,57
 570 693 570 693 559.5 686 c 0,58,59
 553.5 682 553.5 682 534 663.5 c 128,-1,60
 514.5 645 514.5 645 489.75 620 c 128,-1,61
 465 595 465 595 436.875 566 c 128,-1,62
 408.75 537 408.75 537 385.125 511 c 128,-1,63
 361.5 485 361.5 485 345 467 c 128,-1,64
 328.5 449 328.5 449 326.25 443 c 0,65,66
 327 438 327 438 336 417.5 c 128,-1,67
 345 397 345 397 357.75 369 c 128,-1,68
 370.5 341 370.5 341 385.5 308.5 c 128,-1,69
 400.5 276 400.5 276 413.625 247.5 c 128,-1,70
 426.75 219 426.75 219 437.625 197 c 128,-1,71
 448.5 175 448.5 175 452.25 168 c 0,72,73
 460.5 149 460.5 149 469.875 126.5 c 128,-1,74
 479.25 104 479.25 104 489.75 85 c 128,-1,75
 500.25 66 500.25 66 512.625 51 c 128,-1,76
 525 36 525 36 542.25 30 c 0,77,78
 551.25 28 551.25 28 559.5 24 c 128,-1,79
 567.75 20 567.75 20 564 4 c 0,80,81
 561.75 -4 561.75 -4 554.625 -5.5 c 128,-1,82
 547.5 -7 547.5 -7 543 -7 c 0,83,84
 519.75 -7 519.75 -7 498.375 -4.5 c 128,-1,85
 477 -2 477 -2 453.75 -2 c 0,86,87
 426.75 -2 426.75 -2 398.625 -4.5 c 128,-1,88
 370.5 -7 370.5 -7 343.5 -7 c 0,89,90
 336.75 -7 336.75 -7 332.625 -4.5 c 128,-1,91
 328.5 -2 328.5 -2 330 10 c 0,92,93
 331.5 20 331.5 20 340.125 25.5 c 128,-1,94
 348.75 31 348.75 31 359.25 33 c 128,-1,95
 369.75 35 369.75 35 378.75 34.5 c 128,-1,96
 387.75 34 387.75 34 391.5 34 c 0,97,98
 396.75 34 396.75 34 403.125 37 c 128,-1,99
 409.5 40 409.5 40 405.75 52 c 0,100,101
 405.75 54 405.75 54 403.125 61 c 128,-1,102
 400.5 68 400.5 68 397.5 76 c 128,-1,103
 394.5 84 394.5 84 391.875 91 c 128,-1,104
 389.25 98 389.25 98 388.5 101 c 0,105,106
 383.25 114 383.25 114 373.125 138 c 128,-1,107
 363 162 363 162 351 190.5 c 128,-1,108
 339 219 339 219 325.5 249 c 128,-1,109
 312 279 312 279 298.875 305 c 128,-1,110
 285.75 331 285.75 331 274.875 350 c 128,-1,111
 264 369 264 369 256.5 375 c 1,112,113
 249 376 249 376 245.625 378 c 128,-1,114
 242.25 380 242.25 380 238.5 372 c 0,115,116
 237 367 237 367 234.375 354 c 128,-1,117
 231.75 341 231.75 341 229.5 327 c 2,118,-1
 222 281 l 2,119,120
 215.25 243 215.25 243 208.125 206 c 128,-1,121
 201 169 201 169 195 131 c 0,122,123
 192.75 116 192.75 116 190.5 97.5 c 128,-1,124
 188.25 79 188.25 79 189.375 63.5 c 128,-1,125
 190.5 48 190.5 48 197.25 39 c 128,-1,126
 204 30 204 30 219.75 32 c 0,127,128
 222 29 222 29 228 29.5 c 128,-1,129
 234 30 234 30 240.75 29.5 c 128,-1,130
 247.5 29 247.5 29 251.625 26.5 c 128,-1,131
 255.75 24 255.75 24 254.25 14 c 0,132,133
 252 3 252 3 244.5 -1.5 c 128,-1,134
 237 -6 237 -6 230.25 -6 c 2,135,-1
 221.25 -6 l 2,136,137
 206.25 -6 206.25 -6 192.375 -3.5 c 128,-1,138
 178.5 -1 178.5 -1 162.75 -1 c 0,139,140
 132.75 -1 132.75 -1 104.25 -4 c 128,-1,141
 75.75 -7 75.75 -7 45.75 -7 c 0,142,143
 39.75 -7 39.75 -7 31.875 -5 c 128,-1,144
 24 -3 24 -3 26.25 8 c 0,145,146
 28.5 20 28.5 20 36 25 c 128,-1,147
 43.5 30 43.5 30 53.625 31.5 c 128,-1,148
 63.75 33 63.75 33 73.875 33.5 c 128,-1,149
 84 34 84 34 90.75 38 c 0,150,151
 97.5 42 97.5 42 102.75 51.5 c 128,-1,152
 108 61 108 61 112.5 72.5 c 128,-1,153
 117 84 117 84 119.625 96 c 128,-1,154
 122.25 108 122.25 108 123.75 117 c 0,155,156
 141.75 219 141.75 219 160.5 320 c 128,-1,157
 179.25 421 179.25 421 196.5 523 c 2,158,-1
 218.25 648 l 2,159,160
 221.25 664 221.25 664 220.875 681 c 128,-1,161
 220.5 698 220.5 698 207 701 c 0,162,163
 200.25 703 200.25 703 191.625 702.5 c 128,-1,164
 183 702 183 702 174.75 704 c 128,-1,165
 166.5 706 166.5 706 162 711 c 128,-1,166
 157.5 716 157.5 716 159.75 728 c 0,167,168
 161.25 736 161.25 736 168.375 738.5 c 128,-1,169
 175.5 741 175.5 741 182.25 741 c 2,170,-1
 189.75 741 l 2,171,172
 208.5 741 208.5 741 226.125 738 c 128,-1,173
 243.75 735 243.75 735 261.75 735 c 2,174,-1
 284.25 735 l 2,0,1
EndSplineSet
Substitution2: "'c2sc' Versalien in Kapit+AOQA-lchen in Lateinisch Nachschlagetabelle 0 Subtabelle" uni1D0B
EndChar

StartChar: L
Encoding: 76 76 61
Width: 446
Flags: W
LayerCount: 2
Fore
SplineSet
274.5 734 m 0,0,1
 300.75 734 300.75 734 325.125 736 c 128,-1,2
 349.5 738 349.5 738 379.5 738 c 1,3,4
 384.75 730 384.75 730 383.25 722 c 0,5,6
 381 710 381 710 372 706 c 128,-1,7
 363 702 363 702 351.375 700.5 c 128,-1,8
 339.75 699 339.75 699 328.125 697.5 c 128,-1,9
 316.5 696 316.5 696 308.25 688 c 0,10,11
 302.25 682 302.25 682 297.75 672 c 128,-1,12
 293.25 662 293.25 662 290.25 650.5 c 128,-1,13
 287.25 639 287.25 639 285 627.5 c 128,-1,14
 282.75 616 282.75 616 281.25 608 c 0,15,16
 264.75 515 264.75 515 248.625 425.5 c 128,-1,17
 232.5 336 232.5 336 216.75 243 c 2,18,-1
 210 204 l 2,19,20
 207 186 207 186 203.25 163.5 c 128,-1,21
 199.5 141 199.5 141 197.625 121 c 128,-1,22
 195.75 101 195.75 101 195.75 85.5 c 128,-1,23
 195.75 70 195.75 70 199.5 63 c 0,24,25
 213.75 44 213.75 44 236.625 40 c 128,-1,26
 259.5 36 259.5 36 282.375 40.5 c 128,-1,27
 305.25 45 305.25 45 324.75 54 c 128,-1,28
 344.25 63 344.25 63 351.75 70 c 0,29,30
 364.5 79 364.5 79 381 102 c 128,-1,31
 397.5 125 397.5 125 412.5 150 c 128,-1,32
 427.5 175 427.5 175 438.75 195 c 128,-1,33
 450 215 450 215 453 218 c 0,34,35
 460.5 225 460.5 225 468 222.5 c 128,-1,36
 475.5 220 475.5 220 477 211 c 1,37,38
 452.25 170 452.25 170 435 129.5 c 128,-1,39
 417.75 89 417.75 89 406.125 57 c 128,-1,40
 394.5 25 394.5 25 387.375 5 c 128,-1,41
 380.25 -15 380.25 -15 375.75 -15 c 0,42,43
 329.25 -15 329.25 -15 280.125 -6 c 128,-1,44
 231 3 231 3 184.5 3 c 0,45,46
 160.5 3 160.5 3 142.875 1 c 128,-1,47
 125.25 -1 125.25 -1 108.75 -3 c 128,-1,48
 92.25 -5 92.25 -5 74.25 -7 c 128,-1,49
 56.25 -9 56.25 -9 33 -9 c 0,50,51
 28.5 -9 28.5 -9 26.625 -4 c 128,-1,52
 24.75 1 24.75 1 25.5 7 c 0,53,54
 27.75 21 27.75 21 35.625 25 c 128,-1,55
 43.5 29 43.5 29 54.375 30 c 128,-1,56
 65.25 31 65.25 31 78 33.5 c 128,-1,57
 90.75 36 90.75 36 102.75 49 c 0,58,59
 113.25 61 113.25 61 121.875 94 c 128,-1,60
 130.5 127 130.5 127 137.25 166 c 0,61,62
 144 206 144 206 150 246.5 c 128,-1,63
 156 287 156 287 160.5 315 c 2,64,-1
 212.25 614 l 2,65,66
 216.75 640 216.75 640 217.5 660 c 0,67,68
 218.25 683 218.25 683 207 690.5 c 128,-1,69
 195.75 698 195.75 698 182.25 700.5 c 128,-1,70
 168.75 703 168.75 703 158.625 706 c 128,-1,71
 148.5 709 148.5 709 150.75 723 c 256,72,73
 153 737 153 737 161.25 739 c 128,-1,74
 169.5 741 169.5 741 178.5 741 c 0,75,76
 204 741 204 741 226.5 737.5 c 128,-1,77
 249 734 249 734 274.5 734 c 0,0,1
EndSplineSet
Substitution2: "'c2sc' Versalien in Kapit+AOQA-lchen in Lateinisch Nachschlagetabelle 0 Subtabelle" uni029F
EndChar

StartChar: M
Encoding: 77 77 62
Width: 713
Flags: W
LayerCount: 2
Fore
SplineSet
808.5 716 m 0,0,1
 807 708 807 708 800.625 703 c 128,-1,2
 794.25 698 794.25 698 785.625 696 c 128,-1,3
 777 694 777 694 769.5 693.5 c 128,-1,4
 762 693 762 693 757.5 693 c 0,5,6
 743.25 693 743.25 693 734.25 685.5 c 128,-1,7
 725.25 678 725.25 678 719.25 665.5 c 128,-1,8
 713.25 653 713.25 653 709.875 637 c 128,-1,9
 706.5 621 706.5 621 703.5 604 c 2,10,-1
 699 579 l 2,11,12
 680.25 462 680.25 462 664.5 351.5 c 128,-1,13
 648.75 241 648.75 241 632.25 120 c 0,14,15
 630 102 630 102 628.5 79 c 128,-1,16
 627 56 627 56 636.75 45 c 0,17,18
 639.75 42 639.75 42 647.625 38.5 c 128,-1,19
 655.5 35 655.5 35 664.875 31.5 c 128,-1,20
 674.25 28 674.25 28 683.25 24 c 128,-1,21
 692.25 20 692.25 20 696.75 16 c 0,22,23
 700.5 13 700.5 13 699 5 c 0,24,25
 697.5 -5 697.5 -5 690 -6.5 c 128,-1,26
 682.5 -8 682.5 -8 675.75 -8 c 2,27,-1
 669 -8 l 2,28,29
 648 -8 648 -8 627.75 -4.5 c 128,-1,30
 607.5 -1 607.5 -1 586.5 -1 c 0,31,32
 563.25 -1 563.25 -1 539.625 -4.5 c 128,-1,33
 516 -8 516 -8 492.75 -8 c 0,34,35
 487.5 -8 487.5 -8 479.25 -6 c 128,-1,36
 471 -4 471 -4 473.25 6 c 0,37,38
 474.75 15 474.75 15 481.125 20 c 128,-1,39
 487.5 25 487.5 25 492 29 c 1,40,41
 511.5 29 511.5 29 524.25 34 c 128,-1,42
 537 39 537 39 544.5 50 c 128,-1,43
 552 61 552 61 557.25 79 c 128,-1,44
 562.5 97 562.5 97 567 124 c 2,45,-1
 616.5 465 l 2,46,47
 620.25 492 620.25 492 623.625 513.5 c 128,-1,48
 627 535 627 535 630 549 c 0,49,50
 635.25 580 635.25 580 630 585 c 1,51,52
 627 582 627 582 622.125 574 c 128,-1,53
 617.25 566 617.25 566 613.125 557 c 128,-1,54
 609 548 609 548 604.875 539 c 128,-1,55
 600.75 530 600.75 530 598.5 526 c 0,56,57
 546.75 420 546.75 420 498 320.5 c 128,-1,58
 449.25 221 449.25 221 400.5 114 c 0,59,60
 395.25 102 395.25 102 386.25 81.5 c 128,-1,61
 377.25 61 377.25 61 367.875 43 c 128,-1,62
 358.5 25 358.5 25 350.625 11 c 128,-1,63
 342.75 -3 342.75 -3 338.25 -3 c 0,64,65
 330.75 -3 330.75 -3 328.875 11.5 c 128,-1,66
 327 26 327 26 327 34 c 0,67,68
 320.25 130 320.25 130 310.125 223 c 128,-1,69
 300 316 300 316 285.75 409 c 0,70,71
 284.25 418 284.25 418 281.25 446.5 c 128,-1,72
 278.25 475 278.25 475 273.75 507 c 128,-1,73
 269.25 539 269.25 539 265.125 563.5 c 128,-1,74
 261 588 261 588 258 588 c 0,75,76
 256.5 588 256.5 588 250.125 557.5 c 128,-1,77
 243.75 527 243.75 527 234.375 479 c 128,-1,78
 225 431 225 431 213.75 372 c 128,-1,79
 202.5 313 202.5 313 192.75 257 c 128,-1,80
 183 201 183 201 174 152.5 c 128,-1,81
 165 104 165 104 161.25 79 c 0,82,83
 158.25 62 158.25 62 162.375 52.5 c 128,-1,84
 166.5 43 166.5 43 174.75 38 c 128,-1,85
 183 33 183 33 193.125 31 c 128,-1,86
 203.25 29 203.25 29 212.25 27 c 128,-1,87
 221.25 25 221.25 25 226.125 20 c 128,-1,88
 231 15 231 15 229.5 5 c 0,89,90
 227.25 -6 227.25 -6 218.625 -7 c 128,-1,91
 210 -8 210 -8 204 -8 c 0,92,93
 185.25 -8 185.25 -8 168 -6 c 128,-1,94
 150.75 -4 150.75 -4 131.25 -4 c 0,95,96
 108 -4 108 -4 85.5 -6 c 128,-1,97
 63 -8 63 -8 39.75 -8 c 0,98,99
 35.25 -8 35.25 -8 28.125 -5.5 c 128,-1,100
 21 -3 21 -3 21.75 5 c 0,101,102
 24.75 21 24.75 21 35.25 25 c 128,-1,103
 45.75 29 45.75 29 58.875 31.5 c 128,-1,104
 72 34 72 34 85.875 39.5 c 128,-1,105
 99.75 45 99.75 45 109.5 66 c 0,106,107
 116.25 81 116.25 81 121.5 99.5 c 128,-1,108
 126.75 118 126.75 118 131.25 135 c 0,109,110
 159.75 256 159.75 256 187.875 379 c 128,-1,111
 216 502 216 502 236.25 623 c 0,112,113
 242.25 659 242.25 659 234 676 c 128,-1,114
 225.75 693 225.75 693 200.25 700 c 0,115,116
 197.25 701 197.25 701 190.5 703.5 c 128,-1,117
 183.75 706 183.75 706 176.625 708.5 c 128,-1,118
 169.5 711 169.5 711 164.625 715 c 128,-1,119
 159.75 719 159.75 719 160.5 725 c 0,120,121
 162.75 736 162.75 736 171 737.5 c 128,-1,122
 179.25 739 179.25 739 184.5 739 c 0,123,124
 196.5 739 196.5 739 207.375 737 c 128,-1,125
 218.25 735 218.25 735 230.25 735 c 0,126,127
 249 735 249 735 267 737 c 128,-1,128
 285 739 285 739 303 739 c 0,129,130
 308.25 739 308.25 739 312 738.5 c 128,-1,131
 315.75 738 315.75 738 318 731 c 0,132,133
 327 704 327 704 329.25 671 c 128,-1,134
 331.5 638 331.5 638 335.25 607 c 0,135,136
 344.25 535 344.25 535 353.625 464.5 c 128,-1,137
 363 394 363 394 372.75 321 c 0,138,139
 375 304 375 304 376.875 280 c 128,-1,140
 378.75 256 378.75 256 381.375 234 c 128,-1,141
 384 212 384 212 386.625 196.5 c 128,-1,142
 389.25 181 389.25 181 393 181 c 256,143,144
 396.75 181 396.75 181 401.25 189.5 c 128,-1,145
 405.75 198 405.75 198 408.75 205 c 0,146,147
 470.25 326 470.25 326 527.25 449 c 128,-1,148
 584.25 572 584.25 572 645.75 693 c 0,149,150
 658.5 720 658.5 720 665.25 727.5 c 128,-1,151
 672 735 672 735 679.5 735 c 2,152,-1
 695.25 735 l 2,153,154
 708 735 708 735 713.625 734 c 128,-1,155
 719.25 733 719.25 733 730.5 733 c 0,156,157
 745.5 733 745.5 733 760.875 734 c 128,-1,158
 776.25 735 776.25 735 792 735 c 0,159,160
 797.25 735 797.25 735 804.375 731.5 c 128,-1,161
 811.5 728 811.5 728 808.5 716 c 0,0,1
EndSplineSet
Substitution2: "'c2sc' Versalien in Kapit+AOQA-lchen in Lateinisch Nachschlagetabelle 0 Subtabelle" uni1D0D
EndChar

StartChar: N
Encoding: 78 78 63
Width: 642
Flags: W
LayerCount: 2
Fore
SplineSet
132 -4 m 0,0,1
 108 -4 108 -4 84.375 -6 c 128,-1,2
 60.75 -8 60.75 -8 36 -8 c 0,3,4
 30.75 -8 30.75 -8 24 -5 c 128,-1,5
 17.25 -2 17.25 -2 18.75 9 c 0,6,7
 20.25 18 20.25 18 26.25 22.5 c 128,-1,8
 32.25 27 32.25 27 40.5 28.5 c 128,-1,9
 48.75 30 48.75 30 57.375 30.5 c 128,-1,10
 66 31 66 31 71.25 32 c 0,11,12
 84 35 84 35 92.625 44 c 128,-1,13
 101.25 53 101.25 53 106.875 66.5 c 128,-1,14
 112.5 80 112.5 80 115.875 95.5 c 128,-1,15
 119.25 111 119.25 111 121.5 125 c 0,16,17
 144.75 248 144.75 248 166.5 367 c 128,-1,18
 188.25 486 188.25 486 210 609 c 0,19,20
 213 625 213 625 214.125 640 c 128,-1,21
 215.25 655 215.25 655 212.625 666.5 c 128,-1,22
 210 678 210 678 201.75 686 c 128,-1,23
 193.5 694 193.5 694 178.5 698 c 0,24,25
 174.75 699 174.75 699 166.5 699.5 c 128,-1,26
 158.25 700 158.25 700 150.375 702.5 c 128,-1,27
 142.5 705 142.5 705 137.625 709 c 128,-1,28
 132.75 713 132.75 713 134.25 721 c 0,29,30
 135.75 730 135.75 730 144.375 735 c 128,-1,31
 153 740 153 740 158.25 740 c 0,32,33
 173.25 740 173.25 740 188.25 739 c 128,-1,34
 203.25 738 203.25 738 219 738 c 0,35,36
 231 738 231 738 242.25 739 c 128,-1,37
 253.5 740 253.5 740 265.5 740 c 0,38,39
 278.25 740 278.25 740 284.25 735.5 c 128,-1,40
 290.25 731 290.25 731 294.75 722 c 128,-1,41
 299.25 713 299.25 713 304.5 699.5 c 128,-1,42
 309.75 686 309.75 686 319.5 668 c 0,43,44
 339.75 619 339.75 619 360.75 569 c 128,-1,45
 381.75 519 381.75 519 407.625 459 c 128,-1,46
 433.5 399 433.5 399 465 324 c 128,-1,47
 496.5 249 496.5 249 538.5 147 c 1,48,49
 548.25 148 548.25 148 551.25 170 c 2,50,-1
 573 294 l 2,51,52
 587.25 374 587.25 374 600.75 454 c 128,-1,53
 614.25 534 614.25 534 628.5 613 c 0,54,55
 630.75 627 630.75 627 632.625 640.5 c 128,-1,56
 634.5 654 634.5 654 634.5 668 c 0,57,58
 634.5 691 634.5 691 622.5 696 c 128,-1,59
 610.5 701 610.5 701 595.875 701.5 c 128,-1,60
 581.25 702 581.25 702 569.625 704.5 c 128,-1,61
 558 707 558 707 561.75 723 c 0,62,63
 563.25 733 563.25 733 568.875 736.5 c 128,-1,64
 574.5 740 574.5 740 579.75 740 c 0,65,66
 603 740 603 740 625.5 738 c 128,-1,67
 648 736 648 736 670.5 736 c 0,68,69
 689.25 736 689.25 736 708.75 737.5 c 128,-1,70
 728.25 739 728.25 739 746.25 739 c 0,71,72
 761.25 739 761.25 739 759 722 c 0,73,74
 756.75 710 756.75 710 747.375 706 c 128,-1,75
 738 702 738 702 726 700.5 c 128,-1,76
 714 699 714 699 702.375 696.5 c 128,-1,77
 690.75 694 690.75 694 684 685 c 0,78,79
 678.75 677 678.75 677 672.375 656.5 c 128,-1,80
 666 636 666 636 660.375 613 c 128,-1,81
 654.75 590 654.75 590 651 568.5 c 128,-1,82
 647.25 547 647.25 547 645.75 537 c 2,83,-1
 609 325 l 2,84,85
 599.25 266 599.25 266 585.75 191 c 128,-1,86
 572.25 116 572.25 116 554.25 14 c 0,87,88
 551.25 -3 551.25 -3 547.5 -18 c 128,-1,89
 543.75 -33 543.75 -33 534.75 -35 c 0,90,91
 531 -36 531 -36 527.625 -32.5 c 128,-1,92
 524.25 -29 524.25 -29 522 -23.5 c 128,-1,93
 519.75 -18 519.75 -18 517.5 -12.5 c 128,-1,94
 515.25 -7 515.25 -7 514.5 -3 c 0,95,96
 500.25 32 500.25 32 485.625 66.5 c 128,-1,97
 471 101 471 101 456.75 137 c 0,98,99
 456 138 456 138 454.875 141 c 128,-1,100
 453.75 144 453.75 144 448.875 156 c 128,-1,101
 444 168 444 168 433.125 193 c 128,-1,102
 422.25 218 422.25 218 403.125 263 c 128,-1,103
 384 308 384 308 354.75 376.5 c 128,-1,104
 325.5 445 325.5 445 282.75 546 c 0,105,106
 274.5 566 274.5 566 265.875 590 c 128,-1,107
 257.25 614 257.25 614 245.25 633 c 1,108,109
 240 616 240 616 236.25 598 c 0,110,111
 227.25 543 227.25 543 219.75 494 c 128,-1,112
 212.25 445 212.25 445 203.25 393 c 128,-1,113
 194.25 341 194.25 341 184.5 280 c 128,-1,114
 174.75 219 174.75 219 161.25 139 c 0,115,116
 153 92 153 92 153.75 70.5 c 128,-1,117
 154.5 49 154.5 49 161.625 41.5 c 128,-1,118
 168.75 34 168.75 34 182.625 33 c 128,-1,119
 196.5 32 196.5 32 216 26 c 0,120,121
 221.25 24 221.25 24 225.375 18 c 128,-1,122
 229.5 12 229.5 12 228 2 c 0,123,124
 227.25 -4 227.25 -4 222.375 -6 c 128,-1,125
 217.5 -8 217.5 -8 214.5 -8 c 0,126,127
 193.5 -8 193.5 -8 173.25 -6 c 128,-1,128
 153 -4 153 -4 132 -4 c 0,0,1
EndSplineSet
Substitution2: "'c2sc' Versalien in Kapit+AOQA-lchen in Lateinisch Nachschlagetabelle 0 Subtabelle" uni0274
EndChar

StartChar: O
Encoding: 79 79 64
Width: 629
Flags: W
LayerCount: 2
Fore
SplineSet
572.25 420 m 0,0,1
 575.25 486 575.25 486 566.25 545 c 128,-1,2
 557.25 604 557.25 604 535.125 646.5 c 128,-1,3
 513 689 513 689 476.25 709 c 128,-1,4
 439.5 729 439.5 729 387 716 c 0,5,6
 330.75 702 330.75 702 293.25 661 c 128,-1,7
 255.75 620 255.75 620 232.5 564.5 c 128,-1,8
 209.25 509 209.25 509 197.625 446 c 128,-1,9
 186 383 186 383 183.75 325 c 0,10,11
 180.75 265 180.75 265 187.5 204 c 128,-1,12
 194.25 143 194.25 143 214.875 97 c 128,-1,13
 235.5 51 235.5 51 272.25 27.5 c 128,-1,14
 309 4 309 4 365.25 18 c 0,15,16
 420.75 31 420.75 31 459 74 c 128,-1,17
 497.25 117 497.25 117 521.625 174.5 c 128,-1,18
 546 232 546 232 557.625 297 c 128,-1,19
 569.25 362 569.25 362 572.25 420 c 0,0,1
652.5 374 m 0,20,21
 639 292 639 292 604.5 218.5 c 128,-1,22
 570 145 570 145 522.375 90.5 c 128,-1,23
 474.75 36 474.75 36 417.375 3.5 c 128,-1,24
 360 -29 360 -29 301.5 -29 c 0,25,26
 243.75 -29 243.75 -29 200.25 0.5 c 128,-1,27
 156.75 30 156.75 30 130.5 82 c 128,-1,28
 104.25 134 104.25 134 97.125 205 c 128,-1,29
 90 276 90 276 104.25 361 c 256,30,31
 118.5 446 118.5 446 151.5 519 c 128,-1,32
 184.5 592 184.5 592 229.875 645 c 128,-1,33
 275.25 698 275.25 698 329.625 728.5 c 128,-1,34
 384 759 384 759 442.5 759 c 0,35,36
 498.75 759 498.75 759 544.125 730.5 c 128,-1,37
 589.5 702 589.5 702 618.75 651.5 c 128,-1,38
 648 601 648 601 657.375 530.5 c 128,-1,39
 666.75 460 666.75 460 652.5 374 c 0,20,21
EndSplineSet
Substitution2: "'c2sc' Versalien in Kapit+AOQA-lchen in Lateinisch Nachschlagetabelle 0 Subtabelle" uni1D0F
EndChar

StartChar: P
Encoding: 80 80 65
Width: 438
Flags: W
LayerCount: 2
Fore
SplineSet
425.25 526 m 0,0,1
 431.25 561 431.25 561 429.375 593.5 c 128,-1,2
 427.5 626 427.5 626 416.625 650.5 c 128,-1,3
 405.75 675 405.75 675 385.125 690.5 c 128,-1,4
 364.5 706 364.5 706 335.25 708 c 0,5,6
 327.75 708 327.75 708 318.375 706.5 c 128,-1,7
 309 705 309 705 300.75 696 c 0,8,9
 293.25 687 293.25 687 287.25 667 c 128,-1,10
 281.25 647 281.25 647 277.5 629 c 2,11,-1
 274.5 608 l 2,12,13
 265.5 556 265.5 556 257.25 505 c 128,-1,14
 249 454 249 454 240.75 401 c 1,15,-1
 239.25 401 l 1,16,-1
 226.5 326 l 2,17,18
 224.25 315 224.25 315 220.5 295.5 c 128,-1,19
 216.75 276 216.75 276 213 255 c 128,-1,20
 209.25 234 209.25 234 204.75 213 c 256,21,22
 201 191 201 191 198 175 c 2,23,-1
 187.5 113 l 2,24,25
 185.25 101 185.25 101 184.125 88.5 c 128,-1,26
 183 76 183 76 183.75 65 c 128,-1,27
 184.5 54 184.5 54 187.875 46 c 128,-1,28
 191.25 38 191.25 38 198.75 35 c 0,29,30
 202.5 33 202.5 33 210.375 31 c 128,-1,31
 218.25 29 218.25 29 225.75 27 c 128,-1,32
 233.25 25 233.25 25 240 23.5 c 128,-1,33
 246.75 22 246.75 22 249.75 20 c 0,34,35
 255 16 255 16 252 11 c 128,-1,36
 249 6 249 6 246.75 -1 c 0,37,38
 242.25 -5 242.25 -5 237 -6 c 128,-1,39
 231.75 -7 231.75 -7 226.5 -7 c 0,40,41
 203.25 -7 203.25 -7 180.75 -3.5 c 128,-1,42
 158.25 0 158.25 0 134.25 0 c 0,43,44
 108.75 0 108.75 0 84.75 -3.5 c 128,-1,45
 60.75 -7 60.75 -7 35.25 -7 c 0,46,47
 28.5 -7 28.5 -7 27.375 -0.5 c 128,-1,48
 26.25 6 26.25 6 27.75 14 c 0,49,50
 28.5 18 28.5 18 37.875 22 c 128,-1,51
 47.25 26 47.25 26 60 30.5 c 128,-1,52
 72.75 35 72.75 35 84.75 41.5 c 128,-1,53
 96.75 48 96.75 48 102.75 59 c 0,54,55
 111 76 111 76 115.875 97.5 c 128,-1,56
 120.75 119 120.75 119 124.5 138 c 0,57,58
 135 199 135 199 146.25 261 c 128,-1,59
 157.5 323 157.5 323 168 384 c 0,60,61
 179.25 452 179.25 452 190.5 519 c 128,-1,62
 201.75 586 201.75 586 214.5 653 c 0,63,64
 218.25 676 218.25 676 214.125 686 c 128,-1,65
 210 696 210 696 202.5 699.5 c 128,-1,66
 195 703 195 703 184.5 702 c 128,-1,67
 174 701 174 701 166.125 701.5 c 128,-1,68
 158.25 702 158.25 702 153.375 706.5 c 128,-1,69
 148.5 711 148.5 711 150.75 724 c 0,70,71
 152.25 732 152.25 732 156.75 735 c 128,-1,72
 161.25 738 161.25 738 166.5 739 c 0,73,74
 201.75 744 201.75 744 235.875 745 c 128,-1,75
 270 746 270 746 304.5 746 c 2,76,-1
 345 746 l 2,77,78
 383.25 746 383.25 746 416.25 733.5 c 128,-1,79
 449.25 721 449.25 721 471 694.5 c 128,-1,80
 492.75 668 492.75 668 501.375 626.5 c 128,-1,81
 510 585 510 585 500.25 528 c 0,82,83
 492 480 492 480 471.375 440.5 c 128,-1,84
 450.75 401 450.75 401 423 372.5 c 128,-1,85
 395.25 344 395.25 344 361.5 328 c 128,-1,86
 327.75 312 327.75 312 293.25 312 c 0,87,88
 281.25 312 281.25 312 279.375 314.5 c 128,-1,89
 277.5 317 277.5 317 273.75 323 c 0,90,91
 273 325 273 325 271.5 330.5 c 128,-1,92
 270 336 270 336 270.75 342 c 128,-1,93
 271.5 348 271.5 348 273.75 352.5 c 128,-1,94
 276 357 276 357 279.75 357 c 0,95,96
 282 356 282 356 282.75 356 c 0,97,98
 309 357 309 357 331.5 370 c 128,-1,99
 354 383 354 383 372.75 405 c 128,-1,100
 391.5 427 391.5 427 405.375 458 c 128,-1,101
 419.25 489 419.25 489 425.25 526 c 0,0,1
EndSplineSet
Substitution2: "'c2sc' Versalien in Kapit+AOQA-lchen in Lateinisch Nachschlagetabelle 0 Subtabelle" uni1D18
EndChar

StartChar: Q
Encoding: 81 81 66
Width: 629
Flags: W
LayerCount: 2
Fore
SplineSet
572.25 420 m 0,0,1
 575.25 486 575.25 486 566.25 545 c 128,-1,2
 557.25 604 557.25 604 535.125 646.5 c 128,-1,3
 513 689 513 689 476.25 709 c 128,-1,4
 439.5 729 439.5 729 387 716 c 0,5,6
 336.75 703 336.75 703 299.625 662 c 128,-1,7
 262.5 621 262.5 621 237.75 565.5 c 128,-1,8
 213 510 213 510 199.5 446.5 c 128,-1,9
 186 383 186 383 183.75 325 c 0,10,11
 180.75 265 180.75 265 187.5 203.5 c 128,-1,12
 194.25 142 194.25 142 214.875 95.5 c 128,-1,13
 235.5 49 235.5 49 272.25 26 c 128,-1,14
 309 3 309 3 365.25 18 c 0,15,16
 408 30 408 30 445.125 72.5 c 128,-1,17
 482.25 115 482.25 115 509.625 172.5 c 128,-1,18
 537 230 537 230 553.125 296 c 128,-1,19
 569.25 362 569.25 362 572.25 420 c 0,0,1
652.5 374 m 0,20,21
 643.5 320 643.5 320 624 269 c 128,-1,22
 604.5 218 604.5 218 577.125 174 c 128,-1,23
 549.75 130 549.75 130 516.75 93 c 128,-1,24
 483.75 56 483.75 56 447 30 c 1,25,26
 458.25 -7 458.25 -7 471 -30 c 128,-1,27
 483.75 -53 483.75 -53 497.625 -68.5 c 128,-1,28
 511.5 -84 511.5 -84 526.875 -93.5 c 128,-1,29
 542.25 -103 542.25 -103 558 -114 c 0,30,31
 560.25 -116 560.25 -116 561.375 -122 c 128,-1,32
 562.5 -128 562.5 -128 561 -134 c 0,33,34
 559.5 -141 559.5 -141 556.5 -147.5 c 128,-1,35
 553.5 -154 553.5 -154 550.5 -154 c 0,36,37
 525 -157 525 -157 498.75 -149.5 c 128,-1,38
 472.5 -142 472.5 -142 447 -125 c 128,-1,39
 421.5 -108 421.5 -108 399 -80.5 c 128,-1,40
 376.5 -53 376.5 -53 358.5 -16 c 1,41,42
 349.5 -19 349.5 -19 343.125 -22 c 128,-1,43
 336.75 -25 336.75 -25 330 -26.5 c 128,-1,44
 323.25 -28 323.25 -28 316.875 -28.5 c 128,-1,45
 310.5 -29 310.5 -29 301.5 -29 c 0,46,47
 243.75 -29 243.75 -29 200.25 0.5 c 128,-1,48
 156.75 30 156.75 30 130.5 82 c 128,-1,49
 104.25 134 104.25 134 97.125 205 c 128,-1,50
 90 276 90 276 104.25 361 c 256,51,52
 118.5 446 118.5 446 151.5 519 c 128,-1,53
 184.5 592 184.5 592 229.875 645 c 128,-1,54
 275.25 698 275.25 698 329.625 728.5 c 128,-1,55
 384 759 384 759 442.5 759 c 0,56,57
 498.75 759 498.75 759 544.125 730.5 c 128,-1,58
 589.5 702 589.5 702 618.75 651.5 c 128,-1,59
 648 601 648 601 657.375 530.5 c 128,-1,60
 666.75 460 666.75 460 652.5 374 c 0,20,21
EndSplineSet
Substitution2: "'c2sc' Versalien in Kapit+AOQA-lchen in Lateinisch Nachschlagetabelle 0 Subtabelle" Q.sc
EndChar

StartChar: R
Encoding: 82 82 67
Width: 512
Flags: W
LayerCount: 2
Fore
SplineSet
430.5 544 m 0,0,1
 437.25 585 437.25 585 433.5 615.5 c 128,-1,2
 429.75 646 429.75 646 417.375 667 c 128,-1,3
 405 688 405 688 384.75 699 c 128,-1,4
 364.5 710 364.5 710 338.25 710 c 0,5,6
 312.75 710 312.75 710 302.625 697 c 128,-1,7
 292.5 684 292.5 684 288.75 659 c 2,8,-1
 282.75 625 l 2,9,10
 276 584 276 584 266.25 532.5 c 128,-1,11
 256.5 481 256.5 481 249.75 440 c 0,12,13
 247.5 425 247.5 425 244.875 414 c 128,-1,14
 242.25 403 242.25 403 243 396 c 128,-1,15
 243.75 389 243.75 389 249 386 c 128,-1,16
 254.25 383 254.25 383 267 383 c 0,17,18
 295.5 383 295.5 383 321.75 389.5 c 128,-1,19
 348 396 348 396 369.375 414 c 128,-1,20
 390.75 432 390.75 432 406.5 463.5 c 128,-1,21
 422.25 495 422.25 495 430.5 544 c 0,0,1
365.25 359 m 1,22,23
 378 351 378 351 386.25 323 c 128,-1,24
 394.5 295 394.5 295 401.25 256 c 128,-1,25
 408 217 408 217 415.125 173.5 c 128,-1,26
 422.25 130 422.25 130 434.25 91 c 128,-1,27
 446.25 52 446.25 52 464.25 23 c 128,-1,28
 482.25 -6 482.25 -6 510.75 -15 c 0,29,30
 517.5 -20 517.5 -20 525.375 -23 c 128,-1,31
 533.25 -26 533.25 -26 531.75 -35 c 0,32,33
 531 -41 531 -41 522 -50 c 1,34,35
 513.75 -54 513.75 -54 496.5 -54 c 0,36,37
 489.75 -54 489.75 -54 482.25 -53 c 128,-1,38
 474.75 -52 474.75 -52 470.25 -51 c 0,39,40
 411.75 -36 411.75 -36 380.25 19.5 c 128,-1,41
 348.75 75 348.75 75 341.25 155 c 1,42,43
 335.25 188 335.25 188 330.75 222.5 c 128,-1,44
 326.25 257 326.25 257 318 285 c 128,-1,45
 309.75 313 309.75 313 295.5 331.5 c 128,-1,46
 281.25 350 281.25 350 255 350 c 0,47,48
 240.75 350 240.75 350 235.875 342 c 128,-1,49
 231 334 231 334 227.25 309 c 2,50,-1
 190.5 98 l 2,51,52
 186 71 186 71 188.25 58 c 128,-1,53
 190.5 45 190.5 45 197.625 39 c 128,-1,54
 204.75 33 204.75 33 216 31 c 128,-1,55
 227.25 29 227.25 29 241.5 25 c 0,56,57
 243 24 243 24 246.75 24 c 0,58,59
 252 24 252 24 256.5 21.5 c 128,-1,60
 261 19 261 19 259.5 11 c 0,61,62
 257.25 -3 257.25 -3 249.75 -6 c 128,-1,63
 242.25 -9 242.25 -9 228 -9 c 0,64,65
 202.5 -9 202.5 -9 177.375 -5.5 c 128,-1,66
 152.25 -2 152.25 -2 126.75 -2 c 0,67,68
 104.25 -2 104.25 -2 82.125 -5 c 128,-1,69
 60 -8 60 -8 38.25 -8 c 0,70,71
 29.25 -8 29.25 -8 26.625 -5.5 c 128,-1,72
 24 -3 24 -3 26.25 11 c 0,73,74
 27.75 18 27.75 18 33.75 21 c 128,-1,75
 39.75 24 39.75 24 49.125 26 c 128,-1,76
 58.5 28 58.5 28 68.625 30.5 c 128,-1,77
 78.75 33 78.75 33 89.25 40 c 128,-1,78
 99.75 47 99.75 47 107.625 59.5 c 128,-1,79
 115.5 72 115.5 72 119.25 93 c 2,80,-1
 156 304 l 2,81,82
 171 391 171 391 186.75 477 c 128,-1,83
 202.5 563 202.5 563 218.25 650 c 0,84,85
 222 670 222 670 217.875 681.5 c 128,-1,86
 213.75 693 213.75 693 205.5 697.5 c 128,-1,87
 197.25 702 197.25 702 187.875 703.5 c 128,-1,88
 178.5 705 178.5 705 169.5 706 c 128,-1,89
 160.5 707 160.5 707 155.25 710 c 128,-1,90
 150 713 150 713 151.5 722 c 0,91,92
 153.75 736 153.75 736 161.625 738.5 c 128,-1,93
 169.5 741 169.5 741 178.5 741 c 256,94,95
 186 741 186 741 193.875 740 c 128,-1,96
 201.75 739 201.75 739 210 739 c 2,97,-1
 271.5 739 l 2,98,99
 298.5 739 298.5 739 326.25 740.5 c 128,-1,100
 354 742 354 742 381.75 742 c 0,101,102
 405.75 742 405.75 742 430.875 733.5 c 128,-1,103
 456 725 456 725 475.5 702 c 128,-1,104
 495 679 495 679 504.375 640 c 128,-1,105
 513.75 601 513.75 601 503.25 541 c 0,106,107
 498 508 498 508 483.375 480 c 128,-1,108
 468.75 452 468.75 452 449.25 429.5 c 128,-1,109
 429.75 407 429.75 407 408 389 c 128,-1,110
 386.25 371 386.25 371 365.25 359 c 1,22,23
EndSplineSet
Substitution2: "'c2sc' Versalien in Kapit+AOQA-lchen in Lateinisch Nachschlagetabelle 0 Subtabelle" uni0280
EndChar

StartChar: S
Encoding: 83 83 68
Width: 369
Flags: W
LayerCount: 2
Fore
SplineSet
36 -37 m 0,0,1
 30.75 -37 30.75 -37 31.5 -24 c 128,-1,2
 32.25 -11 32.25 -11 35.25 6 c 256,3,4
 38.25 23 38.25 23 42.375 41.5 c 128,-1,5
 46.5 60 46.5 60 49.5 72 c 0,6,7
 54 99 54 99 57.75 120 c 128,-1,8
 61.5 141 61.5 141 67.5 168 c 0,9,10
 69.75 177 69.75 177 72.75 180 c 128,-1,11
 75.75 183 75.75 183 78.75 183 c 256,12,13
 81.75 183 81.75 183 84 182 c 128,-1,14
 86.25 181 86.25 181 88.5 181 c 0,15,16
 93.75 181 93.75 181 94.875 172.5 c 128,-1,17
 96 164 96 164 96 151 c 128,-1,18
 96 138 96 138 96 124 c 128,-1,19
 96 110 96 110 97.5 99 c 0,20,21
 103.5 59 103.5 59 127.125 37 c 128,-1,22
 150.75 15 150.75 15 180 15 c 0,23,24
 201.75 15 201.75 15 221.625 25 c 128,-1,25
 241.5 35 241.5 35 258 53.5 c 128,-1,26
 274.5 72 274.5 72 286.5 97.5 c 128,-1,27
 298.5 123 298.5 123 304.5 156 c 0,28,29
 312.75 204 312.75 204 300 236.5 c 128,-1,30
 287.25 269 287.25 269 264.75 295 c 128,-1,31
 242.25 321 242.25 321 214.125 343.5 c 128,-1,32
 186 366 186 366 163.5 394 c 128,-1,33
 141 422 141 422 129.75 459.5 c 128,-1,34
 118.5 497 118.5 497 127.5 552 c 0,35,36
 135.75 601 135.75 601 154.875 639.5 c 128,-1,37
 174 678 174 678 200.25 704 c 128,-1,38
 226.5 730 226.5 730 257.625 744 c 128,-1,39
 288.75 758 288.75 758 321 758 c 0,40,41
 336 758 336 758 352.875 746.5 c 128,-1,42
 369.75 735 369.75 735 380.25 724 c 0,43,44
 387 718 387 718 391.875 723.5 c 128,-1,45
 396.75 729 396.75 729 402.375 739.5 c 128,-1,46
 408 750 408 750 414.75 759 c 128,-1,47
 421.5 768 421.5 768 432.75 768 c 0,48,49
 438 768 438 768 437.25 758 c 128,-1,50
 436.5 748 436.5 748 434.25 733 c 256,51,52
 432 719 432 719 427.875 703.5 c 128,-1,53
 423.75 688 423.75 688 422.25 677 c 0,54,55
 414 624 414 624 402 570 c 0,56,57
 399 561 399 561 396 558 c 128,-1,58
 393 555 393 555 390 555 c 256,59,60
 387 555 387 555 384.75 556 c 128,-1,61
 382.5 557 382.5 557 380.25 557 c 0,62,63
 375.75 557 375.75 557 374.625 566 c 128,-1,64
 373.5 575 373.5 575 373.5 588 c 128,-1,65
 373.5 601 373.5 601 373.875 615 c 128,-1,66
 374.25 629 374.25 629 372 639 c 0,67,68
 367.5 678 367.5 678 348.375 699.5 c 128,-1,69
 329.25 721 329.25 721 307.5 721 c 0,70,71
 288.75 721 288.75 721 270.375 713 c 128,-1,72
 252 705 252 705 237 689.5 c 128,-1,73
 222 674 222 674 210.75 651.5 c 128,-1,74
 199.5 629 199.5 629 195 601 c 0,75,76
 187.5 558 187.5 558 201.75 526 c 128,-1,77
 216 494 216 494 240 468.5 c 128,-1,78
 264 443 264 443 292.125 421.5 c 128,-1,79
 320.25 400 320.25 400 340.5 378 c 0,80,81
 366 349 366 349 374.625 303 c 128,-1,82
 383.25 257 383.25 257 375 205 c 0,83,84
 365.25 149 365.25 149 345.375 106 c 128,-1,85
 325.5 63 325.5 63 297.75 34.5 c 128,-1,86
 270 6 270 6 236.25 -9 c 128,-1,87
 202.5 -24 202.5 -24 165.75 -25 c 0,88,89
 152.25 -25 152.25 -25 141.375 -19.5 c 128,-1,90
 130.5 -14 130.5 -14 120.75 -8.5 c 128,-1,91
 111 -3 111 -3 103.125 2 c 128,-1,92
 95.25 7 95.25 7 87.75 7 c 0,93,94
 79.5 7 79.5 7 74.25 0.5 c 128,-1,95
 69 -6 69 -6 64.125 -15 c 128,-1,96
 59.25 -24 59.25 -24 52.875 -30.5 c 128,-1,97
 46.5 -37 46.5 -37 36 -37 c 0,0,1
EndSplineSet
Substitution2: "'c2sc' Versalien in Kapit+AOQA-lchen in Lateinisch Nachschlagetabelle 0 Subtabelle" uniA731
EndChar

StartChar: T
Encoding: 84 84 69
Width: 503
Flags: W
LayerCount: 2
Fore
SplineSet
621 740 m 0,0,1
 612.75 721 612.75 721 605.625 688.5 c 128,-1,2
 598.5 656 598.5 656 590.625 625.5 c 128,-1,3
 582.75 595 582.75 595 574.5 572.5 c 128,-1,4
 566.25 550 566.25 550 555 550 c 0,5,6
 546.75 550 546.75 550 546.75 559.5 c 128,-1,7
 546.75 569 546.75 569 550.5 584 c 128,-1,8
 554.25 599 554.25 599 558 616.5 c 128,-1,9
 561.75 634 561.75 634 559.5 649 c 0,10,11
 558 661 558 661 549.375 669 c 128,-1,12
 540.75 677 540.75 677 526.875 680.5 c 128,-1,13
 513 684 513 684 497.25 685.5 c 128,-1,14
 481.5 687 481.5 687 468 687 c 0,15,16
 457.5 687 457.5 687 448.5 686.5 c 128,-1,17
 439.5 686 439.5 686 434.25 686 c 0,18,19
 429 686 429 686 424.5 686.5 c 128,-1,20
 420 687 420 687 416.25 682.5 c 128,-1,21
 412.5 678 412.5 678 408.75 666 c 128,-1,22
 405 654 405 654 400.5 631 c 2,23,-1
 377.25 506 l 2,24,25
 360 416 360 416 346.125 326 c 128,-1,26
 332.25 236 332.25 236 315.75 145 c 0,27,28
 312.75 129 312.75 129 310.5 112.5 c 128,-1,29
 308.25 96 308.25 96 307.5 80 c 0,30,31
 306 51 306 51 318.375 41.5 c 128,-1,32
 330.75 32 330.75 32 346.125 29.5 c 128,-1,33
 361.5 27 361.5 27 373.5 25 c 128,-1,34
 385.5 23 385.5 23 384 10 c 0,35,36
 381 -6 381 -6 375.75 -7 c 128,-1,37
 370.5 -8 370.5 -8 360.75 -8 c 0,38,39
 332.25 -8 332.25 -8 304.875 -5.5 c 128,-1,40
 277.5 -3 277.5 -3 249 -3 c 0,41,42
 223.5 -3 223.5 -3 197.25 -5.5 c 128,-1,43
 171 -8 171 -8 145.5 -8 c 0,44,45
 140.25 -8 140.25 -8 134.25 -7 c 128,-1,46
 128.25 -6 128.25 -6 129.75 5 c 0,47,48
 132 17 132 17 139.125 21 c 128,-1,49
 146.25 25 146.25 25 153.75 25 c 0,50,51
 159.75 25 159.75 25 162.75 26 c 0,52,53
 184.5 29 184.5 29 198 36 c 128,-1,54
 211.5 43 211.5 43 220.125 56 c 128,-1,55
 228.75 69 228.75 69 234 88.5 c 128,-1,56
 239.25 108 239.25 108 245.25 136 c 2,57,-1
 330.75 632 l 2,58,59
 331.5 637 331.5 637 333.375 651 c 128,-1,60
 335.25 665 335.25 665 335.25 670 c 0,61,62
 335.25 679 335.25 679 321.375 682.5 c 128,-1,63
 307.5 686 307.5 686 290.25 686 c 2,64,-1
 246 686 l 2,65,66
 229.5 686 229.5 686 213 679.5 c 128,-1,67
 196.5 673 196.5 673 179.25 653 c 0,68,69
 174.75 648 174.75 648 166.125 631.5 c 128,-1,70
 157.5 615 157.5 615 147.75 597.5 c 128,-1,71
 138 580 138 580 129.375 565.5 c 128,-1,72
 120.75 551 120.75 551 118.5 551 c 0,73,74
 111.75 551 111.75 551 108.375 555 c 128,-1,75
 105 559 105 559 107.25 570 c 0,76,77
 110.25 587 110.25 587 120.75 616.5 c 128,-1,78
 131.25 646 131.25 646 144.75 699 c 0,79,80
 147 710 147 710 150 723 c 128,-1,81
 153 736 153 736 157.125 746.5 c 128,-1,82
 161.25 757 161.25 757 167.25 763.5 c 128,-1,83
 173.25 770 173.25 770 183 770 c 0,84,85
 186.75 770 186.75 770 188.25 765 c 128,-1,86
 189.75 760 189.75 760 192.375 753 c 128,-1,87
 195 746 195 746 199.875 740 c 128,-1,88
 204.75 734 204.75 734 215.25 733 c 0,89,90
 257.25 730 257.25 730 302.25 728.5 c 128,-1,91
 347.25 727 347.25 727 390 727 c 0,92,93
 424.5 727 424.5 727 456.375 728 c 128,-1,94
 488.25 729 488.25 729 522 729 c 0,95,96
 532.5 729 532.5 729 543.75 729.5 c 128,-1,97
 555 730 555 730 567 732 c 0,98,99
 576 734 576 734 582.375 741.5 c 128,-1,100
 588.75 749 588.75 749 594.75 757 c 128,-1,101
 600.75 765 600.75 765 604.875 771.5 c 128,-1,102
 609 778 609 778 612 778 c 0,103,104
 624 778 624 778 624.75 764.5 c 128,-1,105
 625.5 751 625.5 751 621 740 c 0,0,1
EndSplineSet
Substitution2: "'c2sc' Versalien in Kapit+AOQA-lchen in Lateinisch Nachschlagetabelle 0 Subtabelle" uni1D1B
EndChar

StartChar: U
Encoding: 85 85 70
Width: 579
Flags: W
LayerCount: 2
Fore
SplineSet
693 724 m 0,0,1
 690.75 713 690.75 713 681.375 706.5 c 128,-1,2
 672 700 672 700 659.625 696.5 c 128,-1,3
 647.25 693 647.25 693 636.75 691 c 128,-1,4
 626.25 689 626.25 689 621.75 686 c 0,5,6
 616.5 682 616.5 682 609.375 654 c 128,-1,7
 602.25 626 602.25 626 595.125 588 c 128,-1,8
 588 550 588 550 581.625 509 c 128,-1,9
 575.25 468 575.25 468 570 437 c 0,10,11
 565.5 409 565.5 409 560.625 381.5 c 128,-1,12
 555.75 354 555.75 354 551.25 327 c 0,13,14
 543.75 282 543.75 282 533.25 232.5 c 128,-1,15
 522.75 183 522.75 183 505.875 138.5 c 128,-1,16
 489 94 489 94 464.25 58.5 c 128,-1,17
 439.5 23 439.5 23 402 3 c 0,18,19
 369 -13 369 -13 335.625 -20 c 128,-1,20
 302.25 -27 302.25 -27 271.5 -27 c 0,21,22
 235.5 -27 235.5 -27 204 -17 c 128,-1,23
 172.5 -7 172.5 -7 151.125 16.5 c 128,-1,24
 129.75 40 129.75 40 119.625 79 c 128,-1,25
 109.5 118 109.5 118 116.25 177 c 0,26,27
 117 186 117 186 118.5 195.5 c 128,-1,28
 120 205 120 205 121.5 214 c 2,29,-1
 127.5 252 l 2,30,31
 142.5 339 142.5 339 158.625 424 c 128,-1,32
 174.75 509 174.75 509 190.5 596 c 0,33,34
 192.75 610 192.75 610 195.375 628.5 c 128,-1,35
 198 647 198 647 197.625 663 c 128,-1,36
 197.25 679 197.25 679 191.625 690 c 128,-1,37
 186 701 186 701 171.75 701 c 2,38,-1
 164.25 701 l 2,39,40
 160.5 701 160.5 701 155.25 701.5 c 128,-1,41
 150 702 150 702 144.75 704 c 128,-1,42
 139.5 706 139.5 706 136.5 710 c 128,-1,43
 133.5 714 133.5 714 134.25 721 c 0,44,45
 137.25 740 137.25 740 152.25 740 c 0,46,47
 175.5 740 175.5 740 197.25 737 c 128,-1,48
 219 734 219 734 242.25 734 c 0,49,50
 267.75 734 267.75 734 291.75 737 c 128,-1,51
 315.75 740 315.75 740 341.25 740 c 0,52,53
 346.5 740 346.5 740 354.75 738 c 128,-1,54
 363 736 363 736 360.75 725 c 0,55,56
 358.5 711 358.5 711 348.375 706.5 c 128,-1,57
 338.25 702 338.25 702 325.5 699 c 128,-1,58
 312.75 696 312.75 696 300 691 c 128,-1,59
 287.25 686 287.25 686 279.75 670 c 0,60,61
 276.75 663 276.75 663 272.625 649.5 c 128,-1,62
 268.5 636 268.5 636 264.375 619.5 c 128,-1,63
 260.25 603 260.25 603 257.25 585.5 c 128,-1,64
 254.25 568 254.25 568 251.25 553 c 2,65,-1
 219 365 l 2,66,67
 213.75 333 213.75 333 208.125 301 c 128,-1,68
 202.5 269 202.5 269 198.75 238 c 0,69,70
 190.5 175 190.5 175 194.625 133.5 c 128,-1,71
 198.75 92 198.75 92 212.625 68.5 c 128,-1,72
 226.5 45 226.5 45 250.125 36 c 128,-1,73
 273.75 27 273.75 27 304.5 27 c 0,74,75
 340.5 27 340.5 27 368.25 36.5 c 128,-1,76
 396 46 396 46 418.5 68.5 c 128,-1,77
 441 91 441 91 458.25 126.5 c 128,-1,78
 475.5 162 475.5 162 490.5 214 c 0,79,80
 499.5 243 499.5 243 505.5 273 c 2,81,-1
 543.75 493 l 2,82,83
 547.5 517 547.5 517 553.125 546 c 128,-1,84
 558.75 575 558.75 575 564.75 603 c 256,85,86
 569.25 631 569.25 631 570.75 653 c 128,-1,87
 572.25 675 572.25 675 567.75 683 c 256,88,89
 562.5 691 562.5 691 552.75 693 c 128,-1,90
 543 695 543 695 533.625 697.5 c 128,-1,91
 524.25 700 524.25 700 518.625 706 c 128,-1,92
 513 712 513 712 515.25 726 c 0,93,94
 516.75 736 516.75 736 522 738 c 128,-1,95
 527.25 740 527.25 740 534 740 c 0,96,97
 552.75 740 552.75 740 570.75 738 c 128,-1,98
 588.75 736 588.75 736 608.25 736 c 0,99,100
 627.75 736 627.75 736 647.25 737.5 c 128,-1,101
 666.75 739 666.75 739 685.5 739 c 1,102,103
 694.5 734 694.5 734 693 724 c 0,0,1
EndSplineSet
Substitution2: "'c2sc' Versalien in Kapit+AOQA-lchen in Lateinisch Nachschlagetabelle 0 Subtabelle" uni1D1C
EndChar

StartChar: V
Encoding: 86 86 71
Width: 547
Flags: W
LayerCount: 2
Fore
SplineSet
666.75 723 m 0,0,1
 664.5 710 664.5 710 657.375 705.5 c 128,-1,2
 650.25 701 650.25 701 641.625 699 c 128,-1,3
 633 697 633 697 622.875 692.5 c 128,-1,4
 612.75 688 612.75 688 603.75 675 c 0,5,6
 600.75 670 600.75 670 594.375 656.5 c 128,-1,7
 588 643 588 643 580.875 627.5 c 128,-1,8
 573.75 612 573.75 612 567.375 597.5 c 128,-1,9
 561 583 561 583 557.25 575 c 0,10,11
 532.5 520 532.5 520 507.375 466.5 c 128,-1,12
 482.25 413 482.25 413 456.75 357 c 0,13,14
 414.75 264 414.75 264 373.5 172 c 128,-1,15
 332.25 80 332.25 80 289.5 -13 c 0,16,17
 287.25 -19 287.25 -19 285 -23 c 128,-1,18
 282.75 -27 282.75 -27 276.75 -27 c 0,19,20
 271.5 -27 271.5 -27 269.625 -21 c 128,-1,21
 267.75 -15 267.75 -15 267 -10 c 0,22,23
 261 48 261 48 254.25 108.5 c 128,-1,24
 247.5 169 247.5 169 241.5 227 c 0,25,26
 231 338 231 338 220.5 448 c 128,-1,27
 210 558 210 558 192.75 667 c 0,28,29
 189.75 686 189.75 686 178.875 692 c 128,-1,30
 168 698 168 698 157.125 701.5 c 128,-1,31
 146.25 705 146.25 705 138.375 708.5 c 128,-1,32
 130.5 712 130.5 712 132.75 725 c 0,33,34
 134.25 734 134.25 734 142.5 737.5 c 128,-1,35
 150.75 741 150.75 741 157.5 741 c 2,36,-1
 165 741 l 2,37,38
 182.25 741 182.25 741 199.125 738 c 128,-1,39
 216 735 216 735 232.5 735 c 0,40,41
 258 735 258 735 283.125 738 c 128,-1,42
 308.25 741 308.25 741 333 741 c 0,43,44
 339 741 339 741 343.125 735 c 128,-1,45
 347.25 729 347.25 729 345.75 720 c 0,46,47
 343.5 709 343.5 709 333.375 707 c 128,-1,48
 323.25 705 323.25 705 310.5 703.5 c 128,-1,49
 297.75 702 297.75 702 287.25 697.5 c 128,-1,50
 276.75 693 276.75 693 273.75 677 c 0,51,52
 273 674 273 674 273.375 670.5 c 128,-1,53
 273.75 667 273.75 667 273.75 664 c 0,54,55
 274.5 649 274.5 649 277.875 607 c 128,-1,56
 281.25 565 281.25 565 286.125 512 c 128,-1,57
 291 459 291 459 297 400 c 128,-1,58
 303 341 303 341 308.625 291 c 128,-1,59
 314.25 241 314.25 241 319.125 206 c 128,-1,60
 324 171 324 171 327 166 c 0,61,62
 328.5 163 328.5 163 331.875 166.5 c 128,-1,63
 335.25 170 335.25 170 339 175.5 c 128,-1,64
 342.75 181 342.75 181 345.375 187 c 128,-1,65
 348 193 348 193 349.5 195 c 0,66,67
 356.25 209 356.25 209 373.125 247.5 c 128,-1,68
 390 286 390 286 411.75 335 c 128,-1,69
 433.5 384 433.5 384 456.75 439 c 128,-1,70
 480 494 480 494 499.875 541 c 128,-1,71
 519.75 588 519.75 588 533.25 621 c 128,-1,72
 546.75 654 546.75 654 547.5 662 c 0,73,74
 551.25 684 551.25 684 541.125 689.5 c 128,-1,75
 531 695 531 695 517.5 697 c 128,-1,76
 504 699 504 699 493.125 703 c 128,-1,77
 482.25 707 482.25 707 484.5 722 c 0,78,79
 486 730 486 730 491.625 735.5 c 128,-1,80
 497.25 741 497.25 741 502.5 741 c 0,81,82
 525.75 741 525.75 741 548.625 737.5 c 128,-1,83
 571.5 734 571.5 734 594.75 734 c 0,84,85
 611.25 734 611.25 734 627 736.5 c 128,-1,86
 642.75 739 642.75 739 659.25 739 c 0,87,88
 664.5 739 664.5 739 666 734 c 128,-1,89
 667.5 729 667.5 729 666.75 723 c 0,0,1
EndSplineSet
Substitution2: "'c2sc' Versalien in Kapit+AOQA-lchen in Lateinisch Nachschlagetabelle 0 Subtabelle" uni1D20
EndChar

StartChar: W
Encoding: 87 87 72
Width: 781
Flags: W
LayerCount: 2
Fore
SplineSet
460.5 381 m 1,0,1
 454.5 455 454.5 455 446.25 525.5 c 128,-1,2
 438 596 438 596 426.75 667 c 0,3,4
 423.75 686 423.75 686 413.25 692 c 128,-1,5
 402.75 698 402.75 698 391.5 701.5 c 128,-1,6
 380.25 705 380.25 705 372.375 708.5 c 128,-1,7
 364.5 712 364.5 712 366.75 725 c 0,8,9
 368.25 734 368.25 734 376.5 737.5 c 128,-1,10
 384.75 741 384.75 741 391.5 741 c 2,11,-1
 399 741 l 2,12,13
 416.25 741 416.25 741 433.125 738 c 128,-1,14
 450 735 450 735 467.25 735 c 0,15,16
 492.75 735 492.75 735 517.5 738 c 128,-1,17
 542.25 741 542.25 741 567.75 741 c 0,18,19
 573.75 741 573.75 741 577.875 735 c 128,-1,20
 582 729 582 729 579.75 720 c 0,21,22
 577.5 709 577.5 709 567.375 707 c 128,-1,23
 557.25 705 557.25 705 544.875 703.5 c 128,-1,24
 532.5 702 532.5 702 521.625 697.5 c 128,-1,25
 510.75 693 510.75 693 507.75 677 c 0,26,27
 507 674 507 674 507.375 670.5 c 128,-1,28
 507.75 667 507.75 667 507.75 664 c 0,29,30
 508.5 649 508.5 649 511.875 607 c 128,-1,31
 515.25 565 515.25 565 520.125 512 c 128,-1,32
 525 459 525 459 531.375 400 c 128,-1,33
 537.75 341 537.75 341 543 291 c 128,-1,34
 548.25 241 548.25 241 553.125 206 c 128,-1,35
 558 171 558 171 561.75 166 c 0,36,37
 563.25 163 563.25 163 566.625 166.5 c 128,-1,38
 570 170 570 170 573.375 175.5 c 128,-1,39
 576.75 181 576.75 181 579.375 187 c 128,-1,40
 582 193 582 193 583.5 195 c 0,41,42
 590.25 209 590.25 209 607.5 247.5 c 128,-1,43
 624.75 286 624.75 286 646.125 335 c 128,-1,44
 667.5 384 667.5 384 690.75 439 c 128,-1,45
 714 494 714 494 734.25 541 c 128,-1,46
 754.5 588 754.5 588 767.625 621 c 128,-1,47
 780.75 654 780.75 654 781.5 662 c 0,48,49
 785.25 684 785.25 684 775.125 689.5 c 128,-1,50
 765 695 765 695 751.5 697 c 128,-1,51
 738 699 738 699 727.125 703 c 128,-1,52
 716.25 707 716.25 707 718.5 722 c 0,53,54
 720 730 720 730 725.625 735.5 c 128,-1,55
 731.25 741 731.25 741 736.5 741 c 0,56,57
 759.75 741 759.75 741 782.625 737.5 c 128,-1,58
 805.5 734 805.5 734 828.75 734 c 0,59,60
 845.25 734 845.25 734 861 736.5 c 128,-1,61
 876.75 739 876.75 739 893.25 739 c 0,62,63
 898.5 739 898.5 739 900 734 c 128,-1,64
 901.5 729 901.5 729 900.75 723 c 0,65,66
 898.5 710 898.5 710 891.75 705.5 c 128,-1,67
 885 701 885 701 876 699 c 128,-1,68
 867 697 867 697 856.875 692.5 c 128,-1,69
 846.75 688 846.75 688 837.75 675 c 0,70,71
 834.75 670 834.75 670 828.75 656.5 c 128,-1,72
 822.75 643 822.75 643 815.25 627.5 c 128,-1,73
 807.75 612 807.75 612 801.375 597.5 c 128,-1,74
 795 583 795 583 792 575 c 0,75,76
 767.25 520 767.25 520 741.75 466.5 c 128,-1,77
 716.25 413 716.25 413 691.5 357 c 0,78,79
 649.5 264 649.5 264 608.25 172 c 128,-1,80
 567 80 567 80 523.5 -13 c 0,81,82
 521.25 -19 521.25 -19 519 -23 c 128,-1,83
 516.75 -27 516.75 -27 510.75 -27 c 0,84,85
 505.5 -27 505.5 -27 504 -21 c 128,-1,86
 502.5 -15 502.5 -15 501.75 -10 c 0,87,88
 495.75 48 495.75 48 489 108.5 c 128,-1,89
 482.25 169 482.25 169 475.5 227 c 2,90,-1
 467.25 313 l 1,91,-1
 447.75 279 l 2,92,93
 442.5 271 442.5 271 426.375 240.5 c 128,-1,94
 410.25 210 410.25 210 392.25 173.5 c 128,-1,95
 374.25 137 374.25 137 357.375 103.5 c 128,-1,96
 340.5 70 340.5 70 333 55 c 0,97,98
 327.75 44 327.75 44 321.375 30 c 128,-1,99
 315 16 315 16 307.5 4 c 128,-1,100
 300 -8 300 -8 293.25 -17 c 128,-1,101
 286.5 -26 286.5 -26 281.25 -26 c 0,102,103
 272.25 -26 272.25 -26 270.375 -15.5 c 128,-1,104
 268.5 -5 268.5 -5 267.75 5 c 0,105,106
 246.75 168 246.75 168 226.875 325.5 c 128,-1,107
 207 483 207 483 183.75 644 c 0,108,109
 179.25 676 179.25 676 169.5 685.5 c 128,-1,110
 159.75 695 159.75 695 150.375 697.5 c 128,-1,111
 141 700 141 700 135.375 704.5 c 128,-1,112
 129.75 709 129.75 709 132.75 729 c 0,113,114
 133.5 735 133.5 735 137.625 737 c 128,-1,115
 141.75 739 141.75 739 147.375 740 c 128,-1,116
 153 741 153 741 156.75 740.5 c 128,-1,117
 160.5 740 160.5 740 162 740 c 0,118,119
 177 740 177 740 192.75 737.5 c 128,-1,120
 208.5 735 208.5 735 223.5 735 c 0,121,122
 242.25 735 242.25 735 261.75 737.5 c 128,-1,123
 281.25 740 281.25 740 299.25 740 c 0,124,125
 304.5 740 304.5 740 308.625 736 c 128,-1,126
 312.75 732 312.75 732 311.25 723 c 0,127,128
 309 712 309 712 301.5 709.5 c 128,-1,129
 294 707 294 707 285.375 705 c 128,-1,130
 276.75 703 276.75 703 269.25 699.5 c 128,-1,131
 261.75 696 261.75 696 259.5 683 c 0,132,133
 258 676 258 676 261 642.5 c 128,-1,134
 264 609 264 609 269.625 562.5 c 128,-1,135
 275.25 516 275.25 516 282 462.5 c 128,-1,136
 288.75 409 288.75 409 295.5 360 c 128,-1,137
 302.25 311 302.25 311 307.875 273.5 c 128,-1,138
 313.5 236 313.5 236 315.75 220 c 0,139,140
 316.5 210 316.5 210 319.125 191.5 c 128,-1,141
 321.75 173 321.75 173 324.75 156 c 128,-1,142
 327.75 139 327.75 139 331.5 129 c 128,-1,143
 335.25 119 335.25 119 339 126 c 2,144,-1
 460.5 381 l 1,0,1
EndSplineSet
Substitution2: "'c2sc' Versalien in Kapit+AOQA-lchen in Lateinisch Nachschlagetabelle 0 Subtabelle" uni1D21
EndChar

StartChar: X
Encoding: 88 88 73
Width: 555
Flags: W
LayerCount: 2
Fore
SplineSet
544.5 13 m 0,0,1
 541.5 -6 541.5 -6 535.5 -7.5 c 128,-1,2
 529.5 -9 529.5 -9 518.25 -9 c 256,3,4
 507.75 -9 507.75 -9 499.875 -8 c 128,-1,5
 492 -7 492 -7 484.875 -6 c 128,-1,6
 477.75 -5 477.75 -5 469.875 -4 c 128,-1,7
 462 -3 462 -3 452.25 -3 c 0,8,9
 420 -3 420 -3 390 -5 c 128,-1,10
 360 -7 360 -7 327.75 -7 c 0,11,12
 320.25 -7 320.25 -7 318.75 2 c 128,-1,13
 317.25 11 317.25 11 322.5 22 c 1,14,15
 329.25 27 329.25 27 340.875 28 c 128,-1,16
 352.5 29 352.5 29 363.75 30.5 c 128,-1,17
 375 32 375 32 384.375 37 c 128,-1,18
 393.75 42 393.75 42 396 55 c 0,19,20
 396.75 61 396.75 61 395.625 67 c 128,-1,21
 394.5 73 394.5 73 393.75 78 c 0,22,23
 391.5 85 391.5 85 385.875 104 c 128,-1,24
 380.25 123 380.25 123 372.75 148 c 128,-1,25
 365.25 173 365.25 173 356.625 200 c 128,-1,26
 348 227 348 227 339.375 250 c 128,-1,27
 330.75 273 330.75 273 324.375 289.5 c 128,-1,28
 318 306 318 306 314.25 308 c 1,29,30
 305.25 302 305.25 302 298.875 292.5 c 128,-1,31
 292.5 283 292.5 283 286.5 273 c 0,32,33
 280.5 265 280.5 265 268.5 247.5 c 128,-1,34
 256.5 230 256.5 230 242.625 209 c 128,-1,35
 228.75 188 228.75 188 214.125 165 c 128,-1,36
 199.5 142 199.5 142 186.75 121 c 128,-1,37
 174 100 174 100 165.75 84 c 128,-1,38
 157.5 68 157.5 68 156 59 c 0,39,40
 153 43 153 43 163.125 38 c 128,-1,41
 173.25 33 173.25 33 186.375 30.5 c 128,-1,42
 199.5 28 199.5 28 210 23.5 c 128,-1,43
 220.5 19 220.5 19 217.5 4 c 0,44,45
 216.75 -2 216.75 -2 210.375 -4.5 c 128,-1,46
 204 -7 204 -7 198 -7 c 2,47,-1
 192.75 -7 l 2,48,49
 176.25 -7 176.25 -7 161.625 -4.5 c 128,-1,50
 147 -2 147 -2 129.75 -2 c 0,51,52
 115.5 -2 115.5 -2 103.875 -3 c 128,-1,53
 92.25 -4 92.25 -4 81 -4.5 c 128,-1,54
 69.75 -5 69.75 -5 57.75 -6 c 128,-1,55
 45.75 -7 45.75 -7 31.5 -7 c 0,56,57
 26.25 -7 26.25 -7 19.875 -4 c 128,-1,58
 13.5 -1 13.5 -1 16.5 10 c 0,59,60
 18 20 18 20 22.875 24.5 c 128,-1,61
 27.75 29 27.75 29 35.25 30.5 c 128,-1,62
 42.75 32 42.75 32 52.5 34 c 128,-1,63
 62.25 36 62.25 36 74.25 44 c 0,64,65
 90.75 55 90.75 55 106.875 74.5 c 128,-1,66
 123 94 123 94 139.125 116.5 c 128,-1,67
 155.25 139 155.25 139 170.625 162.5 c 128,-1,68
 186 186 186 186 201 206 c 0,69,70
 210.75 219 210.75 219 227.625 239.5 c 128,-1,71
 244.5 260 244.5 260 260.625 281.5 c 128,-1,72
 276.75 303 276.75 303 289.125 322 c 128,-1,73
 301.5 341 301.5 341 303 350 c 1,74,75
 299.25 373 299.25 373 291.375 393 c 128,-1,76
 283.5 413 283.5 413 276.75 433 c 0,77,78
 259.5 485 259.5 485 242.25 535 c 128,-1,79
 225 585 225 585 206.25 635 c 0,80,81
 201 647 201 647 197.25 660 c 128,-1,82
 193.5 673 193.5 673 187.5 684 c 0,83,84
 181.5 696 181.5 696 172.125 699.5 c 128,-1,85
 162.75 703 162.75 703 155.625 704.5 c 128,-1,86
 148.5 706 148.5 706 143.625 709 c 128,-1,87
 138.75 712 138.75 712 141 724 c 0,88,89
 143.25 735 143.25 735 152.25 738.5 c 128,-1,90
 161.25 742 161.25 742 166.5 742 c 0,91,92
 180.75 742 180.75 742 193.125 741 c 128,-1,93
 205.5 740 205.5 740 217.125 738.5 c 128,-1,94
 228.75 737 228.75 737 241.125 736 c 128,-1,95
 253.5 735 253.5 735 267.75 735 c 0,96,97
 286.5 735 286.5 735 306 738.5 c 128,-1,98
 325.5 742 325.5 742 344.25 742 c 2,99,-1
 351 742 l 2,100,101
 357.75 742 357.75 742 363.75 738.5 c 128,-1,102
 369.75 735 369.75 735 367.5 726 c 0,103,104
 365.25 711 365.25 711 353.625 707 c 128,-1,105
 342 703 342 703 328.125 702 c 128,-1,106
 314.25 701 314.25 701 302.625 698 c 128,-1,107
 291 695 291 695 288.75 682 c 0,108,109
 288 676 288 676 294 651 c 128,-1,110
 300 626 300 626 309.375 596 c 128,-1,111
 318.75 566 318.75 566 328.5 537 c 128,-1,112
 338.25 508 338.25 508 342.75 493 c 0,113,114
 344.25 490 344.25 490 347.25 481 c 128,-1,115
 350.25 472 350.25 472 352.875 462.5 c 128,-1,116
 355.5 453 355.5 453 358.5 445.5 c 128,-1,117
 361.5 438 361.5 438 364.5 438 c 0,118,119
 368.25 438 368.25 438 378.75 451 c 128,-1,120
 389.25 464 389.25 464 402.75 483.5 c 128,-1,121
 416.25 503 416.25 503 431.25 526.5 c 128,-1,122
 446.25 550 446.25 550 459.75 572 c 128,-1,123
 473.25 594 473.25 594 483.75 611.5 c 128,-1,124
 494.25 629 494.25 629 500.25 636 c 0,125,126
 504.75 642 504.75 642 511.5 655.5 c 128,-1,127
 518.25 669 518.25 669 519 676 c 0,128,129
 522 692 522 692 513.75 697.5 c 128,-1,130
 505.5 703 505.5 703 494.625 706 c 128,-1,131
 483.75 709 483.75 709 474.75 711.5 c 128,-1,132
 465.75 714 465.75 714 467.25 724 c 0,133,134
 469.5 737 469.5 737 478.5 739 c 128,-1,135
 487.5 741 487.5 741 494.25 741 c 0,136,137
 516.75 741 516.75 741 537.375 738 c 128,-1,138
 558 735 558 735 580.5 735 c 0,139,140
 597.75 735 597.75 735 613.5 737.5 c 128,-1,141
 629.25 740 629.25 740 647.25 740 c 0,142,143
 652.5 740 652.5 740 660.75 739 c 128,-1,144
 669 738 669 738 666.75 727 c 0,145,146
 666 721 666 721 662.25 717 c 128,-1,147
 658.5 713 658.5 713 654 711 c 0,148,149
 642 705 642 705 631.125 702 c 128,-1,150
 620.25 699 620.25 699 610.5 695 c 128,-1,151
 600.75 691 600.75 691 590.25 683.5 c 128,-1,152
 579.75 676 579.75 676 567.75 662 c 0,153,154
 520.5 604 520.5 604 475.875 540.5 c 128,-1,155
 431.25 477 431.25 477 388.5 415 c 0,156,157
 381 406 381 406 378.75 395 c 1,158,159
 379.5 380 379.5 380 383.625 366.5 c 128,-1,160
 387.75 353 387.75 353 392.25 340 c 0,161,162
 414.75 272 414.75 272 436.5 206.5 c 128,-1,163
 458.25 141 458.25 141 482.25 77 c 0,164,165
 485.25 68 485.25 68 489.375 59.5 c 128,-1,166
 493.5 51 493.5 51 500.25 45 c 0,167,168
 506.25 37 506.25 37 514.5 33.5 c 128,-1,169
 522.75 30 522.75 30 529.875 27.5 c 128,-1,170
 537 25 537 25 541.125 22 c 128,-1,171
 545.25 19 545.25 19 544.5 13 c 0,0,1
EndSplineSet
Substitution2: "'c2sc' Versalien in Kapit+AOQA-lchen in Lateinisch Nachschlagetabelle 0 Subtabelle" x.sc
EndChar

StartChar: Y
Encoding: 89 89 74
Width: 558
Flags: W
LayerCount: 2
Fore
SplineSet
151.5 741 m 0,0,1
 171.75 741 171.75 741 190.125 737 c 128,-1,2
 208.5 733 208.5 733 228 733 c 0,3,4
 255 733 255 733 283.5 736.5 c 128,-1,5
 312 740 312 740 339.75 740 c 0,6,7
 343.5 740 343.5 740 347.625 735 c 128,-1,8
 351.75 730 351.75 730 351 725 c 0,9,10
 348.75 710 348.75 710 337.875 707.5 c 128,-1,11
 327 705 327 705 315.75 704 c 128,-1,12
 304.5 703 304.5 703 293.625 700.5 c 128,-1,13
 282.75 698 282.75 698 280.5 684 c 0,14,15
 278.25 673 278.25 673 282 655.5 c 128,-1,16
 285.75 638 285.75 638 291.375 619 c 128,-1,17
 297 600 297 600 303.75 582 c 128,-1,18
 310.5 564 310.5 564 315 552 c 0,19,20
 325.5 516 325.5 516 336.75 480.5 c 128,-1,21
 348 445 348 445 360 413 c 0,22,23
 361.5 409 361.5 409 362.625 405 c 128,-1,24
 363.75 401 363.75 401 367.5 399 c 0,25,26
 369.75 400 369.75 400 372.75 403.5 c 128,-1,27
 375.75 407 375.75 407 378 409 c 0,28,29
 383.25 415 383.25 415 397.875 436 c 128,-1,30
 412.5 457 412.5 457 432 485 c 128,-1,31
 451.5 513 451.5 513 472.5 545.5 c 128,-1,32
 493.5 578 493.5 578 511.875 605.5 c 128,-1,33
 530.25 633 530.25 633 541.875 652.5 c 128,-1,34
 553.5 672 553.5 672 554.25 676 c 0,35,36
 557.25 693 557.25 693 548.25 697.5 c 128,-1,37
 539.25 702 539.25 702 527.625 703.5 c 128,-1,38
 516 705 516 705 506.625 707.5 c 128,-1,39
 497.25 710 497.25 710 499.5 724 c 0,40,41
 501.75 736 501.75 736 505.875 737.5 c 128,-1,42
 510 739 510 739 516.75 739 c 0,43,44
 533.25 739 533.25 739 549.375 736 c 128,-1,45
 565.5 733 565.5 733 582 733 c 0,46,47
 600.75 733 600.75 733 619.5 736.5 c 128,-1,48
 638.25 740 638.25 740 657 740 c 0,49,50
 666.75 740 666.75 740 673.875 735 c 128,-1,51
 681 730 681 730 674.25 717 c 0,52,53
 669.75 709 669.75 709 662.25 706 c 128,-1,54
 654.75 703 654.75 703 646.125 701 c 128,-1,55
 637.5 699 637.5 699 627 694 c 128,-1,56
 616.5 689 616.5 689 606.75 676 c 0,57,58
 573 632 573 632 540.375 586 c 128,-1,59
 507.75 540 507.75 540 474.75 494 c 0,60,61
 460.5 474 460.5 474 442.125 450.5 c 128,-1,62
 423.75 427 423.75 427 406.875 403 c 128,-1,63
 390 379 390 379 377.625 354.5 c 128,-1,64
 365.25 330 365.25 330 361.5 307 c 2,65,-1
 326.25 103 l 2,66,67
 321.75 75 321.75 75 324.75 60.5 c 128,-1,68
 327.75 46 327.75 46 335.25 40 c 128,-1,69
 342.75 34 342.75 34 352.875 33 c 128,-1,70
 363 32 363 32 372.75 31.5 c 128,-1,71
 382.5 31 382.5 31 388.875 28.5 c 128,-1,72
 395.25 26 395.25 26 396.75 15 c 0,73,74
 395.25 6 395.25 6 391.125 -1 c 128,-1,75
 387 -8 387 -8 379.5 -8 c 0,76,77
 351.75 -8 351.75 -8 324 -4.5 c 128,-1,78
 296.25 -1 296.25 -1 267.75 -1 c 0,79,80
 242.25 -1 242.25 -1 216.375 -4.5 c 128,-1,81
 190.5 -8 190.5 -8 165 -8 c 0,82,83
 162.75 -8 162.75 -8 160.125 -7 c 128,-1,84
 157.5 -6 157.5 -6 158.25 -1 c 0,85,86
 157.5 14 157.5 14 166.125 20 c 128,-1,87
 174.75 26 174.75 26 187.875 28.5 c 128,-1,88
 201 31 201 31 214.5 34 c 128,-1,89
 228 37 228 37 237.75 49 c 0,90,91
 242.25 55 242.25 55 247.125 69 c 128,-1,92
 252 83 252 83 256.125 101 c 128,-1,93
 260.25 119 260.25 119 264 139.5 c 128,-1,94
 267.75 160 267.75 160 270.75 178 c 2,95,-1
 287.25 268 l 2,96,97
 292.5 300 292.5 300 295.5 321.5 c 128,-1,98
 298.5 343 298.5 343 292.5 360 c 0,99,100
 267.75 440 267.75 440 243 516.5 c 128,-1,101
 218.25 593 218.25 593 193.5 673 c 0,102,103
 188.25 689 188.25 689 177.375 696 c 128,-1,104
 166.5 703 166.5 703 156.375 707 c 128,-1,105
 146.25 711 146.25 711 138.75 714.5 c 128,-1,106
 131.25 718 131.25 718 132.75 729 c 0,107,108
 134.25 739 134.25 739 140.25 740 c 128,-1,109
 146.25 741 146.25 741 151.5 741 c 0,0,1
EndSplineSet
Substitution2: "'c2sc' Versalien in Kapit+AOQA-lchen in Lateinisch Nachschlagetabelle 0 Subtabelle" uni028F
EndChar

StartChar: Z
Encoding: 90 90 75
Width: 538
Flags: W
LayerCount: 2
Fore
SplineSet
193.5 750 m 0,0,1
 201 750 201 750 204.75 749 c 128,-1,2
 208.5 748 208.5 748 211.125 746 c 128,-1,3
 213.75 744 213.75 744 217.125 742 c 128,-1,4
 220.5 740 220.5 740 228 739 c 1,5,6
 233.25 733 233.25 733 246 731 c 128,-1,7
 258.75 729 258.75 729 270 729 c 2,8,-1
 283.5 729 l 2,9,10
 315.75 729 315.75 729 355.125 730 c 128,-1,11
 394.5 731 394.5 731 435.75 731.5 c 128,-1,12
 477 732 477 732 516.75 733 c 128,-1,13
 556.5 734 556.5 734 588.75 734 c 0,14,15
 595.5 734 595.5 734 606.75 736.5 c 128,-1,16
 618 739 618 739 627.375 740 c 128,-1,17
 636.75 741 636.75 741 642 737 c 128,-1,18
 647.25 733 647.25 733 642.75 721 c 0,19,20
 642.75 720 642.75 720 627 699 c 128,-1,21
 611.25 678 611.25 678 585 644 c 128,-1,22
 558.75 610 558.75 610 525 566.5 c 128,-1,23
 491.25 523 491.25 523 456 477 c 128,-1,24
 420.75 431 420.75 431 385.5 385.5 c 128,-1,25
 350.25 340 350.25 340 321 301.5 c 128,-1,26
 291.75 263 291.75 263 271.125 236 c 128,-1,27
 250.5 209 250.5 209 243.75 200 c 0,28,29
 236.25 189 236.25 189 220.5 168.5 c 128,-1,30
 204.75 148 204.75 148 188.625 126 c 128,-1,31
 172.5 104 172.5 104 159.75 84.5 c 128,-1,32
 147 65 147 65 142.5 52 c 0,33,34
 141 44 141 44 145.5 40 c 128,-1,35
 150 36 150 36 156 35 c 128,-1,36
 162 34 162 34 169.5 34.5 c 128,-1,37
 177 35 177 35 182.25 35 c 0,38,39
 214.5 35 214.5 35 252 35.5 c 128,-1,40
 289.5 36 289.5 36 321.75 36 c 0,41,42
 347.25 36 347.25 36 376.5 37.5 c 128,-1,43
 405.75 39 405.75 39 432.75 49 c 0,44,45
 453 59 453 59 465.375 77 c 128,-1,46
 477.75 95 477.75 95 491.25 119 c 0,47,48
 497.25 130 497.25 130 502.875 144 c 128,-1,49
 508.5 158 508.5 158 514.125 168 c 128,-1,50
 519.75 178 519.75 178 525.75 180.5 c 128,-1,51
 531.75 183 531.75 183 538.5 173 c 1,52,53
 537.75 156 537.75 156 534.75 140 c 0,54,55
 531.75 123 531.75 123 525.375 105 c 128,-1,56
 519 87 519 87 513.75 70 c 0,57,58
 510 58 510 58 506.625 44 c 128,-1,59
 503.25 30 503.25 30 498.375 18 c 128,-1,60
 493.5 6 493.5 6 486.375 -1 c 128,-1,61
 479.25 -8 479.25 -8 468.75 -8 c 0,62,63
 441.75 -8 441.75 -8 414.75 -6 c 128,-1,64
 387.75 -4 387.75 -4 360 -4 c 2,65,-1
 297.75 -4 l 2,66,67
 232.5 -4 232.5 -4 162 -7.5 c 128,-1,68
 91.5 -11 91.5 -11 26.25 -11 c 0,69,70
 15 -11 15 -11 18 4 c 0,71,72
 18 6 18 6 33.375 27 c 128,-1,73
 48.75 48 48.75 48 73.5 82.5 c 128,-1,74
 98.25 117 98.25 117 130.875 160.5 c 128,-1,75
 163.5 204 163.5 204 197.625 250 c 128,-1,76
 231.75 296 231.75 296 265.875 341.5 c 128,-1,77
 300 387 300 387 328.125 424.5 c 128,-1,78
 356.25 462 356.25 462 376.5 489 c 128,-1,79
 396.75 516 396.75 516 403.5 525 c 256,80,81
 410.25 534 410.25 534 427.5 556 c 128,-1,82
 444.75 578 444.75 578 463.125 601 c 128,-1,83
 481.5 624 481.5 624 496.875 644.5 c 128,-1,84
 512.25 665 512.25 665 516 672 c 0,85,86
 517.5 674 517.5 674 520.5 679.5 c 128,-1,87
 523.5 685 523.5 685 525 688 c 0,88,89
 526.5 692 526.5 692 521.25 693.5 c 128,-1,90
 516 695 516 695 508.5 695 c 0,91,92
 501.75 695 501.75 695 494.25 694.5 c 128,-1,93
 486.75 694 486.75 694 484.5 694 c 2,94,-1
 435 694 l 2,95,96
 414 694 414 694 391.875 693.5 c 128,-1,97
 369.75 693 369.75 693 347.625 692.5 c 128,-1,98
 325.5 692 325.5 692 305.25 691.5 c 128,-1,99
 285 691 285 691 268.5 690 c 0,100,101
 245.25 688 245.25 688 225.375 680 c 128,-1,102
 205.5 672 205.5 672 185.25 646 c 0,103,104
 178.5 638 178.5 638 171 625.5 c 128,-1,105
 163.5 613 163.5 613 157.125 601 c 128,-1,106
 150.75 589 150.75 589 144 580 c 128,-1,107
 137.25 571 137.25 571 132.75 571 c 0,108,109
 129 571 129 571 123 574 c 128,-1,110
 117 577 117 577 120 585 c 0,111,112
 129 612 129 612 139.5 638.5 c 128,-1,113
 150 665 150 665 159.75 691 c 0,114,115
 169.5 714 169.5 714 176.625 732 c 128,-1,116
 183.75 750 183.75 750 193.5 750 c 0,0,1
EndSplineSet
Substitution2: "'c2sc' Versalien in Kapit+AOQA-lchen in Lateinisch Nachschlagetabelle 0 Subtabelle" uni1D22
EndChar

StartChar: bracketleft
Encoding: 91 91 76
Width: 236
Flags: W
LayerCount: 2
Fore
SplineSet
365.25 734 m 0,0,1
 362.25 717 362.25 717 349.875 707 c 128,-1,2
 337.5 697 337.5 697 322.875 692 c 128,-1,3
 308.25 687 308.25 687 293.625 685.5 c 128,-1,4
 279 684 279 684 271.5 684 c 0,5,6
 265.5 684 265.5 684 259.5 685 c 128,-1,7
 253.5 686 253.5 686 247.5 686 c 0,8,9
 237.75 686 237.75 686 229.875 679.5 c 128,-1,10
 222 673 222 673 219.75 658 c 0,11,12
 207 600 207 600 196.875 544.5 c 128,-1,13
 186.75 489 186.75 489 177 431 c 0,14,15
 153 295 153 295 129.375 163 c 128,-1,16
 105.75 31 105.75 31 84.75 -105 c 0,17,18
 83.25 -112 83.25 -112 82.125 -126.5 c 128,-1,19
 81 -141 81 -141 84 -146 c 0,20,21
 88.5 -154 88.5 -154 99.75 -154 c 128,-1,22
 111 -154 111 -154 119.25 -154 c 0,23,24
 126 -154 126 -154 141 -155.5 c 128,-1,25
 156 -157 156 -157 170.625 -162.5 c 128,-1,26
 185.25 -168 185.25 -168 194.25 -177.5 c 128,-1,27
 203.25 -187 203.25 -187 200.25 -203 c 0,28,29
 198 -210 198 -210 194.25 -212 c 128,-1,30
 190.5 -214 190.5 -214 186.75 -214 c 0,31,32
 178.5 -214 178.5 -214 170.625 -209 c 128,-1,33
 162.75 -204 162.75 -204 154.5 -202 c 0,34,35
 135 -197 135 -197 115.5 -196 c 128,-1,36
 96 -195 96 -195 75 -200 c 0,37,38
 62.25 -203 62.25 -203 49.875 -209.5 c 128,-1,39
 37.5 -216 37.5 -216 25.5 -216 c 0,40,41
 18.75 -216 18.75 -216 18 -210 c 128,-1,42
 17.25 -204 17.25 -204 18.75 -196 c 2,43,-1
 180.75 730 l 2,44,45
 181.5 734 181.5 734 182.625 738.5 c 128,-1,46
 183.75 743 183.75 743 187.5 745 c 0,47,48
 189 747 189 747 194.25 748 c 0,49,50
 209.25 748 209.25 748 223.5 742 c 128,-1,51
 237.75 736 237.75 736 252.75 733 c 0,52,53
 260.25 731 260.25 731 268.875 730 c 128,-1,54
 277.5 729 277.5 729 285 729 c 0,55,56
 311.25 729 311.25 729 338.25 738 c 0,57,58
 344.25 740 344.25 740 349.875 743 c 128,-1,59
 355.5 746 355.5 746 361.5 746 c 0,60,61
 364.5 746 364.5 746 365.25 742 c 128,-1,62
 366 738 366 738 365.25 734 c 0,0,1
EndSplineSet
EndChar

StartChar: backslash
Encoding: 92 92 77
Width: 234
Flags: W
LayerCount: 2
Fore
SplineSet
215.25 -22 m 1,0,1
 189 179 189 179 162 375.5 c 128,-1,2
 135 572 135 572 108.75 773 c 1,3,-1
 150 773 l 1,4,5
 176.25 572 176.25 572 202.5 375.5 c 128,-1,6
 228.75 179 228.75 179 255.75 -22 c 1,7,-1
 215.25 -22 l 1,0,1
EndSplineSet
EndChar

